<svg width="2015" height="1306" viewBox="0 0 2015 1306" fill="none" xmlns="http://www.w3.org/2000/svg">
<g opacity="0.05">
<path d="M460.216 0L750.819 0V20.0923L460.216 20.0923V0Z" fill="black"/>
<path d="M480.569 10.0461L480.569 127.251L460.216 127.251L460.216 10.0461L480.569 10.0461Z" fill="black"/>
<path d="M480.569 227.713L480.569 1079.4L460.216 1079.4L460.216 227.713L480.569 227.713Z" fill="black"/>
<path d="M480.569 1180.98L480.569 1283.68L460.216 1283.68L460.216 1180.98L480.569 1180.98Z" fill="black"/>
<path d="M20.3535 366.126L20.3535 690.952L-1.90748e-05 690.952L-4.69157e-06 366.126L20.3535 366.126Z" fill="black"/>
<path d="M20.3535 925.362L20.3535 1283.68L-2.05576e-05 1283.68L-4.69157e-06 925.362L20.3535 925.362Z" fill="black"/>
<path d="M20.3535 217.667L20.3535 282.408L-2.04988e-05 282.408L-1.7632e-05 217.667L20.3535 217.667Z" fill="black"/>
<path d="M20.3535 73.6718L20.3535 133.949L-2.24468e-05 133.949L-1.97778e-05 73.6718L20.3535 73.6718Z" fill="black"/>
<path d="M1015.42 0L1706.3 0V20.0923L1015.42 20.0923V0Z" fill="black"/>
<path d="M0 1265.82L1389.69 1265.82V1306L0 1306L0 1265.82Z" fill="black"/>
<path d="M1791.11 0L1925.67 0V20.0923L1791.11 20.0923V0Z" fill="black"/>
<path d="M1925.67 10.0461L1925.67 101.578L1905.32 101.578L1905.32 10.0461L1925.67 10.0461Z" fill="black"/>
<path d="M1925.67 398.497L1925.67 450.961L1905.32 450.961L1905.32 398.497L1925.67 398.497Z" fill="black"/>
<path d="M1936.98 101.578L1905.32 101.578L1905.32 81.4855L1936.98 81.4855L1936.98 101.578Z" fill="black"/>
<path d="M1936.98 408.544L1905.32 408.544L1905.32 388.451L1936.98 388.451L1936.98 408.544Z" fill="black"/>
<path d="M1936.98 408.544L1905.32 408.544L1905.32 388.451L1936.98 388.451L1936.98 408.544Z" fill="black"/>
<path d="M1925.67 450.961L1843.13 450.961L1843.13 430.868L1925.67 430.868L1925.67 450.961Z" fill="black"/>
<path d="M1739.1 450.961L1174.85 450.961L1174.85 430.868L1739.1 430.868L1739.1 450.961Z" fill="black"/>
<path d="M1240.44 12.2787L1240.44 443.147L1220.08 443.147L1220.08 12.2787L1240.44 12.2787Z" fill="black"/>
<path d="M1739.1 620.629L1120.58 620.629L1120.58 600.537L1739.1 600.537L1739.1 620.629Z" fill="black"/>
<path d="M1369.34 1285.91L1369.34 617.28L1389.69 617.28L1389.69 1285.91L1369.34 1285.91Z" fill="black"/>
<path d="M1291.32 1021.36L1922.28 1021.36V1041.45L1291.32 1041.45V1021.36Z" fill="black"/>
<path fill-rule="evenodd" clip-rule="evenodd" d="M1293.58 1039.22V1046.47H1291.32V1039.22H1293.58ZM1293.58 1060.99V1075.5H1291.32V1060.99H1293.58ZM1293.58 1090.01V1104.52H1291.32V1090.01H1293.58ZM1293.58 1119.03V1133.54H1291.32V1119.03H1293.58ZM1293.58 1148.05V1162.56H1291.32V1148.05H1293.58ZM1293.58 1177.07V1191.59H1291.32V1177.07H1293.58ZM1293.58 1206.1V1214.47H1285.21V1212.24H1291.32V1206.1H1293.58ZM894.314 1214.47H887.075V1212.24H894.314V1214.47ZM923.269 1214.47H908.791V1212.24H923.269V1214.47ZM952.224 1214.47H937.747V1212.24H952.224V1214.47ZM981.18 1214.47H966.702V1212.24H981.18V1214.47ZM1010.13 1214.47H995.657V1212.24H1010.13V1214.47ZM1039.09 1214.47H1024.61V1212.24H1039.09V1214.47ZM1068.05 1214.47H1053.57V1212.24H1068.05V1214.47ZM1097 1214.47H1082.52V1212.24H1097V1214.47ZM1125.96 1214.47H1111.48V1212.24H1125.96V1214.47ZM1154.91 1214.47H1140.43V1212.24H1154.91V1214.47ZM1183.87 1214.47H1169.39V1212.24H1183.87V1214.47ZM1212.82 1214.47H1198.34V1212.24H1212.82V1214.47ZM1241.78 1214.47H1227.3V1212.24H1241.78V1214.47ZM1270.73 1214.47H1256.26V1212.24H1270.73V1214.47Z" fill="black"/>
<path d="M1070.82 450.961L697.674 450.961L697.674 430.868L1070.82 430.868L1070.82 450.961Z" fill="black"/>
<path d="M512.23 450.961L20.3534 450.961L20.3534 430.868L512.23 430.868L512.23 450.961Z" fill="black"/>
<path d="M469.262 93.7642L20.3537 93.7641L20.3537 73.6719L469.262 73.6719L469.262 93.7642Z" fill="black"/>
<path d="M1070.82 620.629L869.548 620.629L869.548 600.537L1070.82 600.537L1070.82 620.629Z" fill="black"/>
<path d="M869.548 908.619L869.548 600.537L889.902 600.537L889.902 908.619L869.548 908.619Z" fill="black"/>
<path d="M869.548 1062.66L869.548 1011.31L889.902 1011.31L889.902 1062.66L869.548 1062.66Z" fill="black"/>
<path d="M869.548 1268.05L869.548 1212.24L889.902 1212.24L889.902 1268.05L869.548 1268.05Z" fill="black"/>
<path d="M732.728 1031.41L732.728 887.41L753.081 887.41L753.081 1031.41L732.728 1031.41Z" fill="black"/>
<path d="M745.166 718.858L745.166 577.096L765.519 577.096L765.519 718.858L745.166 718.858Z" fill="black"/>
<path d="M469.262 698.766L765.519 698.766V718.858L469.262 718.858V698.766Z" fill="black"/>
<path d="M469.262 1011.31L889.902 1011.31V1031.41L469.262 1031.41V1011.31Z" fill="black"/>
<path d="M732.728 887.41H889.902V907.503H732.728V887.41Z" fill="black"/>
<path d="M1875.92 474.402L1875.92 440.915L1896.27 440.915L1896.27 474.402L1875.92 474.402Z" fill="black"/>
<path d="M745.166 474.402L745.166 440.915L765.519 440.915L765.519 474.402L745.166 474.402Z" fill="black"/>
<path fill-rule="evenodd" clip-rule="evenodd" d="M1878.18 476.634L1878.18 574.863L1894.01 574.863L1894.01 476.634L1878.18 476.634ZM1875.92 577.096L1896.27 577.096L1896.27 474.402L1875.92 474.402L1875.92 577.096Z" fill="black"/>
<path fill-rule="evenodd" clip-rule="evenodd" d="M747.427 476.634L747.427 574.863L763.258 574.863L763.258 476.634L747.427 476.634ZM745.166 577.096L765.519 577.096L765.519 474.402L745.166 474.402L745.166 577.096Z" fill="black"/>
<path fill-rule="evenodd" clip-rule="evenodd" d="M871.81 910.851L871.81 1009.08L887.64 1009.08L887.64 910.851L871.81 910.851ZM869.548 1011.31L889.902 1011.31L889.902 908.619L869.548 908.619L869.548 1011.31Z" fill="black"/>
<path fill-rule="evenodd" clip-rule="evenodd" d="M1840.86 433.101H1741.36V448.728H1840.86V433.101ZM1739.1 430.868V450.961H1843.13V430.868H1739.1Z" fill="black"/>
<path fill-rule="evenodd" clip-rule="evenodd" d="M1840.86 602.769H1741.36V618.397H1840.86V602.769ZM1739.1 600.537V620.629H1843.13V600.537H1739.1Z" fill="black"/>
<path fill-rule="evenodd" clip-rule="evenodd" d="M1172.59 433.101H1073.08V448.728H1172.59V433.101ZM1070.82 430.868V450.961H1174.85V430.868H1070.82Z" fill="black"/>
<path fill-rule="evenodd" clip-rule="evenodd" d="M867.287 700.998H767.781V716.626H867.287V700.998ZM765.519 698.766V718.858H869.548V698.766H765.519Z" fill="black"/>
<path d="M2010.48 101.578L1991.25 101.578L1991.25 81.4855L2010.48 81.4855L2010.48 101.578Z" fill="black"/>
<path d="M2010.48 408.544L1991.25 408.544L1991.25 388.451L2010.48 388.451L2010.48 408.544Z" fill="black"/>
<path d="M1994.65 108.275L1994.65 81.4855L2015 81.4855L2015 108.275L1994.65 108.275Z" fill="black"/>
<path d="M1994.65 408.544L1994.65 381.754L2015 381.754L2015 408.544L1994.65 408.544Z" fill="black"/>
<path fill-rule="evenodd" clip-rule="evenodd" d="M1013.15 2.23248L753.081 2.23248V17.8598L1013.15 17.8598V2.23248ZM750.819 0V20.0923L1015.42 20.0923V0L750.819 0Z" fill="black"/>
<path fill-rule="evenodd" clip-rule="evenodd" d="M1015.42 11.1624L751.95 11.1624L751.95 8.92993L1015.42 8.92995L1015.42 11.1624Z" fill="black"/>
<path fill-rule="evenodd" clip-rule="evenodd" d="M18.092 923.13L18.092 693.185L2.26148 693.185L2.26147 923.13L18.092 923.13ZM20.3535 690.952L-1.97887e-05 690.952L-3.01684e-05 925.362L20.3535 925.362L20.3535 690.952Z" fill="black"/>
<path fill-rule="evenodd" clip-rule="evenodd" d="M9.0461 925.362L9.04611 690.952L11.3076 690.952L11.3076 925.362L9.0461 925.362Z" fill="black"/>
<path fill-rule="evenodd" clip-rule="evenodd" d="M1788.85 2.23248L1708.57 2.23248V17.8598L1788.85 17.8598V2.23248ZM1706.3 0V20.0923L1791.11 20.0923V0L1706.3 0Z" fill="black"/>
<path fill-rule="evenodd" clip-rule="evenodd" d="M1789.86 11.1624L1706.3 11.1624V8.92993L1789.86 8.92993V11.1624Z" fill="black"/>
<path fill-rule="evenodd" clip-rule="evenodd" d="M18.092 215.434L18.092 136.181L2.26148 136.181L2.26148 215.434L18.092 215.434ZM20.3535 133.949L-2.19345e-05 133.949L-2.56415e-05 217.667L20.3535 217.667L20.3535 133.949Z" fill="black"/>
<path fill-rule="evenodd" clip-rule="evenodd" d="M9.04611 216.436L9.04611 133.949L11.3076 133.949L11.3076 216.436L9.04611 216.436Z" fill="black"/>
<path fill-rule="evenodd" clip-rule="evenodd" d="M18.092 363.894L18.092 284.641L2.26148 284.641L2.26148 363.894L18.092 363.894ZM20.3535 282.409L-2.19345e-05 282.409L-2.56415e-05 366.127L20.3535 366.127L20.3535 282.409Z" fill="black"/>
<path fill-rule="evenodd" clip-rule="evenodd" d="M9.04611 364.895L9.04611 282.409L11.3076 282.409L11.3076 364.895L9.04611 364.895Z" fill="black"/>
<path fill-rule="evenodd" clip-rule="evenodd" d="M1988.99 83.718L1939.24 83.718V99.3453H1988.99V83.718ZM1936.98 81.4855V101.578H1991.25V81.4855L1936.98 81.4855Z" fill="black"/>
<path fill-rule="evenodd" clip-rule="evenodd" d="M1990.46 92.6479L1936.98 92.6479V90.4154L1990.46 90.4154V92.6479Z" fill="black"/>
<path fill-rule="evenodd" clip-rule="evenodd" d="M1988.99 390.684H1939.24V406.311H1988.99V390.684ZM1936.98 388.451V408.544H1991.25V388.451H1936.98Z" fill="black"/>
<path fill-rule="evenodd" clip-rule="evenodd" d="M1990.46 399.614H1936.98V397.381H1990.46V399.614Z" fill="black"/>
<path fill-rule="evenodd" clip-rule="evenodd" d="M2012.74 379.521L2012.74 109.391L1996.91 109.391L1996.91 379.521L2012.74 379.521ZM2015 107.159L1994.65 107.159L1994.65 381.754L2015 381.754L2015 107.159Z" fill="black"/>
<path fill-rule="evenodd" clip-rule="evenodd" d="M2003.69 380.638L2003.69 107.159L2005.95 107.159L2005.95 380.638L2003.69 380.638Z" fill="black"/>
<path d="M1925.67 1041.45L1925.67 949.92L1905.32 949.92L1905.32 1041.45L1925.67 1041.45Z" fill="black"/>
<path d="M1925.67 653L1925.67 600.537L1905.32 600.537L1905.32 653L1925.67 653Z" fill="black"/>
<path d="M1936.98 949.92L1905.32 949.92L1905.32 970.012L1936.98 970.012L1936.98 949.92Z" fill="black"/>
<path d="M1936.98 642.954L1905.32 642.954L1905.32 663.046L1936.98 663.046L1936.98 642.954Z" fill="black"/>
<path d="M1936.98 642.954L1905.32 642.954L1905.32 663.046L1936.98 663.046L1936.98 642.954Z" fill="black"/>
<path d="M1925.67 600.537L1843.13 600.537L1843.13 620.629L1925.67 620.629L1925.67 600.537Z" fill="black"/>
<path d="M1875.92 577.096L1875.92 610.583L1896.27 610.583L1896.27 577.096L1875.92 577.096Z" fill="black"/>
<path d="M2010.48 949.92L1991.25 949.92L1991.25 970.012L2010.48 970.012L2010.48 949.92Z" fill="black"/>
<path d="M2010.48 642.954L1991.25 642.954L1991.25 663.046L2010.48 663.046L2010.48 642.954Z" fill="black"/>
<path d="M1994.65 943.222L1994.65 970.012L2015 970.012L2015 943.222L1994.65 943.222Z" fill="black"/>
<path d="M1994.65 642.954L1994.65 669.744L2015 669.744L2015 642.954L1994.65 642.954Z" fill="black"/>
<path fill-rule="evenodd" clip-rule="evenodd" d="M1988.99 967.779H1939.24V952.152H1988.99V967.779ZM1936.98 970.012V949.92H1991.25V970.012H1936.98Z" fill="black"/>
<path fill-rule="evenodd" clip-rule="evenodd" d="M1990.46 958.85H1936.98V961.082H1990.46V958.85Z" fill="black"/>
<path fill-rule="evenodd" clip-rule="evenodd" d="M1988.99 660.814H1939.24V645.186H1988.99V660.814ZM1936.98 663.046V642.954H1991.25V663.046H1936.98Z" fill="black"/>
<path fill-rule="evenodd" clip-rule="evenodd" d="M1990.46 651.884H1936.98V654.116H1990.46V651.884Z" fill="black"/>
<path fill-rule="evenodd" clip-rule="evenodd" d="M2012.74 671.976L2012.74 942.106L1996.91 942.106L1996.91 671.976L2012.74 671.976ZM2015 944.338L1994.65 944.338L1994.65 669.744L2015 669.744L2015 944.338Z" fill="black"/>
<path fill-rule="evenodd" clip-rule="evenodd" d="M2003.69 671.552L2003.69 944.338L2005.95 944.338L2005.95 671.552L2003.69 671.552Z" fill="black"/>
<path d="M1228.42 863.098V827.053L1223.6 826.269V822.532H1237.46L1255.65 849.657L1259.07 856.528V827.053L1253.82 826.269V822.532H1268.97V826.269L1264.26 827.053V867.318H1256.88L1237.89 838.807L1233.61 830.85V863.098L1239.78 863.701V867.318H1223.6V863.701L1228.42 863.098Z" fill="black"/>
<path d="M1188.35 863.098V827.053L1183.46 826.269V822.532H1216.01L1216.8 832.659H1212.53L1210.51 826.691L1197.32 826.149V842.363L1205.81 842.182L1206.79 837.24H1210.7V851.827H1206.79L1205.81 846.643L1197.32 846.462V863.46L1212.1 862.737L1215.64 855.021L1220.22 856.287L1218.63 867.318H1183.52V863.701L1188.35 863.098Z" fill="black"/>
<path d="M1137.43 863.098V827.053L1132.91 826.269V822.532H1151.47V826.269L1146.34 827.053V842.182H1164.9V827.053L1160.2 826.269V822.532H1178.52V826.269L1173.88 827.053V863.098L1178.52 863.701V867.318H1160.14V863.701L1164.9 863.098V846.763H1146.34V863.098L1151.47 863.701V867.318H1132.79V863.701L1137.43 863.098Z" fill="black"/>
<path d="M1113.11 867.981C1098.95 867.981 1091.74 858.939 1091.74 845.136C1091.74 830.91 1101.33 822.05 1114.09 822.05C1119.95 822.05 1125.63 823.436 1128.01 823.677L1127.34 836.094H1121.72L1119.83 827.475C1119.04 826.691 1116.96 825.968 1113.3 825.968C1106.58 825.968 1101.82 832.116 1101.82 844.412C1101.82 855.443 1105.6 864.063 1113.54 864.063C1117.57 864.063 1119.16 863.159 1120.32 862.074L1123 855.865L1128.13 856.347L1126.91 865.69C1123.07 865.992 1120.62 867.981 1113.11 867.981Z" fill="black"/>
<path d="M1063.72 863.098V826.51L1054.99 826.812L1052.61 839.952H1047.48L1048.52 822.532H1087.9L1088.63 839.952H1083.81L1081.43 826.812L1072.82 826.51V863.098L1081.37 863.701V867.318H1055.9V863.701L1063.72 863.098Z" fill="black"/>
<path d="M1029.4 863.098V827.053L1024.21 826.269V822.532H1043.74V826.269L1038.37 827.053V863.098L1043.74 863.762V867.318H1024.21V863.701L1029.4 863.098Z" fill="black"/>
<path d="M1010.64 867.318C1008.08 867.318 1002.22 852.008 997.455 846.221L992.02 852.369V863.098L997.272 863.762V867.318H978.282V863.701L983.106 863.098V827.053L978.343 826.269V822.532H996.722V826.269L992.02 827.053V846.703L1008.08 827.053L1003.07 826.269V822.532H1019.56V826.269L1014.49 827.053L1002.64 840.193C1008.51 845.377 1016.32 862.074 1018.7 863.098L1021.57 863.762V867.318H1010.64Z" fill="black"/>
<path d="M1767.32 838.541V824.979L1754.25 802.496L1750.77 801.712V797.975H1768.73V801.712L1764.39 802.496L1772.02 817.263L1773.73 821.423L1775.5 817.263L1782.53 802.496L1777.76 801.712V797.975H1792.66V801.712L1788.88 802.435L1776.72 824.919V838.541L1783.38 839.144V842.761H1760.85V839.144L1767.32 838.541Z" fill="black"/>
<path d="M1712.51 838.541V802.496L1707.93 801.712V797.975H1716.84C1720.75 797.975 1723.8 797.553 1727.59 797.553C1742.91 797.553 1750 805.57 1750 818.831C1750 833.237 1740.96 843.544 1726.73 843.243C1723.56 843.122 1719.65 842.761 1716.96 842.761H1707.68V839.144L1712.51 838.541ZM1721.36 838.722C1723.19 839.204 1725.08 839.265 1727.16 839.265C1734.98 839.144 1740.23 833.237 1740.23 820.217C1740.23 808.644 1736.07 801.411 1726.18 801.411C1723.92 801.411 1722.34 801.772 1721.36 801.833V838.722Z" fill="black"/>
<path d="M1683.43 843.243C1671.16 843.243 1665.11 837.456 1665.11 824.256V802.496L1661.08 801.712V797.975H1679.52V801.712L1674.33 802.556V825.039C1674.33 834.864 1677.94 839.385 1684.65 839.385C1691.61 839.385 1694.6 833.84 1694.6 825.28V802.556L1689.35 801.712V797.975H1704.62V801.712L1700.47 802.496V824.798C1700.47 837.878 1693.26 843.243 1683.43 843.243Z" fill="black"/>
<path d="M1633.67 838.541V801.953L1624.94 802.255L1622.56 815.395H1617.43L1618.47 797.975H1657.85L1658.58 815.395H1653.76L1651.38 802.255L1642.77 801.953V838.541L1651.32 839.144V842.761H1625.86V839.144L1633.67 838.541Z" fill="black"/>
<path d="M1597.8 843.424C1590.47 843.424 1585.16 840.892 1583.14 840.772L1583.69 829.62H1588.64L1589.98 837.396C1590.96 838.421 1593.77 839.566 1597.49 839.566C1603.05 839.566 1605.67 836.914 1605.67 832.815C1605.67 828.415 1601.52 826.305 1595.23 823.532C1590.47 821.362 1583.51 817.686 1583.51 809.488C1583.51 802.918 1588.7 797.433 1599.14 797.433C1605.73 797.433 1610.01 799.422 1611.78 799.542L1611.41 810.091H1606.53L1605.25 802.677C1604.63 802.014 1602.31 801.109 1599.38 801.109C1594.32 801.109 1591.99 803.641 1591.99 807.197C1591.99 811.959 1596.88 814.069 1602.86 816.962C1607.99 819.373 1614.71 822.809 1614.71 830.103C1614.71 836.13 1610.44 843.424 1597.8 843.424Z" fill="black"/>
<path d="M1723.53 248.051V234.488L1710.46 212.005L1706.98 211.221V207.484H1724.93V211.221L1720.6 212.005L1728.23 226.773L1729.94 230.932L1731.71 226.773L1738.73 212.005L1733.97 211.221V207.484H1748.87V211.221L1745.08 211.945L1732.93 234.428V248.051L1739.59 248.653V252.27H1717.06V248.653L1723.53 248.051Z" fill="black"/>
<path d="M1666.33 252.27V248.653L1671.16 248.051V212.005L1666.58 211.161V207.484H1675.43C1678.91 207.484 1681.48 207.062 1685.38 207.062C1698.02 207.062 1702.67 210.739 1702.67 218.997C1702.67 224.121 1699.86 229.727 1693.87 231.595C1700.22 234.247 1703.28 247.388 1706.21 248.111L1708.22 248.714V252.27H1697.84C1694.79 252.27 1691.06 234.971 1686.42 232.981H1680.13V248.051L1685.75 248.653V252.27H1666.33ZM1685.75 229.305C1690.27 229.305 1693.14 226.23 1693.14 219.419C1693.14 213.813 1691.06 210.8 1684.59 210.8C1682.21 210.8 1680.99 211.041 1680.13 211.101V229.184C1681.35 229.365 1684.71 229.305 1685.75 229.305Z" fill="black"/>
<path d="M1623.7 248.051L1637.75 207.243H1647.09L1661.2 248.051L1664.74 248.654V252.27H1646.72V248.654L1651.3 248.051L1648.92 240.215H1633.11L1630.73 248.111L1635.67 248.654V252.27H1620.1L1620.04 248.654L1623.7 248.051ZM1647.7 235.995L1641.96 217.43L1640.86 212.728L1639.7 217.49L1634.27 235.995H1647.7Z" fill="black"/>
<path d="M1579.45 252.27V248.653L1584.28 248.051V212.005L1579.7 211.161V207.484H1588.55C1592.03 207.484 1594.6 207.062 1598.5 207.062C1611.14 207.062 1615.78 210.739 1615.78 218.997C1615.78 224.121 1612.98 229.727 1606.99 231.595C1613.34 234.247 1616.4 247.388 1619.33 248.111L1621.34 248.714V252.27H1610.96C1607.91 252.27 1604.18 234.971 1599.54 232.981H1593.25V248.051L1598.87 248.653V252.27H1579.45ZM1598.87 229.305C1603.39 229.305 1606.26 226.23 1606.26 219.419C1606.26 213.813 1604.18 210.8 1597.71 210.8C1595.33 210.8 1594.11 211.041 1593.25 211.101V229.184C1594.47 229.365 1597.83 229.305 1598.87 229.305Z" fill="black"/>
<path d="M1541.23 248.051V212.005L1536.46 211.221V207.484H1545.56C1549.35 207.484 1552.28 207.062 1555.39 207.062C1568.34 207.062 1572 210.98 1572 217.249C1572 223.277 1567.97 227.496 1562.17 228.34C1570.17 228.28 1575.11 232.138 1575.11 238.768C1575.11 246.303 1570.72 252.632 1555.76 252.632C1551.61 252.632 1549.77 252.27 1545.62 252.27H1536.4V248.653L1541.23 248.051ZM1550.08 227.014C1551.42 227.135 1554.23 227.074 1555.7 227.074C1560.76 227.074 1563.08 223.759 1563.08 218.334C1563.08 213.15 1560.83 210.739 1554.9 210.739C1553.38 210.739 1550.99 210.92 1550.08 210.98V227.014ZM1550.08 248.292C1551.18 248.714 1553.68 248.834 1555.45 248.834C1562.66 248.834 1565.28 245.218 1565.28 239.431C1565.28 233.524 1562.54 231.233 1556.49 231.233C1554.6 231.233 1551.36 231.233 1550.08 231.354V248.292Z" fill="black"/>
<path d="M1516.91 248.051V212.005L1511.72 211.221V207.484H1531.26V211.221L1525.89 212.005V248.051L1531.26 248.714V252.27H1511.72V248.653L1516.91 248.051Z" fill="black"/>
<path d="M1477.24 248.051V212.005L1472.54 211.221V207.484H1492.08V211.221L1486.22 212.005V247.99L1499.29 247.448L1503.13 236.176L1508.08 236.839L1506.19 252.27H1472.42V248.653L1477.24 248.051Z" fill="black"/>
<path d="M749.076 806.226L752.295 780.193L747.532 779.627V776.928H761.291L766.539 795.647L767.774 800.741L768.832 795.647L774.036 776.928H787.663V779.627L782.856 780.193L786.384 806.183L789.956 806.661V809.273H775.888V806.661L779.769 806.226L777.829 787.158L776.991 779.192L775.359 785.896L768.965 807.924H764.29L757.764 787.028L755.514 779.192L754.853 787.158L753.177 806.226L757.631 806.661V809.273H745.372V806.661L749.076 806.226Z" fill="black"/>
<path d="M728.987 809.752C718.976 809.84 714.478 803.092 714.478 793.21C714.478 783.023 720.564 776.493 729.516 776.537C739.482 776.537 743.98 782.849 743.98 792.644C743.98 802.831 737.851 809.665 728.987 809.752ZM729.251 779.192C724.533 779.192 721.578 783.72 721.578 793.166C721.578 802.395 724.356 807.097 729.163 807.097C733.838 807.097 736.792 802.134 736.792 792.644C736.792 783.415 734.014 779.192 729.251 779.192Z" fill="black"/>
<path d="M696.903 809.752C686.892 809.84 682.394 803.092 682.394 793.21C682.394 783.023 688.48 776.493 697.432 776.537C707.398 776.537 711.896 782.849 711.896 792.644C711.896 802.831 705.767 809.665 696.903 809.752ZM697.167 779.192C692.449 779.192 689.494 783.72 689.494 793.166C689.494 802.395 692.272 807.097 697.079 807.097C701.754 807.097 704.708 802.134 704.708 792.644C704.708 783.415 701.93 779.192 697.167 779.192Z" fill="black"/>
<path d="M651.009 809.273V806.661L654.493 806.226V780.193L651.186 779.584V776.928H657.58C660.094 776.928 661.946 776.623 664.768 776.623C673.897 776.623 677.248 779.279 677.248 785.243C677.248 788.943 675.22 792.992 670.898 794.342C675.484 796.257 677.689 805.747 679.806 806.27L681.261 806.705V809.273H673.765C671.56 809.273 668.87 796.779 665.518 795.343H660.976V806.226L665.033 806.661V809.273H651.009ZM665.033 792.687C668.296 792.687 670.369 790.467 670.369 785.548C670.369 781.499 668.87 779.323 664.195 779.323C662.475 779.323 661.593 779.497 660.976 779.54V792.6C661.858 792.731 664.283 792.687 665.033 792.687Z" fill="black"/>
<path d="M617.715 806.226V780.193L614.452 779.627V776.928H627.858V779.627L624.154 780.193V791.12H637.56V780.193L634.164 779.627V776.928H647.394V779.627L644.043 780.193V806.226L647.394 806.661V809.273H634.12V806.661L637.56 806.226V794.429H624.154V806.226L627.858 806.661V809.273H614.364V806.661L617.715 806.226Z" fill="black"/>
<path d="M593.509 806.226V779.801L587.203 780.019L585.483 789.509H581.778L582.528 776.928H610.972L611.501 789.509H608.017L606.298 780.019L600.08 779.801V806.226L606.253 806.661V809.273H587.864V806.661L593.509 806.226Z" fill="black"/>
<path d="M552.004 806.226L562.147 776.754H568.894L579.081 806.226L581.639 806.662V809.274H568.63V806.662L571.937 806.226L570.217 800.567H558.796L557.076 806.27L560.648 806.662V809.274H549.402L549.358 806.662L552.004 806.226ZM569.335 797.52L565.19 784.111L564.396 780.716L563.558 784.155L559.634 797.52H569.335Z" fill="black"/>
<path d="M524.219 806.226V780.193L520.779 779.627V776.928H527.35C530.084 776.928 532.201 776.623 534.45 776.623C543.799 776.623 546.445 779.453 546.445 783.981C546.445 788.334 543.535 791.381 539.345 791.991C545.122 791.947 548.694 794.733 548.694 799.522C548.694 804.964 545.519 809.535 534.715 809.535C531.716 809.535 530.393 809.274 527.394 809.274H520.735V806.662L524.219 806.226ZM530.614 791.033C531.584 791.12 533.612 791.077 534.671 791.077C538.331 791.077 540.007 788.682 540.007 784.764C540.007 781.02 538.375 779.279 534.097 779.279C532.995 779.279 531.275 779.41 530.614 779.453V791.033ZM530.614 806.4C531.407 806.705 533.215 806.792 534.494 806.792C539.698 806.792 541.594 804.18 541.594 800.001C541.594 795.735 539.61 794.08 535.244 794.08C533.877 794.08 531.54 794.08 530.614 794.167V806.4Z" fill="black"/>
<path d="M251.952 273.78L255.171 247.747L250.408 247.181V244.482H264.167L269.415 263.201L270.65 268.295L271.708 263.201L276.912 244.482H290.539V247.181L285.732 247.747L289.26 273.736L292.832 274.215V276.827H278.764V274.215L282.645 273.78L280.705 254.712L279.867 246.746L278.235 253.45L271.841 275.478H267.166L260.639 254.582L258.39 246.746L257.729 254.712L256.053 273.78L260.507 274.215V276.827H248.248V274.215L251.952 273.78Z" fill="black"/>
<path d="M230.635 273.78V263.985L221.198 247.747L218.685 247.181V244.482H231.65V247.181L228.519 247.747L234.031 258.413L235.266 261.417L236.545 258.413L241.616 247.747L238.176 247.181V244.482H248.937V247.181L246.203 247.704L237.427 263.941V273.78L242.234 274.215V276.827H225.961V274.215L230.635 273.78Z" fill="black"/>
<path d="M203.597 277.306C193.63 277.306 188.118 270.254 188.118 261.025C188.118 250.098 194.865 244.09 205.096 244.09C209.726 244.09 214.357 245.092 215.9 245.44L215.415 253.537H210.961L209.77 247.965C209.329 247.53 207.874 246.79 204.875 246.79C199.187 246.79 195.615 251.404 195.615 260.241C195.615 268.251 198.128 274.52 204.17 274.52C206.551 274.52 208.756 273.867 209.815 272.953V263.593L205.14 263.158V260.241H218.546V263.158L216.209 263.55V275.086C213.872 275.173 209.55 277.306 203.597 277.306Z" fill="black"/>
<path d="M315.523 864.271L318.742 838.238L313.979 837.672V834.973H327.738L332.986 853.692L334.221 858.785L335.279 853.692L340.483 834.973H354.11V837.672L349.303 838.238L352.831 864.227L356.403 864.706V867.318H342.335V864.706L346.216 864.271L344.275 845.203L343.438 837.236L341.806 843.94L335.411 865.968H330.737L324.21 845.072L321.961 837.236L321.3 845.203L319.624 864.271L324.078 864.706V867.318H311.818V864.706L315.523 864.271Z" fill="black"/>
<path d="M295.434 867.797C285.423 867.884 280.925 861.136 280.925 851.254C280.925 841.067 287.011 834.537 295.963 834.581C305.929 834.581 310.427 840.893 310.427 850.688C310.427 860.875 304.297 867.71 295.434 867.797ZM295.698 837.236C290.979 837.236 288.025 841.764 288.025 851.211C288.025 860.44 290.803 865.141 295.61 865.141C300.284 865.141 303.239 860.179 303.239 850.688C303.239 841.459 300.461 837.236 295.698 837.236Z" fill="black"/>
<path d="M263.35 867.797C253.339 867.884 248.841 861.136 248.841 851.254C248.841 841.067 254.927 834.537 263.879 834.581C273.845 834.581 278.343 840.893 278.343 850.688C278.343 860.875 272.213 867.71 263.35 867.797ZM263.614 837.236C258.895 837.236 255.941 841.764 255.941 851.211C255.941 860.44 258.719 865.141 263.526 865.141C268.2 865.141 271.155 860.179 271.155 850.688C271.155 841.459 268.377 837.236 263.614 837.236Z" fill="black"/>
<path d="M217.456 867.318V864.706L220.939 864.271V838.238L217.632 837.628V834.973H224.026C226.54 834.973 228.392 834.668 231.215 834.668C240.343 834.668 243.695 837.324 243.695 843.288C243.695 846.988 241.666 851.036 237.344 852.386C241.931 854.301 244.136 863.792 246.252 864.314L247.708 864.749V867.318H240.211C238.006 867.318 235.316 854.824 231.964 853.387H227.422V864.271L231.479 864.706V867.318H217.456ZM231.479 850.732C234.742 850.732 236.815 848.512 236.815 843.592C236.815 839.544 235.316 837.367 230.641 837.367C228.921 837.367 228.039 837.541 227.422 837.585V850.645C228.304 850.775 230.729 850.732 231.479 850.732Z" fill="black"/>
<path d="M185.582 864.271V838.238L182.099 837.672V834.973H192.109L205.251 854.563L207.72 859.525V838.238L203.928 837.672V834.973H214.864V837.672L211.469 838.238V867.318H206.133L192.418 846.727L189.331 840.98V864.271L193.785 864.706V867.318H182.099V864.706L185.582 864.271Z" fill="black"/>
<path d="M164.541 867.666C155.677 867.666 151.311 863.487 151.311 853.953V838.238L148.4 837.672V834.973H161.718V837.672L157.97 838.281V854.519C157.97 861.615 160.572 864.88 165.423 864.88C170.45 864.88 172.611 860.875 172.611 854.693V838.281L168.818 837.672V834.973H179.843V837.672L176.844 838.238V854.345C176.844 863.792 171.641 867.666 164.541 867.666Z" fill="black"/>
<path d="M134.088 867.797C128.796 867.797 124.959 865.968 123.504 865.881L123.901 857.828H127.473L128.443 863.443C129.149 864.183 131.177 865.011 133.867 865.011C137.88 865.011 139.777 863.095 139.777 860.135C139.777 856.957 136.778 855.433 132.236 853.431C128.796 851.863 123.769 849.208 123.769 843.287C123.769 838.542 127.517 834.581 135.058 834.581C139.821 834.581 142.908 836.017 144.186 836.104L143.922 843.723H140.394L139.468 838.368C139.027 837.889 137.351 837.236 135.234 837.236C131.574 837.236 129.898 839.065 129.898 841.633C129.898 845.072 133.426 846.596 137.748 848.686C141.452 850.427 146.303 852.908 146.303 858.176C146.303 862.529 143.216 867.797 134.088 867.797Z" fill="black"/>
<path d="M852.909 967.099V961.322L847.344 951.746L845.861 951.412V949.82H853.507V951.412L851.661 951.746L854.912 958.036L855.64 959.807L856.394 958.036L859.385 951.746L857.357 951.412V949.82H863.702V951.412L862.09 951.72L856.914 961.297V967.099L859.749 967.355V968.896H850.153V967.355L852.909 967.099Z" fill="black"/>
<path d="M835.097 967.099V951.515L831.378 951.643L830.363 957.24H828.179L828.621 949.82H845.396L845.708 957.24H843.653L842.639 951.643L838.972 951.515V967.099L842.613 967.355V968.896H831.768V967.355L835.097 967.099Z" fill="black"/>
<path d="M820.477 967.099V951.746L818.266 951.412V949.82H826.588V951.412L824.3 951.746V967.099L826.588 967.381V968.896H818.266V967.355L820.477 967.099Z" fill="black"/>
<path d="M803.58 967.099V951.746L801.577 951.412V949.82H809.9V951.412L807.403 951.746V967.073L812.969 966.842L814.607 962.041L816.714 962.323L815.907 968.896H801.525V967.355L803.58 967.099Z" fill="black"/>
<path d="M793.199 967.099V951.746L790.989 951.412V949.82H799.311V951.412L797.022 951.746V967.099L799.311 967.381V968.896H790.989V967.355L793.199 967.099Z" fill="black"/>
<path d="M778.612 967.099V951.515L774.893 951.643L773.879 957.24H771.694L772.136 949.82H788.911L789.223 957.24H787.169L786.154 951.643L782.487 951.515V967.099L786.128 967.355V968.896H775.283V967.355L778.612 967.099Z" fill="black"/>
<path d="M761.963 969.101C756.735 969.101 754.16 966.637 754.16 961.014V951.746L752.444 951.412V949.82H760.298V951.412L758.087 951.772V961.348C758.087 965.533 759.622 967.458 762.483 967.458C765.448 967.458 766.722 965.096 766.722 961.451V951.772L764.485 951.412V949.82H770.987V951.412L769.219 951.746V961.245C769.219 966.816 766.15 969.101 761.963 969.101Z" fill="black"/>
<path d="M896.801 252.933C883.002 252.933 875.369 243.168 875.369 230.39C875.369 215.26 884.711 206.942 898.877 206.942C905.289 206.942 911.7 208.328 913.837 208.81L913.166 220.022H906.999L905.35 212.307C904.739 211.704 902.724 210.679 898.572 210.679C890.695 210.679 885.749 217.068 885.749 229.305C885.749 240.396 889.23 249.075 897.595 249.075C900.892 249.075 903.945 248.171 905.411 246.906V233.946L898.939 233.343V229.305H917.501V233.343L914.265 233.886V249.859C911.029 249.98 905.045 252.933 896.801 252.933Z" fill="black"/>
<path d="M831.483 248.051V212.005L826.659 211.221V207.484H840.52L858.716 234.609L862.135 241.48V212.005L856.884 211.221V207.484H872.027V211.221L867.326 212.005V252.27H859.937L840.947 223.759L836.673 215.802V248.051L842.84 248.653V252.27H826.659V248.653L831.483 248.051Z" fill="black"/>
<path d="M807.112 248.051V212.005L801.922 211.221V207.484H821.461V211.221L816.088 212.005V248.051L821.461 248.714V252.27H801.922V248.653L807.112 248.051Z" fill="black"/>
<path d="M756.095 211.221V207.484H774.657V211.221L769.467 212.005L778.565 239.009L780.336 245.097L781.862 238.949L790.411 212.005L785.587 211.221V207.484H800.364V211.221L796.456 212.005L782.412 252.692H775.146L759.758 212.005L756.095 211.221Z" fill="black"/>
<path d="M740.089 248.051V212.005L734.898 211.221V207.484H754.438V211.221L749.064 212.005V248.051L754.438 248.714V252.27H734.898V248.653L740.089 248.051Z" fill="black"/>
<path d="M700.418 248.051V212.005L695.716 211.221V207.484H715.255V211.221L709.393 212.005V247.99L722.46 247.448L726.307 236.176L731.253 236.839L729.36 252.27H695.594V248.653L700.418 248.051Z" fill="black"/>
<path fill-rule="evenodd" clip-rule="evenodd" d="M516.188 939.874C516.188 953.848 530.387 965.547 548.415 965.547C566.442 965.547 580.641 953.848 580.641 939.874C580.641 925.899 566.442 914.2 548.415 914.2C530.387 914.2 516.188 925.899 516.188 939.874ZM515.058 939.874C515.058 954.669 529.992 966.663 548.415 966.663C566.837 966.663 581.772 954.669 581.772 939.874C581.772 925.078 566.837 913.084 548.415 913.084C529.992 913.084 515.058 925.078 515.058 939.874Z" fill="black"/>
<path fill-rule="evenodd" clip-rule="evenodd" d="M530.034 962.399C520.066 956.568 510.952 955.128 507.708 955.128L507.142 955.128L507.142 925.743L507.708 925.743C510.808 925.743 515.161 924.461 519.398 922.814C523.615 921.175 527.639 919.206 530.05 917.897L530.595 918.875C528.148 920.204 524.081 922.193 519.813 923.852C515.801 925.411 511.541 926.708 508.273 926.847L508.273 954.023C512.103 954.173 520.986 955.809 530.611 961.439L530.034 962.399Z" fill="black"/>
<path fill-rule="evenodd" clip-rule="evenodd" d="M508.273 916.697L508.273 926.478L507.142 926.478L507.142 917.285C502.641 914.256 496.058 910.554 490.593 909.03C487.793 908.249 485.405 908.075 483.749 908.733C482.94 909.055 482.301 909.577 481.856 910.349C481.406 911.129 481.135 912.2 481.135 913.642L481.135 968.3C481.267 969.245 481.707 970.212 482.558 970.947C483.416 971.687 484.742 972.233 486.717 972.23C490.673 972.226 497.123 970.023 507.142 963.026L507.142 951.036L508.273 951.036L508.273 963.602L508.035 963.769C497.836 970.929 491.071 973.342 486.719 973.347C484.524 973.349 482.917 972.739 481.814 971.787C480.715 970.839 480.165 969.594 480.009 968.41L480.004 968.374L480.004 913.642C480.004 912.069 480.299 910.793 480.873 909.796C481.453 908.791 482.298 908.107 483.326 907.698C485.346 906.895 488.046 907.16 490.9 907.956C496.642 909.557 503.487 913.449 508.028 916.53L508.273 916.697Z" fill="black"/>
<path fill-rule="evenodd" clip-rule="evenodd" d="M488.485 899.131L488.485 980.616L480.57 980.616L480.57 899.131L488.485 899.131ZM487.354 900.247L481.7 900.247L481.7 979.5L487.354 979.5L487.354 900.247Z" fill="black"/>
<path fill-rule="evenodd" clip-rule="evenodd" d="M808.488 881.829C825.974 881.829 840.149 867.836 840.149 850.574C840.149 833.313 825.974 819.32 808.488 819.32C791.002 819.32 776.827 833.313 776.827 850.574C776.827 867.836 791.002 881.829 808.488 881.829ZM808.488 882.945C826.598 882.945 841.279 868.452 841.279 850.574C841.279 832.696 826.598 818.203 808.488 818.203C790.377 818.203 775.696 832.696 775.696 850.574C775.696 868.452 790.377 882.945 808.488 882.945Z" fill="black"/>
<path fill-rule="evenodd" clip-rule="evenodd" d="M820.117 826.334C824.905 828.844 829.76 833.263 832.755 840.312C835.736 847.332 835.712 852.63 834.484 856.557C833.258 860.476 830.856 862.958 829.215 864.388L829.172 864.426L829.121 864.454C822.427 868.23 805.053 873.518 788.984 864.454C783.9 861.586 781.246 857.576 780.492 853.161C779.741 848.768 780.881 844.037 783.255 839.705C787.982 831.079 797.732 823.813 807.863 823.785C810.674 823.213 815.385 823.852 820.117 826.334ZM819.586 827.319C814.985 824.907 810.514 824.365 808.041 824.889L807.982 824.901H807.922C798.287 824.901 788.842 831.856 784.25 840.236C781.96 844.415 780.909 848.892 781.607 852.976C782.301 857.038 784.735 860.771 789.545 863.485C805.098 872.258 821.976 867.176 828.51 863.513C830.071 862.147 832.274 859.838 833.403 856.228C834.54 852.593 834.61 847.566 831.712 840.744C828.827 833.952 824.164 829.72 819.586 827.319Z" fill="black"/>
<path fill-rule="evenodd" clip-rule="evenodd" d="M807.357 852.807C808.606 852.807 809.619 851.807 809.619 850.574C809.619 849.341 808.606 848.342 807.357 848.342C806.108 848.342 805.096 849.341 805.096 850.574C805.096 851.807 806.108 852.807 807.357 852.807ZM807.357 853.923C809.231 853.923 810.749 852.424 810.749 850.574C810.749 848.725 809.231 847.226 807.357 847.226C805.484 847.226 803.965 848.725 803.965 850.574C803.965 852.424 805.484 853.923 807.357 853.923Z" fill="black"/>
<path fill-rule="evenodd" clip-rule="evenodd" d="M801.703 872.899C802.327 872.899 802.834 872.399 802.834 871.783C802.834 871.166 802.327 870.667 801.703 870.667C801.078 870.667 800.572 871.166 800.572 871.783C800.572 872.399 801.078 872.899 801.703 872.899ZM801.703 874.015C802.952 874.015 803.964 873.016 803.964 871.783C803.964 870.55 802.952 869.55 801.703 869.55C800.454 869.55 799.441 870.55 799.441 871.783C799.441 873.016 800.454 874.015 801.703 874.015Z" fill="black"/>
<path fill-rule="evenodd" clip-rule="evenodd" d="M814.141 872.899C814.766 872.899 815.272 872.399 815.272 871.783C815.272 871.166 814.766 870.667 814.141 870.667C813.517 870.667 813.011 871.166 813.011 871.783C813.011 872.399 813.517 872.899 814.141 872.899ZM814.141 874.015C815.39 874.015 816.403 873.016 816.403 871.783C816.403 870.55 815.39 869.55 814.141 869.55C812.892 869.55 811.88 870.55 811.88 871.783C811.88 873.016 812.892 874.015 814.141 874.015Z" fill="black"/>
<path fill-rule="evenodd" clip-rule="evenodd" d="M808.487 870.667V858.388C808.487 857.772 807.981 857.272 807.357 857.272C806.732 857.272 806.226 857.772 806.226 858.388V870.667C806.226 871.283 806.732 871.783 807.357 871.783C807.981 871.783 808.487 871.283 808.487 870.667ZM807.357 856.156C806.108 856.156 805.095 857.155 805.095 858.388V870.667C805.095 871.9 806.108 872.899 807.357 872.899C808.606 872.899 809.618 871.9 809.618 870.667V858.388C809.618 857.155 808.606 856.156 807.357 856.156Z" fill="black"/>
<path fill-rule="evenodd" clip-rule="evenodd" d="M1340.59 1079.38H1310.9C1309.03 1079.38 1307.51 1080.88 1307.51 1082.73V1107.88C1307.51 1109.73 1309.03 1111.23 1310.9 1111.23H1340.59C1342.46 1111.23 1343.98 1109.73 1343.98 1107.88V1082.73C1343.98 1080.88 1342.46 1079.38 1340.59 1079.38ZM1310.9 1078.26C1308.4 1078.26 1306.38 1080.26 1306.38 1082.73V1107.88C1306.38 1110.35 1308.4 1112.34 1310.9 1112.34H1340.59C1343.09 1112.34 1345.11 1110.35 1345.11 1107.88V1082.73C1345.11 1080.26 1343.09 1078.26 1340.59 1078.26H1310.9Z" fill="black"/>
<path fill-rule="evenodd" clip-rule="evenodd" d="M1337.22 1082.7H1314.27C1312.4 1082.7 1310.88 1084.2 1310.88 1086.05V1104.55C1310.88 1106.4 1312.4 1107.9 1314.27 1107.9H1337.22C1339.1 1107.9 1340.61 1106.4 1340.61 1104.55V1086.05C1340.61 1084.2 1339.1 1082.7 1337.22 1082.7ZM1314.27 1081.59C1311.77 1081.59 1309.75 1083.59 1309.75 1086.05V1104.55C1309.75 1107.02 1311.77 1109.02 1314.27 1109.02H1337.22C1339.72 1109.02 1341.74 1107.02 1341.74 1104.55V1086.05C1341.74 1083.59 1339.72 1081.59 1337.22 1081.59H1314.27Z" fill="black"/>
<path fill-rule="evenodd" clip-rule="evenodd" d="M1325.75 1097.93C1326.52 1097.93 1327.14 1097.31 1327.14 1096.55C1327.14 1095.79 1326.52 1095.17 1325.75 1095.17C1324.98 1095.17 1324.35 1095.79 1324.35 1096.55C1324.35 1097.31 1324.98 1097.93 1325.75 1097.93ZM1325.75 1099.04C1327.14 1099.04 1328.27 1097.93 1328.27 1096.55C1328.27 1095.17 1327.14 1094.06 1325.75 1094.06C1324.35 1094.06 1323.22 1095.17 1323.22 1096.55C1323.22 1097.93 1324.35 1099.04 1325.75 1099.04Z" fill="black"/>
<path fill-rule="evenodd" clip-rule="evenodd" d="M1340.59 1116.79H1310.9C1309.03 1116.79 1307.51 1118.28 1307.51 1120.13V1145.29C1307.51 1147.13 1309.03 1148.63 1310.9 1148.63H1340.59C1342.46 1148.63 1343.98 1147.13 1343.98 1145.29V1120.13C1343.98 1118.28 1342.46 1116.79 1340.59 1116.79ZM1310.9 1115.67C1308.4 1115.67 1306.38 1117.67 1306.38 1120.13V1145.29C1306.38 1147.75 1308.4 1149.75 1310.9 1149.75H1340.59C1343.09 1149.75 1345.11 1147.75 1345.11 1145.29V1120.13C1345.11 1117.67 1343.09 1115.67 1340.59 1115.67H1310.9Z" fill="black"/>
<path fill-rule="evenodd" clip-rule="evenodd" d="M1337.22 1120.11H1314.27C1312.4 1120.11 1310.88 1121.61 1310.88 1123.46V1141.96C1310.88 1143.81 1312.4 1145.31 1314.27 1145.31H1337.22C1339.1 1145.31 1340.61 1143.81 1340.61 1141.96V1123.46C1340.61 1121.61 1339.1 1120.11 1337.22 1120.11ZM1314.27 1118.99C1311.77 1118.99 1309.75 1120.99 1309.75 1123.46V1141.96C1309.75 1144.43 1311.77 1146.43 1314.27 1146.43H1337.22C1339.72 1146.43 1341.74 1144.43 1341.74 1141.96V1123.46C1341.74 1120.99 1339.72 1118.99 1337.22 1118.99H1314.27Z" fill="black"/>
<path fill-rule="evenodd" clip-rule="evenodd" d="M1325.75 1135.33C1326.52 1135.33 1327.14 1134.72 1327.14 1133.96C1327.14 1133.2 1326.52 1132.58 1325.75 1132.58C1324.98 1132.58 1324.35 1133.2 1324.35 1133.96C1324.35 1134.72 1324.98 1135.33 1325.75 1135.33ZM1325.75 1136.45C1327.14 1136.45 1328.27 1135.33 1328.27 1133.96C1328.27 1132.58 1327.14 1131.46 1325.75 1131.46C1324.35 1131.46 1323.22 1132.58 1323.22 1133.96C1323.22 1135.33 1324.35 1136.45 1325.75 1136.45Z" fill="black"/>
<path fill-rule="evenodd" clip-rule="evenodd" d="M1350.59 1106.24C1351.59 1106.24 1352.4 1105.44 1352.4 1104.45C1352.4 1103.46 1351.59 1102.65 1350.59 1102.65C1349.58 1102.65 1348.77 1103.46 1348.77 1104.45C1348.77 1105.44 1349.58 1106.24 1350.59 1106.24ZM1350.59 1107.36C1352.21 1107.36 1353.53 1106.05 1353.53 1104.45C1353.53 1102.84 1352.21 1101.54 1350.59 1101.54C1348.96 1101.54 1347.64 1102.84 1347.64 1104.45C1347.64 1106.05 1348.96 1107.36 1350.59 1107.36Z" fill="black"/>
<path fill-rule="evenodd" clip-rule="evenodd" d="M1350.59 1126.19C1351.59 1126.19 1352.4 1125.39 1352.4 1124.4C1352.4 1123.41 1351.59 1122.6 1350.59 1122.6C1349.58 1122.6 1348.77 1123.41 1348.77 1124.4C1348.77 1125.39 1349.58 1126.19 1350.59 1126.19ZM1350.59 1127.31C1352.21 1127.31 1353.53 1126 1353.53 1124.4C1353.53 1122.79 1352.21 1121.49 1350.59 1121.49C1348.96 1121.49 1347.64 1122.79 1347.64 1124.4C1347.64 1126 1348.96 1127.31 1350.59 1127.31Z" fill="black"/>
<path fill-rule="evenodd" clip-rule="evenodd" d="M1350.17 1113.46H1329.96C1329.65 1113.46 1329.4 1113.71 1329.4 1114.01C1329.4 1114.31 1329.65 1114.55 1329.96 1114.55H1350.17C1350.47 1114.55 1350.72 1114.31 1350.72 1114.01C1350.72 1113.71 1350.47 1113.46 1350.17 1113.46ZM1329.96 1112.34C1329.03 1112.34 1328.27 1113.09 1328.27 1114.01C1328.27 1114.92 1329.03 1115.67 1329.96 1115.67H1350.17C1351.1 1115.67 1351.85 1114.92 1351.85 1114.01C1351.85 1113.09 1351.1 1112.34 1350.17 1112.34H1329.96Z" fill="black"/>
<path fill-rule="evenodd" clip-rule="evenodd" d="M1355.77 1076.05L1304.98 1076.05L1304.98 1151.96H1355.77V1076.05ZM1304.98 1074.94C1304.36 1074.94 1303.85 1075.44 1303.85 1076.05V1151.96C1303.85 1152.58 1304.36 1153.08 1304.98 1153.08H1355.77C1356.4 1153.08 1356.9 1152.58 1356.9 1151.96V1076.05C1356.9 1075.44 1356.4 1074.94 1355.77 1074.94H1304.98Z" fill="black"/>
<path fill-rule="evenodd" clip-rule="evenodd" d="M981.92 949.131C986.575 938.037 989.103 926.192 989.382 914.2H893.294L893.294 1009.05C905.442 1008.78 917.441 1006.28 928.679 1001.69C940.615 996.808 951.46 989.654 960.595 980.637C969.73 971.619 976.976 960.913 981.92 949.131ZM893.294 1011.29C892.541 1011.3 891.787 1011.31 891.033 1011.31L891.033 911.968H991.67C991.67 912.712 991.661 913.456 991.644 914.2C991.365 926.486 988.778 938.62 984.009 949.985C978.952 962.038 971.539 972.99 962.194 982.215C952.849 991.44 941.755 998.758 929.545 1003.75C918.032 1008.46 905.74 1011.01 893.294 1011.29Z" fill="black"/>
<path fill-rule="evenodd" clip-rule="evenodd" d="M1834.88 565.239C1846.12 569.834 1858.12 572.329 1870.26 572.605L1870.26 477.75L1774.18 477.75C1774.46 489.743 1776.98 501.587 1781.64 512.681C1786.58 524.464 1793.83 535.169 1802.96 544.187C1812.1 553.205 1822.94 560.358 1834.88 565.239ZM1771.91 477.75C1771.9 477.007 1771.89 476.263 1771.89 475.518L1872.53 475.518L1872.53 574.863C1871.77 574.863 1871.02 574.855 1870.26 574.838C1857.82 574.562 1845.53 572.009 1834.01 567.301C1821.8 562.308 1810.71 554.991 1801.36 545.766C1792.02 536.541 1784.61 525.589 1779.55 513.536C1774.78 502.171 1772.19 490.036 1771.91 477.75Z" fill="black"/>
<path fill-rule="evenodd" clip-rule="evenodd" d="M462.477 127.251L462.477 225.48L478.308 225.48L478.308 127.251L462.477 127.251ZM460.216 227.713L480.569 227.713L480.569 125.019L460.216 125.019L460.216 227.713Z" fill="black"/>
<path fill-rule="evenodd" clip-rule="evenodd" d="M419.177 215.856C430.416 220.451 442.414 222.946 454.562 223.222L454.562 128.367L358.474 128.367C358.754 140.36 361.282 152.204 365.937 163.298C370.881 175.081 378.127 185.786 387.262 194.804C396.397 203.822 407.242 210.975 419.177 215.856ZM356.212 128.367C356.195 127.624 356.187 126.88 356.187 126.135L456.824 126.135L456.824 225.48C456.069 225.48 455.316 225.472 454.562 225.455C442.117 225.179 429.825 222.626 418.312 217.918C406.102 212.926 395.008 205.608 385.663 196.383C376.318 187.158 368.905 176.206 363.847 164.153C359.079 152.788 356.492 140.653 356.212 128.367Z" fill="black"/>
<path fill-rule="evenodd" clip-rule="evenodd" d="M1748.85 387.007C1744.19 398.102 1741.66 409.946 1741.38 421.938L1837.47 421.938L1837.47 327.084C1825.32 327.36 1813.33 329.855 1802.09 334.45C1790.15 339.331 1779.31 346.484 1770.17 355.502C1761.04 364.52 1753.79 375.225 1748.85 387.007ZM1837.47 324.851C1838.23 324.834 1838.98 324.826 1839.73 324.826L1839.73 424.171L1739.1 424.171C1739.1 423.426 1739.11 422.682 1739.12 421.938C1739.4 409.653 1741.99 397.518 1746.76 386.153C1751.81 374.1 1759.23 363.148 1768.57 353.923C1777.92 344.698 1789.01 337.38 1801.22 332.388C1812.73 327.68 1825.03 325.127 1837.47 324.851Z" fill="black"/>
<path fill-rule="evenodd" clip-rule="evenodd" d="M1083.96 387.007C1079.31 398.102 1076.78 409.946 1076.5 421.938L1172.59 421.938L1172.59 327.084C1160.44 327.36 1148.44 329.855 1137.2 334.45C1125.27 339.331 1114.42 346.484 1105.29 355.502C1096.15 364.52 1088.91 375.225 1083.96 387.007ZM1172.59 324.851C1173.34 324.834 1174.1 324.826 1174.85 324.826L1174.85 424.171L1074.21 424.171C1074.21 423.426 1074.22 422.682 1074.24 421.938C1074.52 409.653 1077.11 397.518 1081.88 386.153C1086.93 374.1 1094.35 363.148 1103.69 353.923C1113.04 344.698 1124.13 337.38 1136.34 332.388C1147.85 327.68 1160.14 325.127 1172.59 324.851Z" fill="black"/>
<path fill-rule="evenodd" clip-rule="evenodd" d="M702.996 567.471C714.234 572.066 726.233 574.562 738.381 574.838L738.381 479.983L642.293 479.983C642.573 491.975 645.1 503.82 649.756 514.914C654.699 526.696 661.946 537.402 671.081 546.42C680.216 555.437 691.06 562.591 702.996 567.471ZM640.031 479.983C640.014 479.239 640.006 478.495 640.006 477.75L740.643 477.75L740.643 577.096C739.888 577.096 739.134 577.087 738.381 577.071C725.936 576.795 713.643 574.241 702.131 569.534C689.921 564.541 678.827 557.223 669.482 547.998C660.137 538.773 652.724 527.821 647.666 515.768C642.897 504.403 640.311 492.268 640.031 479.983Z" fill="black"/>
<path fill-rule="evenodd" clip-rule="evenodd" d="M804.297 606.813C793.058 602.217 781.06 599.722 768.911 599.446L768.911 694.301L864.999 694.301C864.72 682.308 862.192 670.464 857.537 659.37C852.593 647.588 845.347 636.882 836.212 627.864C827.077 618.846 816.232 611.693 804.297 606.813ZM867.261 694.301C867.278 695.044 867.287 695.789 867.287 696.533L766.65 696.533L766.65 597.188C767.404 597.188 768.158 597.196 768.911 597.213C781.357 597.489 793.649 600.043 805.162 604.75C817.372 609.743 828.466 617.061 837.811 626.286C847.156 635.511 854.569 646.462 859.626 658.516C864.395 669.881 866.982 682.015 867.261 694.301Z" fill="black"/>
<path fill-rule="evenodd" clip-rule="evenodd" d="M478.308 1178.75L478.308 1080.52L462.477 1080.52L462.477 1178.75L478.308 1178.75ZM480.569 1078.29L460.216 1078.29L460.216 1180.98L480.569 1180.98L480.569 1078.29Z" fill="black"/>
<path fill-rule="evenodd" clip-rule="evenodd" d="M573.718 1116.57C578.373 1105.47 580.901 1093.63 581.18 1081.64L485.093 1081.64L485.093 1176.49C497.241 1176.21 509.239 1173.72 520.478 1169.12C532.413 1164.24 543.258 1157.09 552.393 1148.07C561.528 1139.05 568.774 1128.35 573.718 1116.57ZM485.093 1178.72C484.339 1178.74 483.585 1178.75 482.831 1178.75L482.831 1079.4L583.468 1079.4C583.468 1080.15 583.459 1080.89 583.443 1081.64C583.163 1093.92 580.576 1106.06 575.807 1117.42C570.75 1129.47 563.337 1140.43 553.992 1149.65C544.647 1158.88 533.553 1166.19 521.343 1171.19C509.83 1175.89 497.538 1178.45 485.093 1178.72Z" fill="black"/>
<path fill-rule="evenodd" clip-rule="evenodd" d="M1833.38 666.722C1838.03 655.628 1840.56 643.784 1840.84 631.791L1744.75 631.791L1744.75 726.646C1756.9 726.37 1768.9 723.875 1780.14 719.28C1792.07 714.399 1802.92 707.246 1812.05 698.228C1821.19 689.21 1828.43 678.505 1833.38 666.722ZM1744.75 728.879C1744 728.896 1743.24 728.904 1742.49 728.904L1742.49 629.559L1843.13 629.559C1843.13 630.304 1843.12 631.048 1843.1 631.791C1842.82 644.077 1840.23 656.212 1835.47 667.577C1830.41 679.63 1822.99 690.582 1813.65 699.807C1804.3 709.032 1793.21 716.349 1781 721.342C1769.49 726.05 1757.2 728.603 1744.75 728.879Z" fill="black"/>
</g>
</svg>
