<svg width="144" height="42" viewBox="0 0 144 42" fill="none" xmlns="http://www.w3.org/2000/svg">
<path d="M137.522 1.74927V5.33322H138.163C138.978 5.33322 139.536 5.12226 139.837 4.70034C140.143 4.27842 140.295 3.68346 140.295 2.91547C140.295 2.11904 140.15 1.51697 139.859 1.10928C139.572 0.701577 139.102 0.497728 138.447 0.497728C138.18 0.497728 137.983 0.533283 137.857 0.604393C137.731 0.670763 137.644 0.79165 137.595 0.967055C137.547 1.13772 137.522 1.39846 137.522 1.74927ZM140.834 10.5171C140.305 8.76309 139.888 7.50918 139.582 6.75542C139.281 6.00165 138.917 5.62477 138.49 5.62477H137.522V8.97405C137.522 9.34383 137.549 9.61167 137.602 9.7776C137.656 9.93878 137.758 10.0502 137.908 10.1118C138.059 10.1687 138.301 10.2066 138.636 10.2256V10.5171H134.036V10.2256C134.361 10.2066 134.601 10.1687 134.757 10.1118C134.912 10.0502 135.016 9.93878 135.07 9.7776C135.123 9.61167 135.15 9.34383 135.15 8.97405V1.74927C135.15 1.37949 135.123 1.11402 135.07 0.952833C135.016 0.786909 134.912 0.675503 134.757 0.618615C134.601 0.556987 134.361 0.516691 134.036 0.497728V0.206177H138.636C140.009 0.215658 141.04 0.43847 141.729 0.874612C142.423 1.31075 142.77 1.93652 142.77 2.75192C142.77 3.44406 142.51 4.05323 141.991 4.57945C141.477 5.10092 140.623 5.4304 139.429 5.56788C140.322 5.64373 141.006 5.88076 141.482 6.27898C141.957 6.6772 142.353 7.34326 142.668 8.27717C142.988 9.20635 143.229 9.73967 143.389 9.87715C143.549 10.0146 143.753 10.1308 144 10.2256V10.5171H140.834Z" fill="#4F4C4C"/>
<path d="M132.904 8.30562C132.904 9.19686 132.938 9.93404 133.006 10.5171H124.738V10.2256C125.063 10.2066 125.303 10.1687 125.459 10.1118C125.614 10.0502 125.718 9.93878 125.772 9.7776C125.825 9.61167 125.852 9.34383 125.852 8.97405V1.74927C125.852 1.37949 125.825 1.11402 125.772 0.952833C125.718 0.786909 125.614 0.675503 125.459 0.618615C125.303 0.556987 125.063 0.516691 124.738 0.497728V0.206177H132.708C132.64 1.01209 132.606 1.7303 132.606 2.36081C132.606 2.78747 132.62 3.11695 132.649 3.34924H132.307C132.157 2.31104 131.888 1.58334 131.5 1.16616C131.116 0.748984 130.57 0.540394 129.862 0.540394H129.251C128.945 0.540394 128.722 0.566468 128.581 0.618615C128.44 0.666022 128.346 0.760836 128.297 0.903056C128.249 1.04054 128.224 1.26572 128.224 1.5786V5.18388H128.697C129.226 5.18388 129.627 4.99663 129.898 4.62211C130.175 4.24286 130.367 3.79013 130.473 3.26391H130.815C130.786 3.67161 130.772 4.12908 130.772 4.63634V5.33322C130.772 5.82625 130.801 6.51601 130.859 7.40252H130.517C130.308 6.1178 129.702 5.47544 128.697 5.47544H128.224V9.14472C128.224 9.4576 128.249 9.68515 128.297 9.82737C128.346 9.96485 128.44 10.0597 128.581 10.1118C128.722 10.1592 128.945 10.1829 129.251 10.1829H129.986C130.689 10.1829 131.257 9.94826 131.689 9.47893C132.121 9.00487 132.426 8.20606 132.606 7.08252H132.948C132.919 7.40015 132.904 7.80785 132.904 8.30562Z" fill="#4F4C4C"/>
<path d="M123.89 0.497728C123.551 0.516691 123.305 0.556987 123.155 0.618615C123.01 0.675503 122.908 0.786909 122.849 0.952833C122.796 1.11402 122.769 1.37949 122.769 1.74927V8.97405C122.769 9.34383 122.796 9.61167 122.849 9.7776C122.908 9.93878 123.01 10.0502 123.155 10.1118C123.305 10.1687 123.551 10.2066 123.89 10.2256V10.5171H119.283V10.2256C119.613 10.2066 119.853 10.1687 120.004 10.1118C120.159 10.0502 120.263 9.93878 120.317 9.7776C120.375 9.61167 120.404 9.34383 120.404 8.97405V5.47544H116.452V8.97405C116.452 9.34383 116.479 9.61167 116.532 9.7776C116.585 9.93878 116.687 10.0502 116.838 10.1118C116.988 10.1687 117.231 10.2066 117.565 10.2256V10.5171H112.966V10.2256C113.291 10.2066 113.531 10.1687 113.686 10.1118C113.841 10.0502 113.946 9.93878 113.999 9.7776C114.052 9.61167 114.079 9.34383 114.079 8.97405V1.74927C114.079 1.37949 114.052 1.11402 113.999 0.952833C113.946 0.786909 113.841 0.675503 113.686 0.618615C113.531 0.556987 113.291 0.516691 112.966 0.497728V0.206177H117.565V0.497728C117.231 0.516691 116.988 0.556987 116.838 0.618615C116.687 0.675503 116.585 0.786909 116.532 0.952833C116.479 1.11402 116.452 1.37949 116.452 1.74927V5.18388H120.404V1.74927C120.404 1.37949 120.375 1.11402 120.317 0.952833C120.263 0.786909 120.159 0.675503 120.004 0.618615C119.853 0.556987 119.613 0.516691 119.283 0.497728V0.206177H123.89V0.497728Z" fill="#4F4C4C"/>
<path d="M107.037 6.35009V8.88872C107.037 9.27746 107.079 9.5619 107.161 9.74204C107.248 9.91745 107.399 10.036 107.612 10.0976C107.826 10.1545 108.165 10.1877 108.631 10.1971V10.5171H103.551V10.2256C103.876 10.2066 104.116 10.1687 104.272 10.1118C104.427 10.0502 104.531 9.93878 104.585 9.7776C104.638 9.61167 104.665 9.34383 104.665 8.97405V1.74927C104.665 1.37949 104.638 1.11402 104.585 0.952833C104.531 0.786909 104.427 0.675503 104.272 0.618615C104.116 0.556987 103.876 0.516691 103.551 0.497728V0.206177H108.151C109.495 0.215658 110.519 0.481136 111.222 1.00261C111.931 1.51934 112.285 2.21622 112.285 3.09325C112.285 3.6242 112.144 4.1362 111.863 4.62923C111.586 5.11751 111.118 5.52758 110.458 5.85943C109.798 6.18654 108.92 6.35009 107.823 6.35009H107.037ZM107.962 0.497728C107.695 0.497728 107.498 0.533283 107.372 0.604393C107.246 0.670763 107.159 0.79165 107.11 0.967055C107.062 1.13772 107.037 1.39846 107.037 1.74927V6.05854H107.678C108.483 6.05854 109.039 5.80728 109.344 5.30477C109.655 4.79752 109.81 4.11249 109.81 3.24969C109.81 2.3063 109.667 1.61179 109.381 1.16616C109.099 0.72054 108.626 0.497728 107.962 0.497728Z" fill="#4F4C4C"/>
<path d="M97.2879 0C98.3409 0 99.2628 0.20859 100.054 0.625769C100.845 1.04295 101.458 1.64738 101.895 2.43908C102.332 3.23077 102.55 4.17653 102.55 5.27637C102.55 6.34302 102.327 7.28879 101.88 8.11366C101.434 8.93854 100.811 9.5809 100.01 10.0407C99.2094 10.4959 98.2972 10.7234 97.2734 10.7234C96.2205 10.7234 95.2986 10.5148 94.5077 10.0976C93.7168 9.68046 93.103 9.07602 92.6663 8.28433C92.2296 7.49263 92.0112 6.54687 92.0112 5.44703C92.0112 4.38038 92.2344 3.43462 92.6808 2.60974C93.1272 1.78486 93.7507 1.14487 94.5513 0.689768C95.3519 0.229923 96.2641 0 97.2879 0ZM97.2297 0.263107C96.6814 0.263107 96.1986 0.478808 95.7813 0.910209C95.3641 1.34161 95.0438 1.94605 94.8206 2.72352C94.5974 3.50099 94.4858 4.38986 94.4858 5.39015C94.4858 6.39991 94.612 7.28879 94.8643 8.05677C95.1166 8.82476 95.4587 9.41735 95.8905 9.83453C96.3272 10.2517 96.8076 10.4603 97.3316 10.4603C97.8799 10.4603 98.3627 10.2446 98.78 9.81319C99.1973 9.38179 99.5175 8.77736 99.7407 7.99989C99.9639 7.22242 100.075 6.33354 100.075 5.33326C100.075 4.32349 99.9493 3.43462 99.697 2.66663C99.4447 1.89864 99.1002 1.30606 98.6635 0.888876C98.2317 0.471697 97.7537 0.263107 97.2297 0.263107Z" fill="#4F4C4C"/>
<path d="M91.134 0.206177C91.0612 1.13061 91.0248 1.95549 91.0248 2.68081C91.0248 3.13591 91.0418 3.50569 91.0758 3.79013H90.7337C90.4911 2.59548 90.1636 1.75638 89.7511 1.27283C89.3387 0.784539 88.7759 0.540394 88.0626 0.540394H87.7205V8.86028C87.7205 9.26797 87.7618 9.56427 87.8442 9.74915C87.9316 9.9293 88.082 10.0526 88.2955 10.1189C88.509 10.1806 88.8486 10.2161 89.3144 10.2256V10.5171H83.7539V10.2256C84.2197 10.2161 84.5593 10.1806 84.7728 10.1189C84.9863 10.0526 85.1343 9.9293 85.2168 9.74915C85.3041 9.56427 85.3478 9.26797 85.3478 8.86028V0.540394H85.0203C84.5448 0.540394 84.1396 0.642319 83.8048 0.846168C83.4749 1.05002 83.1886 1.38897 82.946 1.86304C82.7082 2.33237 82.5045 2.97473 82.3346 3.79013H81.9926C82.0265 3.50569 82.0435 3.13591 82.0435 2.68081C82.0435 1.95549 82.0071 1.13061 81.9343 0.206177H91.134Z" fill="#4F4C4C"/>
<path d="M77.2433 0.0142822C77.7576 0.0142822 78.1677 0.0640593 78.4733 0.163613C78.7839 0.258427 79.0993 0.398277 79.4195 0.583163C79.5263 0.644792 79.6209 0.694569 79.7034 0.732494C79.7907 0.77042 79.8635 0.789382 79.9217 0.789382C80.0139 0.789382 80.0843 0.739605 80.1328 0.640051C80.1813 0.535756 80.2201 0.372203 80.2492 0.149391H80.5913C80.5428 0.798864 80.5185 1.90581 80.5185 3.47023H80.1764C80.1376 2.94402 80.0163 2.44388 79.8125 1.96981C79.6087 1.491 79.32 1.10464 78.9464 0.810715C78.5728 0.516794 78.1385 0.369833 77.6436 0.369833C77.1584 0.369833 76.763 0.502572 76.4573 0.768049C76.1564 1.03353 76.006 1.39382 76.006 1.84892C76.006 2.19025 76.0788 2.48891 76.2244 2.74491C76.3748 2.99617 76.5834 3.22609 76.8503 3.43468C77.122 3.64327 77.5344 3.92534 78.0876 4.28089L78.568 4.608C79.1551 4.98251 79.616 5.31199 79.9508 5.59643C80.2905 5.87613 80.567 6.20323 80.7805 6.57775C80.994 6.95226 81.1008 7.38603 81.1008 7.87906C81.1008 8.50009 80.9358 9.02393 80.6059 9.45059C80.2808 9.87251 79.8368 10.1901 79.2739 10.4035C78.7111 10.6168 78.0876 10.7235 77.4034 10.7235C76.8454 10.7235 76.3821 10.6737 76.0133 10.5741C75.6494 10.4793 75.3122 10.349 75.0016 10.183C74.7833 10.0455 74.6159 9.97681 74.4994 9.97681C74.4072 9.97681 74.3369 10.029 74.2884 10.1333C74.2398 10.2328 74.201 10.394 74.1719 10.6168H73.8298C73.8687 10.0053 73.8881 8.69446 73.8881 6.68441H74.2301C74.2981 7.77477 74.5455 8.65653 74.9725 9.32971C75.3995 10.0029 76.057 10.3395 76.9449 10.3395C77.4786 10.3395 77.9202 10.1996 78.2695 9.91992C78.6189 9.64022 78.7936 9.23726 78.7936 8.71105C78.7936 8.16587 78.6141 7.70129 78.255 7.31729C77.8959 6.92856 77.3282 6.49004 76.5519 6.00175C75.9599 5.6225 75.4844 5.29302 75.1254 5.01332C74.7663 4.72888 74.4727 4.39704 74.2447 4.01778C74.0166 3.63379 73.9026 3.18816 73.9026 2.68091C73.9026 2.09781 74.053 1.60478 74.3539 1.20182C74.6596 0.798864 75.0647 0.500201 75.5693 0.305834C76.0788 0.111466 76.6368 0.0142822 77.2433 0.0142822Z" fill="#4F4C4C"/>
<path d="M72.6616 0.497728C72.3268 0.516691 72.0842 0.556987 71.9338 0.618615C71.7834 0.675503 71.6815 0.786909 71.6281 0.952833C71.5747 1.11402 71.548 1.37949 71.548 1.74927V8.97405C71.548 9.34383 71.5747 9.61167 71.6281 9.7776C71.6815 9.93878 71.7834 10.0502 71.9338 10.1118C72.0842 10.1687 72.3268 10.2066 72.6616 10.2256V10.5171H68.0618V10.2256C68.3869 10.2066 68.627 10.1687 68.7823 10.1118C68.9376 10.0502 69.0419 9.93878 69.0953 9.7776C69.1486 9.61167 69.1753 9.34383 69.1753 8.97405V1.74927C69.1753 1.37949 69.1486 1.11402 69.0953 0.952833C69.0419 0.786909 68.9376 0.675503 68.7823 0.618615C68.627 0.556987 68.3869 0.516691 68.0618 0.497728V0.206177H72.6616V0.497728Z" fill="#4F4C4C"/>
<path d="M61.3766 1.74927V5.33322H62.0171C62.8323 5.33322 63.3903 5.12226 63.6911 4.70034C63.9968 4.27842 64.1496 3.68346 64.1496 2.91547C64.1496 2.11904 64.0041 1.51697 63.713 1.10928C63.4267 0.701577 62.956 0.497728 62.301 0.497728C62.0341 0.497728 61.8376 0.533283 61.7114 0.604393C61.5853 0.670763 61.498 0.79165 61.4494 0.967055C61.4009 1.13772 61.3766 1.39846 61.3766 1.74927ZM64.6882 10.5171C64.1594 8.76309 63.7421 7.50918 63.4364 6.75542C63.1355 6.00165 62.7716 5.62477 62.3447 5.62477H61.3766V8.97405C61.3766 9.34383 61.4033 9.61167 61.4567 9.7776C61.5101 9.93878 61.612 10.0502 61.7624 10.1118C61.9128 10.1687 62.1554 10.2066 62.4902 10.2256V10.5171H57.8904V10.2256C58.2155 10.2066 58.4557 10.1687 58.6109 10.1118C58.7662 10.0502 58.8705 9.93878 58.9239 9.7776C58.9773 9.61167 59.0039 9.34383 59.0039 8.97405V1.74927C59.0039 1.37949 58.9773 1.11402 58.9239 0.952833C58.8705 0.786909 58.7662 0.675503 58.6109 0.618615C58.4557 0.556987 58.2155 0.516691 57.8904 0.497728V0.206177H62.4902C63.8634 0.215658 64.8945 0.43847 65.5835 0.874612C66.2773 1.31075 66.6242 1.93652 66.6242 2.75192C66.6242 3.44406 66.3647 4.05323 65.8455 4.57945C65.3311 5.10092 64.4772 5.4304 63.2835 5.56788C64.1763 5.64373 64.8605 5.88076 65.336 6.27898C65.8115 6.6772 66.207 7.34326 66.5223 8.27717C66.8426 9.20635 67.0828 9.73967 67.2429 9.87715C67.403 10.0146 67.6068 10.1308 67.8543 10.2256V10.5171H64.6882Z" fill="#4F4C4C"/>
<path d="M57.0423 0.497728C56.7026 0.516691 56.4576 0.556987 56.3072 0.618615C56.1616 0.675503 56.0597 0.786909 56.0015 0.952833C55.9481 1.11402 55.9214 1.37949 55.9214 1.74927V8.97405C55.9214 9.34383 55.9481 9.61167 56.0015 9.7776C56.0597 9.93878 56.1616 10.0502 56.3072 10.1118C56.4576 10.1687 56.7026 10.2066 57.0423 10.2256V10.5171H52.4352V10.2256C52.7651 10.2066 53.0053 10.1687 53.1557 10.1118C53.311 10.0502 53.4153 9.93878 53.4687 9.7776C53.5269 9.61167 53.556 9.34383 53.556 8.97405V5.47544H49.6039V8.97405C49.6039 9.34383 49.6306 9.61167 49.684 9.7776C49.7374 9.93878 49.8393 10.0502 49.9897 10.1118C50.1401 10.1687 50.3827 10.2066 50.7175 10.2256V10.5171H46.1177V10.2256C46.4428 10.2066 46.683 10.1687 46.8382 10.1118C46.9935 10.0502 47.0978 9.93878 47.1512 9.7776C47.2046 9.61167 47.2312 9.34383 47.2312 8.97405V1.74927C47.2312 1.37949 47.2046 1.11402 47.1512 0.952833C47.0978 0.786909 46.9935 0.675503 46.8382 0.618615C46.683 0.556987 46.4428 0.516691 46.1177 0.497728V0.206177H50.7175V0.497728C50.3827 0.516691 50.1401 0.556987 49.9897 0.618615C49.8393 0.675503 49.7374 0.786909 49.684 0.952833C49.6306 1.11402 49.6039 1.37949 49.6039 1.74927V5.18388H53.556V1.74927C53.556 1.37949 53.5269 1.11402 53.4687 0.952833C53.4153 0.786909 53.311 0.675503 53.1557 0.618615C53.0053 0.556987 52.7651 0.516691 52.4352 0.497728V0.206177H57.0423V0.497728Z" fill="#4F4C4C"/>
<path d="M41.1646 0C41.7615 0 42.2685 0.0829618 42.6858 0.248885C43.1031 0.414809 43.5107 0.647102 43.9085 0.945764C44.0153 1.03584 44.1099 1.08087 44.1924 1.08087C44.3913 1.08087 44.5199 0.789322 44.5781 0.206219H44.9202C44.8814 0.865173 44.862 2.04086 44.862 3.73328H44.5199C44.4277 3.0127 44.3064 2.46278 44.156 2.08353C44.0104 1.70427 43.7581 1.3748 43.3991 1.0951C43.1516 0.862803 42.8629 0.687398 42.533 0.568881C42.2079 0.445623 41.8658 0.383995 41.5067 0.383995C40.5023 0.383995 39.7575 0.862803 39.2723 1.82042C38.7871 2.77329 38.5445 3.9632 38.5445 5.39015C38.5445 6.80761 38.7968 7.99278 39.3014 8.94565C39.8109 9.89853 40.5654 10.375 41.565 10.375C41.9046 10.375 42.2394 10.3133 42.5693 10.1901C42.9041 10.0668 43.1856 9.88905 43.4136 9.65675C43.7824 9.38653 44.0371 9.04758 44.1778 8.63988C44.3234 8.23218 44.4374 7.63485 44.5199 6.8479H44.862C44.862 8.60669 44.8814 9.82979 44.9202 10.5172H44.5781C44.549 10.2043 44.5054 9.98386 44.4471 9.85586C44.3938 9.72312 44.3185 9.65675 44.2215 9.65675C44.1439 9.65675 44.0395 9.69705 43.9085 9.77764C43.4621 10.0858 43.0352 10.3204 42.6276 10.4816C42.22 10.6428 41.7275 10.7234 41.1501 10.7234C40.0972 10.7234 39.1753 10.5148 38.3844 10.0976C37.5935 9.68046 36.9797 9.07602 36.543 8.28433C36.1063 7.49263 35.8879 6.54687 35.8879 5.44703C35.8879 4.38038 36.1111 3.43462 36.5575 2.60974C37.0039 1.78486 37.6274 1.14487 38.428 0.689768C39.2286 0.229923 40.1408 0 41.1646 0Z" fill="#4F4C4C"/>
<path d="M144 12.9105C143.58 12.9342 143.278 12.9846 143.092 13.0616C142.912 13.1327 142.786 13.2719 142.714 13.4793C142.648 13.6807 142.615 14.0125 142.615 14.4747V23.504C142.615 23.9661 142.648 24.3009 142.714 24.5082C142.786 24.7097 142.915 24.8489 143.101 24.9259C143.293 24.997 143.592 25.0444 144 25.0681V25.4325H138.2V25.0681C138.644 25.0444 138.964 24.997 139.162 24.9259C139.366 24.8489 139.504 24.7097 139.576 24.5082C139.654 24.3009 139.693 23.9661 139.693 23.504V13.9859L135.251 25.4503H134.954L129.981 13.7281V22.4464C129.981 23.1633 130.017 23.6906 130.089 24.0283C130.167 24.3601 130.329 24.603 130.575 24.7571C130.82 24.9052 131.219 25.0089 131.771 25.0681V25.4325H128.183V25.0681C128.584 25.0089 128.881 24.9082 129.073 24.766C129.265 24.6178 129.394 24.3868 129.46 24.0728C129.525 23.7528 129.558 23.2848 129.558 22.6686V14.4747C129.558 14.0125 129.525 13.6807 129.46 13.4793C129.394 13.2719 129.265 13.1327 129.073 13.0616C128.881 12.9846 128.584 12.9342 128.183 12.9105V12.5461H132.688L136.411 21.4066L139.801 12.5461H144V12.9105Z" fill="#4F4C4C"/>
<path d="M122.082 23.9039C122.244 24.3068 122.43 24.6001 122.639 24.7838C122.849 24.9615 123.05 25.0563 123.242 25.0681V25.4325H117.649V25.0681C118.116 25.0444 118.446 24.9882 118.638 24.8993C118.836 24.8045 118.935 24.6416 118.935 24.4105C118.935 24.1913 118.863 23.901 118.719 23.5396L117.613 20.5535H113.593L113.117 21.8066C112.775 22.6834 112.604 23.3589 112.604 23.8328C112.604 24.2831 112.742 24.5971 113.018 24.7749C113.293 24.9467 113.701 25.0444 114.241 25.0681V25.4325H110.554V25.0681C111.159 24.9615 111.687 24.3246 112.136 23.1574L116.336 12.5106H117.613L122.082 23.9039ZM117.478 20.1891L115.661 15.2745L113.746 20.1891H117.478Z" fill="#4F4C4C"/>
<path d="M105.613 12.9105C105.199 12.9342 104.899 12.9846 104.714 13.0616C104.528 13.1327 104.402 13.2719 104.336 13.4793C104.27 13.6807 104.237 14.0125 104.237 14.4747V23.504C104.237 23.9661 104.27 24.3009 104.336 24.5082C104.402 24.7097 104.528 24.8489 104.714 24.9259C104.899 24.997 105.199 25.0444 105.613 25.0681V25.4325H99.9297V25.0681C100.331 25.0444 100.628 24.997 100.82 24.9259C101.012 24.8489 101.141 24.7097 101.207 24.5082C101.273 24.3009 101.306 23.9661 101.306 23.504V14.4747C101.306 14.0125 101.273 13.6807 101.207 13.4793C101.141 13.2719 101.012 13.1327 100.82 13.0616C100.628 12.9846 100.331 12.9342 99.9297 12.9105V12.5461H105.613V12.9105Z" fill="#4F4C4C"/>
<path d="M90.5735 12.9105C90.1298 12.9342 89.8061 12.9846 89.6023 13.0616C89.3985 13.1327 89.2606 13.2719 89.1886 13.4793C89.1167 13.6807 89.0807 14.0125 89.0807 14.4747V23.7173C89.0807 24.1083 89.1107 24.3927 89.1707 24.5704C89.2306 24.7423 89.3385 24.8608 89.4944 24.9259C89.6502 24.9852 89.899 25.0148 90.2407 25.0148H91.14C91.9792 25.0148 92.7016 24.6445 93.3071 23.9039C93.9126 23.1633 94.3082 22.1798 94.4941 20.9534H94.9167C94.8808 21.3681 94.8628 21.9013 94.8628 22.5531C94.8628 23.7202 94.9047 24.68 94.9887 25.4325H84.7734V25.0681C85.1751 25.0444 85.4718 24.997 85.6637 24.9259C85.8555 24.8489 85.9844 24.7097 86.0503 24.5082C86.1163 24.3009 86.1493 23.9661 86.1493 23.504V14.4747C86.1493 14.0125 86.1163 13.6807 86.0503 13.4793C85.9844 13.2719 85.8555 13.1327 85.6637 13.0616C85.4718 12.9846 85.1751 12.9342 84.7734 12.9105V12.5461H90.5735V12.9105Z" fill="#4F4C4C"/>
<path d="M75.4172 12.9105C74.9736 12.9342 74.6499 12.9846 74.446 13.0616C74.2422 13.1327 74.1043 13.2719 74.0324 13.4793C73.9605 13.6807 73.9245 14.0125 73.9245 14.4747V23.7173C73.9245 24.1083 73.9545 24.3927 74.0144 24.5704C74.0744 24.7423 74.1823 24.8608 74.3381 24.9259C74.494 24.9852 74.7428 25.0148 75.0845 25.0148H75.9837C76.823 25.0148 77.5454 24.6445 78.1509 23.9039C78.7563 23.1633 79.152 22.1798 79.3378 20.9534H79.7605C79.7245 21.3681 79.7065 21.9013 79.7065 22.5531C79.7065 23.7202 79.7485 24.68 79.8324 25.4325H69.6172V25.0681C70.0188 25.0444 70.3156 24.997 70.5074 24.9259C70.6993 24.8489 70.8281 24.7097 70.8941 24.5082C70.96 24.3009 70.993 23.9661 70.993 23.504V14.4747C70.993 14.0125 70.96 13.6807 70.8941 13.4793C70.8281 13.2719 70.6993 13.1327 70.5074 13.0616C70.3156 12.9846 70.0188 12.9342 69.6172 12.9105V12.5461H75.4172V12.9105Z" fill="#4F4C4C"/>
<path d="M64.6763 12.9105C64.2626 12.9342 63.9629 12.9846 63.7771 13.0616C63.5912 13.1327 63.4653 13.2719 63.3994 13.4793C63.3334 13.6807 63.3005 14.0125 63.3005 14.4747V23.504C63.3005 23.9661 63.3334 24.3009 63.3994 24.5082C63.4653 24.7097 63.5912 24.8489 63.7771 24.9259C63.9629 24.997 64.2626 25.0444 64.6763 25.0681V25.4325H58.9932V25.0681C59.3948 25.0444 59.6916 24.997 59.8834 24.9259C60.0752 24.8489 60.2041 24.7097 60.2701 24.5082C60.336 24.3009 60.369 23.9661 60.369 23.504V14.4747C60.369 14.0125 60.336 13.6807 60.2701 13.4793C60.2041 13.2719 60.0752 13.1327 59.8834 13.0616C59.6916 12.9846 59.3948 12.9342 58.9932 12.9105V12.5461H64.6763V12.9105Z" fill="#4F4C4C"/>
<path d="M54.0523 12.5461V12.9105C53.7466 13.029 53.4469 13.263 53.1531 13.6126C52.8654 13.9562 52.6256 14.445 52.4337 15.079L49.1875 25.468C49.0556 25.4562 48.8398 25.4503 48.5401 25.4503C48.2463 25.4503 48.0335 25.4562 47.9016 25.468L45.1949 17.3541L42.4703 25.468C42.3324 25.4562 42.1166 25.4503 41.8228 25.4503C41.5291 25.4503 41.3133 25.4562 41.1754 25.468L37.0479 14.0747C36.9041 13.6718 36.7272 13.3815 36.5174 13.2038C36.3076 13.0201 36.0978 12.9224 35.8879 12.9105V12.5461H40.8966V12.9105C40.471 12.9698 40.2582 13.2068 40.2582 13.6215C40.2582 13.817 40.3121 14.0895 40.42 14.4391L43.1087 22.1354L44.9701 16.7142L44.0349 13.897C43.909 13.5415 43.7622 13.2956 43.5943 13.1594C43.4325 13.0172 43.2406 12.9342 43.0188 12.9105V12.5461H48.3063V12.9105C47.8627 12.9224 47.5419 12.9757 47.3441 13.0705C47.1523 13.1594 47.0563 13.3312 47.0563 13.5859C47.0563 13.8052 47.1163 14.0895 47.2362 14.4391L49.763 22.0465L51.5075 16.5542C51.7893 15.6418 51.9302 14.9368 51.9302 14.4391C51.9302 13.9177 51.7983 13.5385 51.5345 13.3015C51.2707 13.0646 50.8751 12.9342 50.3475 12.9105V12.5461H54.0523Z" fill="#4F4C4C"/>
<path d="M141.62 42C141.079 42 140.597 41.8962 140.176 41.6886C139.755 41.481 139.398 41.2178 139.104 40.899L139.443 40.5432C139.714 40.8397 140.037 41.0807 140.413 41.266C140.789 41.444 141.191 41.5329 141.62 41.5329C142.191 41.5329 142.643 41.3958 142.974 41.1215C143.304 40.8471 143.47 40.495 143.47 40.0649C143.47 39.761 143.41 39.5163 143.289 39.331C143.169 39.1456 143.007 38.9936 142.804 38.875C142.609 38.7489 142.387 38.634 142.139 38.5302L141.011 38.0298C140.8 37.9334 140.575 37.8148 140.334 37.6739C140.101 37.5256 139.902 37.3366 139.736 37.1067C139.578 36.8695 139.499 36.5692 139.499 36.2059C139.499 35.85 139.593 35.5387 139.781 35.2717C139.969 34.9974 140.225 34.7861 140.548 34.6378C140.879 34.4821 141.251 34.4043 141.665 34.4043C142.109 34.4043 142.507 34.4933 142.861 34.6712C143.214 34.8417 143.504 35.0456 143.729 35.2829L143.436 35.6165C143.218 35.3941 142.962 35.2161 142.669 35.0827C142.376 34.9418 142.041 34.8714 141.665 34.8714C141.176 34.8714 140.778 34.99 140.469 35.2273C140.169 35.4645 140.018 35.7833 140.018 36.1837C140.018 36.4654 140.086 36.6952 140.221 36.8732C140.364 37.0511 140.533 37.1957 140.729 37.3069C140.932 37.4181 141.124 37.5145 141.304 37.5961L142.432 38.0854C142.71 38.204 142.966 38.3449 143.199 38.508C143.44 38.6637 143.632 38.8639 143.774 39.1085C143.925 39.3458 144 39.6535 144 40.0316C144 40.4023 143.902 40.7396 143.707 41.0436C143.511 41.3402 143.233 41.5737 142.872 41.7442C142.519 41.9148 142.101 42 141.62 42Z" fill="#4F4C4C"/>
<path d="M129.937 41.8665V34.5377H130.478L133.614 39.709L134.449 41.1659H134.494C134.486 40.81 134.471 40.4542 134.449 40.0983C134.434 39.7424 134.426 39.3865 134.426 39.0307V34.5377H134.922V41.8665H134.381L131.245 36.6952L130.41 35.2384H130.365C130.38 35.5868 130.395 35.9316 130.41 36.2726C130.425 36.6137 130.433 36.9621 130.433 37.318V41.8665H129.937Z" fill="#4F4C4C"/>
<path d="M122.589 42C121.995 42 121.469 41.8443 121.01 41.5329C120.551 41.2141 120.19 40.7693 119.927 40.1984C119.664 39.6275 119.532 38.9528 119.532 38.1744C119.532 37.4033 119.664 36.736 119.927 36.1726C120.19 35.6091 120.551 35.1754 121.01 34.8714C121.469 34.56 121.995 34.4043 122.589 34.4043C123.191 34.4043 123.721 34.56 124.18 34.8714C124.639 35.1754 125 35.6091 125.263 36.1726C125.526 36.736 125.658 37.4033 125.658 38.1744C125.658 38.9528 125.526 39.6275 125.263 40.1984C125 40.7693 124.639 41.2141 124.18 41.5329C123.721 41.8443 123.191 42 122.589 42ZM122.589 41.5329C123.093 41.5329 123.533 41.3958 123.909 41.1215C124.285 40.8397 124.578 40.4468 124.789 39.9426C125 39.4385 125.105 38.849 125.105 38.1744C125.105 37.4997 125 36.9177 124.789 36.4283C124.578 35.9316 124.285 35.5498 123.909 35.2829C123.533 35.0085 123.093 34.8714 122.589 34.8714C122.086 34.8714 121.646 35.0085 121.27 35.2829C120.894 35.5498 120.6 35.9316 120.39 36.4283C120.179 36.9177 120.074 37.4997 120.074 38.1744C120.074 38.849 120.179 39.4385 120.39 39.9426C120.6 40.4468 120.894 40.8397 121.27 41.1215C121.646 41.3958 122.086 41.5329 122.589 41.5329Z" fill="#4F4C4C"/>
<path d="M114.725 41.8665V34.5377H115.243V41.8665H114.725Z" fill="#4F4C4C"/>
<path d="M107.839 41.8665V34.9826H105.47V34.5377H110.727V34.9826H108.358V41.8665H107.839Z" fill="#4F4C4C"/>
<path d="M98.9866 42C98.6707 42 98.3624 41.9555 98.0616 41.8665C97.7683 41.7702 97.5013 41.6108 97.2607 41.3883C97.0276 41.1659 96.8396 40.8656 96.6967 40.4875C96.5613 40.102 96.4937 39.6238 96.4937 39.0529V34.5377H97.0125V38.9973C97.0125 39.6423 97.1028 40.1502 97.2833 40.5209C97.4713 40.8916 97.7157 41.1548 98.0165 41.3105C98.3173 41.4588 98.6406 41.5329 98.9866 41.5329C99.3475 41.5329 99.6822 41.4588 99.9905 41.3105C100.299 41.1548 100.547 40.8916 100.735 40.5209C100.923 40.1502 101.017 39.6423 101.017 38.9973V34.5377H101.502V39.0529C101.502 39.6238 101.431 40.102 101.288 40.4875C101.152 40.8656 100.964 41.1659 100.724 41.3883C100.491 41.6108 100.224 41.7702 99.9228 41.8665C99.622 41.9555 99.3099 42 98.9866 42Z" fill="#4F4C4C"/>
<path d="M88.9541 41.8665V34.5377H89.473V41.4217H92.9021V41.8665H88.9541Z" fill="#4F4C4C"/>
<path d="M81.607 42C81.0129 42 80.4865 41.8443 80.0277 41.5329C79.569 41.2141 79.2081 40.7693 78.9449 40.1984C78.6816 39.6275 78.55 38.9528 78.55 38.1744C78.55 37.4033 78.6816 36.736 78.9449 36.1726C79.2081 35.6091 79.569 35.1754 80.0277 34.8714C80.4865 34.56 81.0129 34.4043 81.607 34.4043C82.2086 34.4043 82.7387 34.56 83.1975 34.8714C83.6562 35.1754 84.0171 35.6091 84.2803 36.1726C84.5435 36.736 84.6751 37.4033 84.6751 38.1744C84.6751 38.9528 84.5435 39.6275 84.2803 40.1984C84.0171 40.7693 83.6562 41.2141 83.1975 41.5329C82.7387 41.8443 82.2086 42 81.607 42ZM81.607 41.5329C82.1108 41.5329 82.5507 41.3958 82.9267 41.1215C83.3027 40.8397 83.596 40.4468 83.8066 39.9426C84.0171 39.4385 84.1224 38.849 84.1224 38.1744C84.1224 37.4997 84.0171 36.9177 83.8066 36.4283C83.596 35.9316 83.3027 35.5498 82.9267 35.2829C82.5507 35.0085 82.1108 34.8714 81.607 34.8714C81.1031 34.8714 80.6632 35.0085 80.2872 35.2829C79.9112 35.5498 79.6179 35.9316 79.4073 36.4283C79.1968 36.9177 79.0915 37.4997 79.0915 38.1744C79.0915 38.849 79.1968 39.4385 79.4073 39.9426C79.6179 40.4468 79.9112 40.8397 80.2872 41.1215C80.6632 41.3958 81.1031 41.5329 81.607 41.5329Z" fill="#4F4C4C"/>
<path d="M72.5096 42C71.9682 42 71.4869 41.8962 71.0658 41.6886C70.6446 41.481 70.2874 41.2178 69.9941 40.899L70.3325 40.5432C70.6033 40.8397 70.9266 41.0807 71.3026 41.266C71.6786 41.444 72.081 41.5329 72.5096 41.5329C73.0811 41.5329 73.5323 41.3958 73.8632 41.1215C74.1941 40.8471 74.3595 40.495 74.3595 40.0649C74.3595 39.761 74.2994 39.5163 74.1791 39.331C74.0587 39.1456 73.8971 38.9936 73.694 38.875C73.4985 38.7489 73.2767 38.634 73.0285 38.5302L71.9005 38.0298C71.6899 37.9334 71.4643 37.8148 71.2237 37.6739C70.9906 37.5256 70.7913 37.3366 70.6258 37.1067C70.4679 36.8695 70.3889 36.5692 70.3889 36.2059C70.3889 35.85 70.4829 35.5387 70.6709 35.2717C70.8589 34.9974 71.1146 34.7861 71.438 34.6378C71.7689 34.4821 72.1411 34.4043 72.5547 34.4043C72.9984 34.4043 73.397 34.4933 73.7504 34.6712C74.1039 34.8417 74.3934 35.0456 74.619 35.2829L74.3257 35.6165C74.1076 35.3941 73.8519 35.2161 73.5587 35.0827C73.2654 34.9418 72.9307 34.8714 72.5547 34.8714C72.0659 34.8714 71.6674 34.99 71.359 35.2273C71.0582 35.4645 70.9078 35.7833 70.9078 36.1837C70.9078 36.4654 70.9755 36.6952 71.1109 36.8732C71.2538 37.0511 71.423 37.1957 71.6185 37.3069C71.8215 37.4181 72.0133 37.5145 72.1938 37.5961L73.3218 38.0854C73.6 38.204 73.8557 38.3449 74.0888 38.508C74.3295 38.6637 74.5212 38.8639 74.6641 39.1085C74.8145 39.3458 74.8897 39.6535 74.8897 40.0316C74.8897 40.4023 74.792 40.7396 74.5964 41.0436C74.4009 41.3402 74.1227 41.5737 73.7617 41.7442C73.4083 41.9148 72.9909 42 72.5096 42Z" fill="#4F4C4C"/>
<path d="M59.0563 42C58.4171 42 57.8568 41.8443 57.3755 41.5329C56.9018 41.2215 56.5295 40.7804 56.2588 40.2095C55.9956 39.6386 55.864 38.964 55.864 38.1855C55.864 37.407 55.9994 36.736 56.2701 36.1726C56.5483 35.6091 56.9319 35.1754 57.4207 34.8714C57.917 34.56 58.4923 34.4043 59.1465 34.4043C59.6504 34.4043 60.064 34.5007 60.3873 34.6934C60.7182 34.8788 60.9814 35.0753 61.1769 35.2829L60.8724 35.6276C60.6844 35.42 60.4513 35.2421 60.173 35.0938C59.9023 34.9455 59.5639 34.8714 59.1578 34.8714C58.5938 34.8714 58.105 35.0085 57.6914 35.2829C57.2778 35.5498 56.9582 35.9316 56.7326 36.4283C56.5145 36.9177 56.4055 37.5034 56.4055 38.1855C56.4055 38.8602 56.5107 39.4496 56.7213 39.9537C56.9319 40.4579 57.2364 40.8471 57.635 41.1215C58.0411 41.3958 58.5261 41.5329 59.0901 41.5329C59.4285 41.5329 59.7444 41.4847 60.0377 41.3884C60.3385 41.292 60.5791 41.1548 60.7596 40.9769V38.697H58.9773V38.2633H61.2559V41.1659C61.0228 41.4106 60.7182 41.6108 60.3422 41.7665C59.9737 41.9222 59.5451 42 59.0563 42Z" fill="#4F4C4C"/>
<path d="M46.5947 41.8665V34.5377H47.1362L50.272 39.709L51.1068 41.1659H51.1519C51.1444 40.81 51.1293 40.4542 51.1068 40.0983C51.0917 39.7424 51.0842 39.3865 51.0842 39.0307V34.5377H51.5805V41.8665H51.0391L47.9032 36.6952L47.0685 35.2384H47.0234C47.0384 35.5868 47.0534 35.9316 47.0685 36.2726C47.0835 36.6137 47.0911 36.9621 47.0911 37.318V41.8665H46.5947Z" fill="#4F4C4C"/>
<path d="M41.313 41.8665V34.5377H41.8319V41.8665H41.313Z" fill="#4F4C4C"/>
<path d="M31.9333 41.8665V34.5377H33.6592C34.4263 34.5377 35.0579 34.6897 35.5543 34.9937C36.0506 35.2902 36.4191 35.7091 36.6597 36.2504C36.9079 36.7916 37.032 37.4329 37.032 38.1743C37.032 38.9157 36.9079 39.5645 36.6597 40.1205C36.4191 40.6692 36.0506 41.0992 35.5543 41.4106C35.0579 41.7145 34.43 41.8665 33.6705 41.8665H31.9333ZM32.4522 41.4328H33.6028C34.2796 41.4328 34.8286 41.2957 35.2497 41.0213C35.6783 40.7396 35.9904 40.3541 36.1859 39.8647C36.389 39.3754 36.4905 38.8119 36.4905 38.1743C36.4905 37.5367 36.389 36.9807 36.1859 36.5062C35.9904 36.0242 35.6783 35.6498 35.2497 35.3829C34.8286 35.1086 34.2796 34.9714 33.6028 34.9714H32.4522V41.4328Z" fill="#4F4C4C"/>
<path d="M24.0959 41.8665V34.5377H24.6148V41.4217H28.044V41.8665H24.0959Z" fill="#4F4C4C"/>
<path d="M18.8142 41.8665V34.5377H19.3331V41.8665H18.8142Z" fill="#4F4C4C"/>
<path d="M11.5635 42C11.2476 42 10.9393 41.9555 10.6385 41.8665C10.3452 41.7702 10.0782 41.6108 9.8376 41.3883C9.60448 41.1659 9.41648 40.8656 9.2736 40.4875C9.13824 40.102 9.07056 39.6238 9.07056 39.0529V34.5377H9.58944V38.9973C9.58944 39.6423 9.67968 40.1502 9.86016 40.5209C10.0482 40.8916 10.2926 41.1548 10.5934 41.3105C10.8942 41.4588 11.2175 41.5329 11.5635 41.5329C11.9244 41.5329 12.2591 41.4588 12.5674 41.3105C12.8757 41.1548 13.1239 40.8916 13.3119 40.5209C13.4999 40.1502 13.5939 39.6423 13.5939 38.9973V34.5377H14.0789V39.0529C14.0789 39.6238 14.0075 40.102 13.8646 40.4875C13.7292 40.8656 13.5412 41.1659 13.3006 41.3883C13.0675 41.6108 12.8005 41.7702 12.4997 41.8665C12.1989 41.9555 11.8868 42 11.5635 42Z" fill="#4F4C4C"/>
<path d="M0 41.8665V34.5377H2.00786C2.75987 34.5377 3.35771 34.6823 3.8014 34.9714C4.24508 35.2532 4.46692 35.7017 4.46692 36.3171C4.46692 36.7026 4.36916 37.04 4.17364 37.3291C3.97812 37.6109 3.69236 37.8073 3.31635 37.9185V37.963C3.79764 38.0372 4.18492 38.2262 4.4782 38.5302C4.77149 38.8268 4.91813 39.2271 4.91813 39.7313C4.91813 40.4356 4.6662 40.9694 4.16236 41.3327C3.66603 41.6886 2.99675 41.8665 2.1545 41.8665H0ZM0.518885 37.7628H1.80482C2.56434 37.7628 3.10955 37.6405 3.44043 37.3958C3.77884 37.1438 3.94804 36.8027 3.94804 36.3727C3.94804 35.8537 3.77132 35.4904 3.41787 35.2828C3.06443 35.0678 2.54554 34.9603 1.86122 34.9603H0.518885V37.7628ZM0.518885 41.4439H2.01914C2.75611 41.4439 3.33891 41.3068 3.76756 41.0325C4.1962 40.7581 4.41052 40.3281 4.41052 39.7424C4.41052 39.216 4.19996 38.8268 3.77884 38.5747C3.36523 38.3152 2.77867 38.1854 2.01914 38.1854H0.518885V41.4439Z" fill="#4F4C4C"/>
<path fill-rule="evenodd" clip-rule="evenodd" d="M144 30.8298H0V29.0426H144V30.8298Z" fill="#FF2400"/>
<path fill-rule="evenodd" clip-rule="evenodd" d="M6.18569 21.4602H24.3187V25.4681H25.2254V21.4602H29.7587V20.5695H25.2254V12.5457L29.7587 16.3242L30.3452 15.6451L25.2254 11.3776V3.2019H24.3187V10.6219L15.2522 3.06494L6.18569 10.6219L6.18569 3.2019H5.27904L5.27904 11.3776L0.15918 15.6451L0.745763 16.3242L5.27904 12.5457L5.27904 20.5695H0.745773V21.4602H5.27904V25.4681H6.18569V21.4602ZM15.2522 4.23299L6.18569 11.79L6.18569 20.5695H24.3187V11.79L15.2522 4.23299Z" fill="#4F4C4C"/>
<path fill-rule="evenodd" clip-rule="evenodd" d="M3.91918 23.6868H26.5855V25.4681H27.4921V23.6868H29.7588V22.7961H27.4921V11.3245L29.9195 13.3391L30.5047 12.6588L27.4921 10.1585V5.42852H26.5855V9.40605L15.2523 0L3.91918 9.40605V5.42852H3.01253V10.1585L0 12.6588L0.585128 13.3391L3.01253 11.3245L3.01253 22.7961H0.745897V23.6868H3.01253V25.4681H3.91918V23.6868ZM15.2523 1.16597L3.91918 10.572L3.91918 22.7961H26.5855V10.572L15.2523 1.16597Z" fill="#FF2400"/>
</svg>
