<svg width="49" height="41" viewBox="0 0 49 41" fill="none" xmlns="http://www.w3.org/2000/svg">
<path fill-rule="evenodd" clip-rule="evenodd" d="M10.6118 34.2054H39.1447V40.5001H40.5713V34.2054H47.7045V32.8065H40.5713V20.2044L47.7046 26.1389L48.6276 25.0722L40.5713 18.3698V5.52907H39.1447V17.1829L24.8782 5.31396L10.6118 17.1829L10.6118 5.52907H9.18515L9.18515 18.3698L1.12891 25.0722L2.05191 26.1389L9.18515 20.2044L9.18515 32.8065H2.05193V34.2054H9.18515V40.5001H10.6118V34.2054ZM24.8782 7.14849L10.6118 19.0175L10.6118 32.8065H39.1447V19.0175L24.8782 7.14849Z" fill="white"/>
<path fill-rule="evenodd" clip-rule="evenodd" d="M7.04536 37.7023H42.7115V40.5H44.1381V37.7023H47.7047V36.3034H44.1381V18.2862L47.9577 21.4504L48.8784 20.3818L44.1381 16.4549V9.026H42.7115V15.2731L24.8784 0.5L7.04536 15.2731V9.026H5.61872V16.4549L0.878418 20.3818L1.79913 21.4504L5.61872 18.2862L5.61872 36.3034H2.05211V37.7023H5.61872V40.5H7.04536V37.7023ZM24.8784 2.33126L7.04536 17.1043L7.04536 36.3034H42.7115V17.1043L24.8784 2.33126Z" fill="white"/>
</svg>
