<svg width="47" height="40" viewBox="0 0 47 40" fill="none" xmlns="http://www.w3.org/2000/svg">
<path d="M27 23H33V29H27V23Z" fill="#FF2400"/>
<path d="M11 29V23H5V29H11Z" fill="#FF2400"/>
<path fill-rule="evenodd" clip-rule="evenodd" d="M0 40V18.0213L1 17.0257V17H1.02585L18.102 0L26.9453 8.00922V3H33.5207V13.9644L38 18.0213V40H0ZM33.893 17L3.86063 17L18.1671 2.75731L33.893 17ZM2 19L36 19V38H24V23H14V38H2V19Z" fill="#FF2400"/>
<path d="M43.5889 2.41106L42.5 0L41.4111 2.41106L39 3.5L41.4111 4.58894L42.5 7L43.5889 4.58894L46 3.5L43.5889 2.41106Z" fill="#FF2400"/>
<path d="M3 7.92334L3.69579 9.22755L5 9.92334L3.69579 10.6191L3 11.9233L2.30421 10.6191L1 9.92334L2.30421 9.22755L3 7.92334Z" fill="#FF2400"/>
<path d="M44 18L45.1031 19.8969L47 21L45.1031 22.1031L44 24L42.8969 22.1031L41 21L42.8969 19.8969L44 18Z" fill="#FF2400"/>
<path d="M42.7354 29.2646L42 28L41.2646 29.2646L40 30L41.2646 30.7354L42 32L42.7354 30.7354L44 30L42.7354 29.2646Z" fill="#FF2400"/>
<path d="M38.5 9L39.4192 10.5808L41 11.5L39.4192 12.4192L38.5 14L37.5808 12.4192L36 11.5L37.5808 10.5808L38.5 9Z" fill="#FF2400"/>
<path d="M8 0.92334L9.01823 2.90511L11 3.92334L9.01823 4.94157L8 6.92334L6.98177 4.94157L5 3.92334L6.98177 2.90511L8 0.92334Z" fill="#FF2400"/>
</svg>
