<svg width="65" height="40" viewBox="0 0 65 40" fill="none" xmlns="http://www.w3.org/2000/svg">
<path fill-rule="evenodd" clip-rule="evenodd" d="M29.3617 0L21.0539 7.79925C18.0883 10.5899 17.875 15.3278 20.607 18.3892C23.2984 21.3985 27.9195 21.6692 30.9359 18.8473L33.9828 15.9838L49.1461 28.6042C50.5375 29.7705 50.7508 31.8634 49.6133 33.3004L48.6484 34.5187C47.6063 35.8471 45.7743 36.1255 44.4041 35.2468C44.2921 35.175 44.1832 35.0955 44.0781 35.0081L43.5297 34.55L40.3406 38.5693C39.0305 40.225 36.6437 40.4853 35.0289 39.1316L33.2109 37.5176L33.1906 37.5385C33.1848 37.5458 33.179 37.5531 33.1732 37.5604C33.035 37.7329 32.8902 37.8965 32.7394 38.0511C30.4129 40.4359 26.6567 40.682 24.05 38.5069L14.8586 29.9787H13V6.66425L18.5555 0.978812C19.1648 0.354039 19.9875 0 20.8508 0H29.3617ZM15.2807 7.59704V27.693H15.7522L25.5507 36.7844C27.338 38.2383 29.9398 37.9623 31.4058 36.1155L31.4782 36.0242L33.0977 34.3635L36.5114 37.3942C37.1275 37.8932 38.0343 37.8054 38.5537 37.1491L38.5555 37.1468L43.1972 31.2965L45.5336 33.2484C45.5341 33.2488 45.5346 33.2492 45.5351 33.2496C45.9438 33.5878 46.5253 33.5269 46.8555 33.106L46.862 33.0977L47.8266 31.8798C47.8267 31.8797 47.8264 31.88 47.8266 31.8798C48.1989 31.409 48.1204 30.7265 47.6853 30.3596C47.6845 30.3589 47.6837 30.3582 47.6829 30.3576L34.0744 19.0312L32.4922 20.5182C28.5288 24.226 22.4409 23.8643 18.9087 19.9148L18.9071 19.9129C15.3509 15.9281 15.6232 9.77424 19.4928 6.13294L19.4947 6.1311L23.5908 2.28571H20.8508C20.6171 2.28571 20.3778 2.38037 20.1864 2.57656L20.185 2.57806L15.2807 7.59704ZM51.9898 6.66425L46.4445 0.978812C45.8453 0.354039 45.0125 0 44.1492 0H35.425C34.6125 0 33.8305 0.312387 33.2312 0.874683L23.2477 10.2463C23.2426 10.2515 23.2375 10.2593 23.2324 10.2671C23.2273 10.2749 23.2223 10.2827 23.2172 10.2879C21.5312 11.9123 21.5617 14.5052 23.0039 16.1192C24.2937 17.5665 27.0055 17.9518 28.7016 16.4003C28.7066 16.3951 28.7143 16.3925 28.7219 16.3899C28.7295 16.3873 28.7371 16.3847 28.7422 16.3795L36.857 8.75724C37.5172 8.14288 38.5531 8.18453 39.1523 8.86137C39.7617 9.53821 39.7109 10.5899 39.0508 11.2147L36.4 13.7034L51.1875 26.0114C51.482 26.2613 51.7461 26.532 51.9898 26.8132V6.66425ZM49.7091 21.8097V7.59582L44.8069 2.5697L44.8002 2.56278C44.6324 2.38776 44.3939 2.28571 44.1492 2.28571H35.425C35.1997 2.28571 34.9728 2.37172 34.7901 2.54318L24.922 11.8063C24.9004 11.8306 24.8758 11.8574 24.8481 11.8857L24.8234 11.9111L24.7978 11.9357C24.0445 12.6615 24.0357 13.8476 24.7029 14.5943L24.705 14.5966C24.906 14.8222 25.3301 15.0621 25.8802 15.1057C26.3999 15.1469 26.8462 14.9992 27.1576 14.7179C27.2154 14.6646 27.2724 14.6175 27.3271 14.5759L35.3051 7.08228C36.8856 5.61141 39.3884 5.69257 40.8515 7.33667C42.2987 8.95114 42.1609 11.4151 40.6167 12.8765L40.61 12.8828L39.8458 13.6002L49.7091 21.8097ZM57.5307 25.3812V8.97079H62.7193V25.3812C62.0359 24.7633 61.1326 24.3817 60.125 24.3817C59.1174 24.3817 58.2141 24.7633 57.5307 25.3812ZM65 6.68508H55.25V29.9995C55.25 31.8426 56.7023 33.3317 58.5 33.3317H65V6.68508ZM2.2807 25.3778C2.96543 24.7605 3.86979 24.3817 4.875 24.3817C5.8826 24.3817 6.78586 24.7633 7.4693 25.3812V8.97079H2.2807V25.3778ZM0 33.3213H6.5C8.29766 33.3213 9.75 31.8322 9.75 29.9891V6.68508H0V33.3213ZM58.5 28.3335C58.5 29.2498 59.2312 29.9995 60.125 29.9995C61.0187 29.9995 61.75 29.2498 61.75 28.3335C61.75 27.4171 61.0187 26.6674 60.125 26.6674C59.2312 26.6674 58.5 27.4171 58.5 28.3335ZM6.5 28.3335C6.5 27.4171 5.76875 26.6674 4.875 26.6674C3.98125 26.6674 3.25 27.4067 3.25 28.3335C3.25 29.2498 3.98125 29.9995 4.875 29.9995C5.76875 29.9995 6.5 29.2498 6.5 28.3335Z" fill="#FF2400"/>
</svg>
