<svg width="56" height="44" viewBox="0 0 56 44" fill="none" xmlns="http://www.w3.org/2000/svg">
<path fill-rule="evenodd" clip-rule="evenodd" d="M14.6668 28L14.6668 27H12.6668V26H14.6668V22.2234L12.9514 23.4111L12.3822 22.5889L14.6668 21.0072V19.2234L12.9514 20.4111L12.3822 19.5889L14.6668 18.0072V15H15.6668V17.3149L16.6668 16.6226V13H17.6668V15.9303L25.6668 10.3918L32.6668 15.238V13H33.6668V15.9304L36.6668 18.0073V15H37.6668V18.6996L38.9514 19.5889L38.3822 20.4111L37.6668 19.9158V21.6996L38.9514 22.5889L38.3822 23.4111L37.6668 22.9158V26H38.6668V27H37.6668V28H38.6668V29H37.6668V30H36.6668V29H33.6668V30H32.6668V29H17.6668V30H16.6668V29H15.6668V30H14.6668V29H12.6668V28H14.6668ZM36.6668 19.2235L33.6668 17.1466V18.9304L36.6668 21.0073V19.2235ZM32.6668 16.4543L25.6668 11.6081L17.6668 17.1465V18.9303L25.6668 13.3918L32.6668 18.238L32.6668 16.4543ZM16.6668 17.8388L15.6668 18.5311V20.3149L16.6668 19.6226V17.8388ZM15.6668 26V21.5311L16.6668 20.8388V26H15.6668ZM17.6668 26V20.1465L25.6668 14.6081L32.6668 19.4543L32.6668 26H17.6668ZM33.6668 26V20.1466L36.6668 22.2235V26H33.6668ZM32.6668 28H17.6668V27H32.6668V28ZM33.6668 28V27H36.6668V28H33.6668ZM15.6668 27H16.6668L16.6668 28H15.6668L15.6668 27Z" fill="#FF2400"/>
<path d="M43.1668 12.2071L44.3133 13.3536L45.0204 12.6465L43.0204 10.6465H42.3133L40.3133 12.6465L41.0204 13.3536L42.1668 12.2072V28.7929L41.0204 27.6465L40.3133 28.3536L42.3133 30.3536H43.0204L45.0204 28.3536L44.3133 27.6465L43.1668 28.793V12.2071Z" fill="#FF2400"/>
<path fill-rule="evenodd" clip-rule="evenodd" d="M36.3132 32.3536L37.4597 33.5H13.874L15.0204 32.3536L14.3133 31.6465L12.3133 33.6465V34.3536L14.3133 36.3536L15.0204 35.6465L13.8739 34.5H37.4597L36.3132 35.6465L37.0203 36.3536L39.0203 34.3536V33.6465L37.0203 31.6465L36.3132 32.3536ZM37.9597 34L37.6668 33.7072V34.2929L37.9597 34Z" fill="#FF2400"/>
<path fill-rule="evenodd" clip-rule="evenodd" d="M47.6852 4.5C47.7582 3.54163 48.0724 2.44707 49.0459 1.56619C50.1632 0.555233 51.9609 -1.4928e-08 54.6672 1.03368e-07C55.2194 1.27509e-07 55.6672 0.447715 55.6672 1V38.5C55.6672 39.586 55.4973 40.5046 55.1107 41.2545C54.7122 42.0274 54.1194 42.5513 53.4088 42.8889C52.7236 43.2145 51.9487 43.3581 51.171 43.4282C50.6938 43.4712 50.1869 43.4886 49.6668 43.4955V43.5H48.9841C48.8786 43.5002 48.7729 43.5002 48.667 43.5002L7.66716 43.5C6.80101 43.5 5.9425 43.4985 5.16319 43.4282C4.38549 43.3581 3.61052 43.2145 2.92535 42.8889C2.21479 42.5513 1.6219 42.0274 1.22347 41.2545C0.836864 40.5046 0.666992 39.586 0.666992 38.5L0.666994 1C0.666994 0.447715 1.11471 0 1.66699 0C4.3733 0 6.17095 0.555233 7.28821 1.56619C8.26171 2.44707 8.576 3.54163 8.64895 4.5L47.6852 4.5ZM49.6668 4.99823C49.6669 4.21211 49.836 3.54856 50.3878 3.04919C50.8868 2.59774 51.8396 2.15054 53.6672 2.03098V33.9699C53.6353 33.9494 53.603 33.9292 53.5703 33.9094C52.504 33.2627 51.1289 33.0659 49.667 33.0154L49.6668 4.99823ZM47.6668 6.5L8.66731 6.5L8.66716 34C8.66715 34.5523 8.21944 35 7.66716 35C5.80054 35 4.57122 35.1523 3.80098 35.6195C3.16859 36.003 2.66699 36.7219 2.66699 38.5C2.66699 39.3947 2.80962 39.9666 3.00115 40.3381C3.18084 40.6867 3.43172 40.9152 3.78368 41.0825C4.16103 41.2618 4.66734 41.3754 5.34282 41.4363C6.01659 41.4971 6.78304 41.5002 7.66683 41.5002L48.9621 41.5C49.7229 41.4988 50.3936 41.4902 50.9913 41.4363C51.6668 41.3754 52.1731 41.2618 52.5505 41.0825C52.9024 40.9152 53.1533 40.6867 53.333 40.3381C53.5245 39.9666 53.6672 39.3947 53.6672 38.5C53.6672 36.7219 53.1656 36.003 52.5332 35.6195C51.7629 35.1523 50.5336 35 48.667 35C48.1147 35 47.667 34.5523 47.667 34L47.6668 6.5ZM6.66732 4.99985C6.66744 4.21302 6.49856 3.5489 5.94631 3.04919C5.44738 2.59774 4.49456 2.15054 2.66699 2.03098L2.66699 33.9699L2.6861 33.9577C2.7014 33.9479 2.71679 33.9383 2.73227 33.9287L2.76388 33.9094C3.83011 33.2627 5.20527 33.0659 6.66716 33.0154L6.66732 4.99985Z" fill="#FF2400"/>
</svg>
