<svg width="53" height="40" viewBox="0 0 53 40" fill="none" xmlns="http://www.w3.org/2000/svg">
<path fill-rule="evenodd" clip-rule="evenodd" d="M2 38L2 28H0V26H2L2 16H0V14H2L2 0H4L4 2H14V0H16V2H26V0H28V2H38V0H40V14H42V16H40V26H42V28H40V38H42V40H0V38H2ZM9.13239 8.10546L5.28807 4H12.9767L9.13239 8.10546ZM21.1324 8.10546L17.2881 4H24.9767L21.1324 8.10546ZM33.1324 8.10546L29.2881 4H36.9767L33.1324 8.10546ZM37.3001 14L33.1324 9.54916L28.9647 14H37.3001ZM36.9767 16L33.1324 20.1055L29.2881 16H36.9767ZM25.3001 14L21.1324 9.54916L16.9647 14H25.3001ZM17.2881 16H24.9767L21.1324 20.1055L17.2881 16ZM13.3001 14L9.1324 9.54916L4.96467 14H13.3001ZM5.28807 16H12.9767L9.13238 20.1055L5.28807 16ZM9.13238 32.1055L5.28807 28H12.9767L9.13238 32.1055ZM21.1324 32.1055L17.2881 28H24.9767L21.1324 32.1055ZM21.1324 21.5492L16.9647 26H25.3001L21.1324 21.5492ZM33.1324 32.1055L29.2881 28H36.9767L33.1324 32.1055ZM33.1324 21.5492L28.9647 26H37.3001L33.1324 21.5492ZM4.96467 26H13.3001L9.1324 21.5492L4.96467 26ZM13.3001 38L9.1324 33.5492L4.96467 38H13.3001ZM25.3001 38L21.1324 33.5492L16.9647 38H25.3001ZM37.3001 38L33.1324 33.5492L28.9647 38H37.3001ZM4 4.06812L8.45646 8.8273L4 13.5865L4 4.06812ZM14 4.3509L9.80832 8.82732L14 13.3037L14 4.3509ZM28 4.06812L32.4565 8.8273L28 13.5865L28 4.06812ZM38 4.3509L33.8083 8.82732L38 13.3037V4.3509ZM16 4.06812L20.4565 8.8273L16 13.5865L16 4.06812ZM26 4.3509L21.8083 8.82732L26 13.3037L26 4.3509ZM4 16.0681L8.45646 20.8273L4 25.5865L4 16.0681ZM14 16.3509L9.80832 20.8273L14 25.3037V16.3509ZM28 16.0681L32.4565 20.8273L28 25.5865V16.0681ZM38 16.3509L33.8083 20.8273L38 25.3037V16.3509ZM16 16.0681L20.4565 20.8273L16 25.5865V16.0681ZM26 16.3509L21.8083 20.8273L26 25.3037V16.3509ZM14 37.3037L9.80832 32.8273L14 28.3509V37.3037ZM4 28.0681L8.45646 32.8273L4 37.5865L4 28.0681ZM38 37.3037L33.8083 32.8273L38 28.3509V37.3037ZM28 28.0681L32.4565 32.8273L28 37.5865V28.0681ZM26 37.3037L21.8083 32.8273L26 28.3509V37.3037ZM16 28.0681L20.4565 32.8273L16 37.5865L16 28.0681Z" fill="#FF2400"/>
<path fill-rule="evenodd" clip-rule="evenodd" d="M43 7V40H45V36.5862H51V40H53V7H51V10.6897H45V7H43ZM45 12.6897V16.3794H51V12.6897H45ZM45 18.3794H51V22.0688H45V18.3794ZM45 24.0688V28.3276H51V24.0688H45ZM45 30.3276H51V34.5862H45V30.3276Z" fill="#FF2400"/>
</svg>
