<svg width="72" height="48" viewBox="0 0 72 48" fill="none" xmlns="http://www.w3.org/2000/svg">
<path fill-rule="evenodd" clip-rule="evenodd" d="M33.7983 0.722469C35.2492 -0.0783247 37.0774 -0.247694 39.9761 0.387508L40.5708 0.525204C45.921 1.83166 48.8496 5.29927 49.7271 7.04766C49.9133 7.41913 49.8502 7.8678 49.5688 8.17364C49.3359 8.42656 48.9942 8.53601 48.6646 8.47931C48.6498 8.54238 48.6311 8.61604 48.6157 8.70196C48.4106 9.85023 48.3335 12.2428 48.3335 16.9969C48.3332 17.477 47.9917 17.8897 47.52 17.9793L46.5327 18.1658L46.5317 18.2283C46.3522 22.1055 44.2754 25.4331 41.2993 27.1248C41.4844 27.9721 41.7472 28.6838 42.0396 29.2606C42.6226 30.4105 43.2696 30.9319 43.5786 31.0545L43.5825 31.0916C50.6419 32.355 56.0001 38.5254 56.0005 45.9481L55.9897 46.159C55.8912 47.1275 55.1213 47.8974 54.1528 47.9959L53.9419 48.0066H18.1079L17.9263 47.9979C17.0914 47.9129 16.4272 47.2488 16.3423 46.4139L16.3335 46.2322C16.3338 38.1649 22.546 31.5482 30.4478 30.9051C31.5011 30.558 32.0714 29.6845 32.3394 28.4959C32.4343 28.0742 32.4816 27.6326 32.4985 27.1971C29.453 25.5293 27.3184 22.1617 27.1362 18.2283L27.1304 18.0066C27.1252 17.9958 27.1196 17.9846 27.1147 17.9734L26.8716 17.3836C25.6925 14.3994 25.1298 10.9666 25.5151 8.27911C25.7202 6.84975 26.2128 5.5004 27.1646 4.58477C28.0583 3.7252 29.2419 3.3568 30.6274 3.52227C31.1003 3.08541 31.5009 2.65607 31.9458 2.20782C32.4732 1.67652 33.0555 1.13254 33.7983 0.722469ZM29.9536 32.9686C23.469 33.8202 18.4473 39.3159 18.3364 46.0066H53.9419C53.9536 46.0066 53.9601 46.0045 53.9644 46.0027C53.9698 46.0004 53.9763 45.9956 53.9829 45.9891C53.9894 45.9825 53.9943 45.9759 53.9966 45.9705C53.9983 45.9663 54.0005 45.9593 54.0005 45.9481C54.0001 39.5562 49.4201 34.2338 43.3628 33.0838C40.8711 34.6512 35.3646 36.4188 29.9536 32.9686ZM39.4331 27.9275C38.7595 28.1321 38.0574 28.2624 37.3335 28.3025L36.8335 28.3162C36.0088 28.3162 35.2084 28.203 34.4438 27.991C34.4092 28.3068 34.3607 28.6238 34.2905 28.9354C34.031 30.0869 33.4821 31.2569 32.4771 32.0584C35.9873 33.6209 39.3821 32.8539 41.4204 31.8748C40.993 31.4127 40.5944 30.8335 40.2554 30.1649C39.9299 29.5227 39.6458 28.776 39.4331 27.9275ZM32.8198 10.3172C30.6405 11.8061 29.1237 14.4812 29.1235 17.6815C29.1239 22.6252 32.7428 26.3159 36.8335 26.3162C40.6811 26.3162 44.1106 23.0512 44.5054 18.5496L44.4526 18.5604C44.0741 18.632 43.6883 18.4794 43.4604 18.1688C43.2328 17.858 43.203 17.4437 43.3853 17.1043C43.3868 17.1015 43.3971 17.082 43.4126 17.0418C43.4288 16.9995 43.448 16.9428 43.4692 16.8729C43.512 16.7321 43.5574 16.552 43.6011 16.3426C43.6887 15.9224 43.7625 15.4148 43.7954 14.9129C43.8181 14.5668 43.8173 14.2427 43.7974 13.9627C43.6854 13.6998 43.5624 13.4443 43.4282 13.1981C43.4203 13.1966 43.4121 13.1947 43.4038 13.1932C43.1689 13.1511 42.8592 13.1217 42.4741 13.1024C41.6652 13.0617 40.7906 13.0706 39.7261 13.0359C38.7216 13.0032 37.6369 12.932 36.6665 12.7225C35.7194 12.5179 34.7215 12.1499 34.0454 11.4041L33.7993 11.1443C33.453 10.7952 33.1198 10.5256 32.8198 10.3172ZM39.5435 2.33966C36.8737 1.75516 35.6104 2.007 34.7651 2.47345C34.2836 2.73929 33.8664 3.11266 33.3657 3.617C32.8849 4.1014 32.3045 4.73233 31.5933 5.34356C31.3581 5.54558 31.0423 5.62706 30.7388 5.56427C29.6622 5.34161 29.0007 5.59404 28.5513 6.02618C28.0511 6.50742 27.6681 7.35422 27.4946 8.56329C27.3129 9.8315 27.3851 11.3558 27.6724 12.9334C27.8834 12.235 28.1351 11.5907 28.4136 11.0125C28.8252 10.1582 29.3018 9.42672 29.8003 8.86602C30.2798 8.32678 30.8576 7.85739 31.4907 7.67462C31.7535 7.59889 32.0332 7.63536 32.2661 7.76934C32.2681 7.77025 32.2703 7.77209 32.2729 7.77325C32.3321 7.79884 32.3643 7.81094 32.48 7.86016C32.6714 7.94159 32.9385 8.06159 33.2544 8.23614C33.8093 8.54279 34.5001 9.01054 35.2183 9.73419L35.5278 10.0604C35.7813 10.3399 36.278 10.5923 37.0884 10.7674C37.876 10.9375 38.8134 11.0051 39.7915 11.0369C40.7096 11.0668 41.7795 11.0654 42.5737 11.1053C42.99 11.1262 43.3979 11.1602 43.7563 11.2244C44.0486 11.2768 44.3982 11.3631 44.7056 11.5389L44.8345 11.6199C45.4357 12.0346 45.6411 12.7551 45.728 13.2547C45.8256 13.8161 45.8303 14.4519 45.7915 15.0438C45.7633 15.473 45.7094 15.9031 45.6431 16.2986L46.3354 16.1668C46.3438 12.0041 46.4182 9.63137 46.647 8.3504C46.7097 7.99923 46.7924 7.67657 46.9126 7.40118C46.9884 7.22762 47.0929 7.04361 47.2388 6.87872C46.0924 5.41564 43.7783 3.36669 40.0962 2.46759L39.5435 2.33966Z" fill="#FF2400"/>
<path fill-rule="evenodd" clip-rule="evenodd" d="M58.6636 2.7547C60.6131 2.65909 62.5965 3.44499 64.1401 4.88263C67.1535 7.68956 68.457 12.9003 65.0942 19.1307C64.5312 21.5986 63.014 23.6298 61.0161 24.6932C61.0379 24.6816 61.0608 24.6718 61.0825 24.66C61.2133 25.2618 61.3983 25.7667 61.605 26.1746C62.0158 26.985 62.4686 27.3451 62.6753 27.4275L62.6841 27.4998C67.6823 28.4042 71.4741 32.7741 71.4741 38.033L71.4663 38.1815C71.3962 38.8684 70.8497 39.4155 70.1626 39.4852L70.0132 39.493H60.5063C60.3481 38.983 60.1665 38.483 59.9663 37.993H69.9731C69.9543 33.5044 66.7242 29.7749 62.4614 28.9813C60.6659 30.0804 56.8333 31.2677 53.0503 28.9031C52.7697 28.9392 52.4926 28.985 52.2202 29.0447C51.603 28.6811 50.9627 28.3526 50.3022 28.0613C51.1791 27.7214 52.1102 27.491 53.0796 27.3875C53.9729 27.212 54.439 26.5683 54.6479 25.6414C54.7131 25.3524 54.7445 25.0499 54.7573 24.7508C52.9577 23.832 51.5354 22.1321 50.8267 20.032C50.7976 20.0035 50.7702 19.9721 50.7456 19.9383C48.5305 16.8918 48.1878 13.3425 48.9546 10.5438C49.6622 7.96207 51.4195 5.76401 53.7563 5.53009C55.024 3.74002 56.803 2.84599 58.6636 2.7547ZM59.6782 25.2361C59.088 25.4054 58.4702 25.4969 57.8335 25.4969C57.2795 25.4969 56.74 25.4269 56.2202 25.2977C56.1955 25.523 56.1619 25.7492 56.1118 25.9715C55.9307 26.775 55.5497 27.5927 54.8599 28.1668C57.289 29.2234 59.633 28.7071 61.064 28.033C60.7718 27.7087 60.4988 27.3094 60.2671 26.8524C60.0323 26.389 59.8302 25.849 59.6782 25.2361ZM57.1509 11.9285C55.8136 11.1924 54.8984 11.1586 54.2769 11.3856C54.2651 11.3898 54.2534 11.3947 54.2417 11.3992C53.4198 12.1134 52.7495 13.0712 52.3267 14.2029C51.9505 15.622 51.8768 17.2955 52.0024 18.6561C52.6563 21.8264 55.1389 23.9969 57.8335 23.9969C60.1929 23.9969 62.3909 22.333 63.3403 19.7908C63.2843 19.6598 63.2636 19.5119 63.2905 19.3631C63.8783 16.1276 63.4255 13.8382 62.4478 12.6121C61.9717 12.0154 61.3571 11.6472 60.6118 11.5203C59.8539 11.3914 58.9121 11.5049 57.7983 11.9647C57.6145 12.0405 57.4089 12.0403 57.2271 11.9656L57.1509 11.9285ZM58.7368 4.25274C57.2585 4.32531 55.821 5.05896 54.8022 6.66095C54.6646 6.87717 54.4258 7.0086 54.1694 7.0086C52.6309 7.00884 51.0759 8.47734 50.4009 10.9402C49.9774 12.4859 49.9481 14.3127 50.4966 16.1248C50.5983 14.8514 50.8614 13.5526 51.3481 12.4686C51.8382 11.3774 52.6035 10.4008 53.7622 9.97735C54.8544 9.57846 56.1289 9.73102 57.561 10.45C58.7383 10.0144 59.8528 9.87008 60.8628 10.0418C61.9804 10.2319 62.9204 10.7987 63.6206 11.6766C64.3976 12.6509 64.859 13.9767 65.0024 15.5604C66.3797 11.207 65.1211 7.84651 63.1177 5.98028C61.8348 4.78548 60.236 4.17919 58.7368 4.25274Z" fill="#FF2400"/>
<path fill-rule="evenodd" clip-rule="evenodd" d="M10.9565 6.84259C14.2 4.53915 17.1429 4.35875 19.3813 5.22638C21.5654 6.0731 23.0392 7.9169 23.3101 9.54181C23.4136 10.1633 23.5659 10.6968 23.731 11.3504C23.8936 11.9946 24.0553 12.7115 24.1431 13.619C24.3166 15.4151 24.1951 17.8936 23.3286 22.0506C23.5456 24.1319 23.9625 25.5653 24.4653 26.6727C24.6089 26.9888 24.7621 27.2802 24.9204 27.5565C24.4423 27.7244 23.9728 27.9105 23.5132 28.115C23.3707 27.8565 23.2313 27.5839 23.0991 27.2928C22.5088 25.9926 22.0507 24.3657 21.8237 22.0936C21.8162 22.0175 21.8208 21.9399 21.8364 21.865L21.9907 21.1072C22.7199 17.4238 22.7954 15.2687 22.6499 13.7635C22.5724 12.9625 22.4308 12.3274 22.2769 11.7176C22.1252 11.1171 21.9474 10.4902 21.8306 9.78888C21.6602 8.76691 20.6104 7.31147 18.8394 6.62481C17.1843 5.98333 14.8508 6.0076 12.0601 7.90216L11.7886 8.09063L11.7036 8.14337C8.97654 9.58873 8.09061 11.7456 8.0835 13.8768C8.08141 14.5248 8.16207 15.1724 8.30029 15.7957C8.55971 13.6365 9.46245 12.0868 10.4028 11.3807L10.5044 11.3162C10.6112 11.2603 10.7312 11.2313 10.853 11.2313H19.353L19.4536 11.2381C19.5539 11.2517 19.6514 11.2853 19.7388 11.3377C21.3262 12.2904 21.7804 13.9944 21.811 15.8289C21.8338 17.201 21.6224 18.7927 21.3687 20.4539L21.1079 22.1326C20.821 23.9998 20.6303 25.9147 20.5327 27.6863C21.2816 27.8861 21.9978 28.1657 22.6724 28.5145C22.119 28.7944 21.5813 29.1011 21.061 29.4324C20.867 29.358 20.6694 29.2907 20.4692 29.2293C20.4642 29.433 20.4637 29.6342 20.4614 29.8318C19.9426 30.1909 19.4426 30.5752 18.9634 30.9832C18.9593 30.7576 18.9556 30.5269 18.9556 30.2918C18.9556 29.9557 18.96 29.6086 18.9683 29.2537C17.0234 30.2523 13.5144 31.0702 10.0464 28.9002C5.49339 29.4786 1.95738 33.309 1.83936 37.991H13.8149C13.6077 38.4806 13.4223 38.9814 13.2563 39.491H1.59229L1.46338 39.4842C0.871272 39.4239 0.400747 38.9532 0.340332 38.3611L0.333496 38.2322C0.333812 32.593 4.61283 27.9537 10.1011 27.3826C10.9801 27.201 11.4406 26.5604 11.6479 25.6414C11.7456 25.2081 11.7739 24.7439 11.7622 24.3065C10.572 23.4471 9.60961 22.1717 9.01123 20.6453C8.91074 20.5939 8.81922 20.5215 8.74854 20.4256C7.64307 18.9237 6.57522 16.4391 6.5835 13.8719C6.59221 11.2582 7.72476 8.57456 10.9565 6.84259ZM13.1909 25.5418C13.1699 25.6855 13.1438 25.8297 13.1118 25.9715C12.9306 26.7748 12.5494 27.5928 11.8599 28.1668C14.2888 29.2233 16.633 28.7071 18.064 28.033C17.7719 27.7088 17.4988 27.3093 17.2671 26.8524C17.0446 26.4134 16.8508 25.905 16.7017 25.3318C16.2591 25.4384 15.8019 25.4959 15.3335 25.4959C14.6041 25.4959 13.9009 25.3605 13.2397 25.1092L13.1909 25.5418ZM19.3491 23.9529C18.9636 24.2816 18.5511 24.5665 18.1138 24.7967C18.2421 25.3381 18.4142 25.7982 18.605 26.1746C18.7616 26.4835 18.9248 26.7273 19.0776 26.9149C19.1425 25.9505 19.2319 24.9539 19.3491 23.9529ZM11.1294 12.7313C10.9592 12.8968 10.7779 13.127 10.604 13.4188C10.1213 14.4385 9.83362 15.6485 9.8335 16.9959C9.83355 21.1474 12.5553 23.9959 15.3335 23.9959C17.022 23.9959 18.6874 22.9427 19.7358 21.1854L19.8872 20.2098C20.1371 18.5713 20.3328 17.1046 20.312 15.8543C20.286 14.2952 19.9267 13.3002 19.1294 12.7313H11.1294Z" fill="#FF2400"/>
</svg>
