<svg width="45" height="40" viewBox="0 0 45 40" fill="none" xmlns="http://www.w3.org/2000/svg">
<path fill-rule="evenodd" clip-rule="evenodd" d="M7.27943 3.10071C6.79185 3.82039 6.5 4.90037 6.5 6.21382V17.0563H41.5C43.1569 17.0563 44.5 18.415 44.5 20.091C44.5 21.4123 43.6652 22.5364 42.5 22.953V26.1603C42.5 28.3856 41.7107 30.4244 40.3999 32.0059L42.9336 36.0736C43.6895 37.2872 43.3553 38.8745 42.1871 39.619C41.0189 40.3636 39.4592 39.9834 38.7033 38.7698L36.2501 34.8314C35.3832 35.1125 34.4591 35.2643 33.5 35.2643H12.5C11.7671 35.2643 11.0546 35.1757 10.3725 35.0084L8.03501 38.7612C7.27911 39.9747 5.71934 40.3549 4.55118 39.6104C3.38301 38.8659 3.0488 37.2785 3.8047 36.065L6.03138 32.4902C4.46432 30.8519 3.5 28.62 3.5 26.1603V23.1257C1.84315 23.1257 0.5 21.767 0.5 20.091C0.5 18.415 1.84315 17.0563 3.5 17.0563H4.5V6.21382C4.5 4.63711 4.84451 3.11596 5.62966 1.95704C6.44206 0.757908 7.69763 0 9.31818 0C11.1268 0 12.313 0.770683 12.9549 1.56666C15.6549 0.664767 18.7001 1.76754 20.1778 4.35652L21.7097 7.04061L11.096 13.2392L9.56401 10.5552C8.01341 7.83842 8.72691 4.42787 11.1123 2.5592C10.7678 2.28844 10.2004 2.0231 9.31818 2.0231C8.39328 2.0231 7.73975 2.42125 7.27943 3.10071ZM40.5 23.1257H5.5V26.1603C5.5 30.071 8.63401 33.2412 12.5 33.2412H33.5C37.366 33.2412 40.5 30.071 40.5 26.1603V23.1257ZM41.5 21.1026C42.0523 21.1026 42.5 20.6497 42.5 20.091C42.5 19.5323 42.0523 19.0795 41.5 19.0795H3.5C2.94772 19.0795 2.5 19.5323 2.5 20.091C2.5 20.6497 2.94772 21.1026 3.5 21.1026H41.5ZM7.9036 35.2768L6.96861 34.6809L5.45236 37.1151C5.28529 37.3833 5.35915 37.7342 5.61735 37.8987C5.87554 38.0633 6.22028 37.9793 6.38735 37.711L7.9036 35.2768ZM39.7697 34.6895L38.8347 35.2854L40.3509 37.7197C40.518 37.9879 40.8627 38.0719 41.1209 37.9074C41.3791 37.7428 41.453 37.392 41.2859 37.1238L39.7697 34.6895ZM18.9777 6.3001L11.828 10.4756L11.2961 9.5436C10.1562 7.54648 10.8326 4.99276 12.807 3.83972C14.7813 2.68668 17.3058 3.37094 18.4457 5.36807L18.9777 6.3001Z" fill="#FF2400"/>
</svg>
