<svg width="70" height="40" viewBox="0 0 70 40" fill="none" xmlns="http://www.w3.org/2000/svg">
<path d="M30 23.6018H26V27.6151H30V23.6018Z" fill="#FF2400"/>
<path d="M40 23.6018H44V27.6151H40V23.6018Z" fill="#FF2400"/>
<path fill-rule="evenodd" clip-rule="evenodd" d="M55.5889 9.76951L57.2376 12.2049L58.162 11L65.0305 19.9521H62.2015L66.7468 26.6662H63.6532L69.3225 34.6238H60.431V39.8459H55.8915V34.6238H48V34.6352H22V34.4147H14.3654V40H9.51017V34.4147H0L6.06362 25.9037H2.75449L7.61614 18.7223H4.59201L11.9383 9.14746L14.4423 12.4111L16.4302 9.47467H13.4795L20.6466 0.133301L27.8137 9.47467H24.8621L28.0031 14.1144L34.7418 8.24023L40 12.6404V10.5586H44V13.8623L46.7708 9.76951H43.6848L51.1804 0L58.676 9.76951H55.5889ZM51.8197 7.76951L55.9545 13.8772L55.0187 15.0968H53.2934L54.1241 16.2628L51.2935 19.9521H54.121L50.7041 24.9994V23.7807H48V19.3349L46.7771 18.3115L49.0674 15.0968H45.5795L50.5399 7.76951H47.7401L51.1804 3.28558L54.6206 7.76951H51.8197ZM50.7041 29.4247V26.6662H51.6581V28.0857L50.7041 29.4247ZM48.7041 31.4796H49.2401L48 33.2202V25.7807H48.7041V31.4796ZM22 30.2333V31.7824L20.8964 30.2333H22ZM18.2788 25.9037V26.5592L17.8118 25.9037H18.2788ZM20.2788 28.2333V25.9037H21.0157V28.2333H20.2788ZM21.0157 25.7493L20.2788 24.6609V22.7841H19.0083L16.2585 18.7223H19.2846L17.4644 16.35L18.7962 14.4807H16.0302L15.7254 14.0834L20.1994 7.47467H17.5348L20.6466 3.41888L23.7584 7.47467H21.0929L25.8359 14.4807H22.4969L24.4453 17.2156L22 19.3471V22.7841H21.0157V25.7493ZM25.9103 18.5918L34.7684 10.8703L43.9955 18.5918L25.9103 18.5918ZM24 20.5918V32.6352H32V22.5984H38V32.6352H46V20.5918L24 20.5918ZM17.351 23.9037L12.4894 16.7223H15.2292L11.9383 12.433L8.64734 16.7223H11.3853L6.52365 23.9037H9.94417L3.88055 32.4147H11.5102V38H12.3654V32.4147H19.9948L13.9312 23.9037H17.351ZM62.9777 24.6662L58.4323 17.9521H60.9751L58.162 14.2856L55.3489 17.9521H57.8902L53.3448 24.6662H56.5499L50.8806 32.6238H57.8915V37.8459H58.431V32.6238H65.442L59.7727 24.6662H62.9777Z" fill="#FF2400"/>
</svg>
