<svg width="40" height="48" viewBox="0 0 40 48" fill="none" xmlns="http://www.w3.org/2000/svg">
<path fill-rule="evenodd" clip-rule="evenodd" d="M11.1645 4.08796C12.0615 3.2252 13.2501 2.85684 14.6421 3.0267C15.8282 2.00515 17.0328 0.995696 18.669 0.445886C20.4948 -0.167668 22.7346 -0.180843 25.9824 0.612182C28.7006 1.27591 30.387 2.48932 31.4927 3.79463C32.3573 4.8153 32.858 5.90283 33.1889 6.62155C33.2662 6.78945 33.3343 6.93731 33.3955 7.05939L32.1287 8.43563C32.0762 8.41451 32.0329 8.39851 31.9977 8.38637C31.973 8.43715 31.943 8.50764 31.9095 8.60381C31.7561 9.0445 31.6058 9.81557 31.4985 11.1137C31.3925 12.3968 31.3324 14.1372 31.3324 16.4829V17.2344L30.541 17.4636C30.4058 23.2083 26.1114 27.8198 20.8337 27.8198C20.01 27.8198 19.2102 27.7075 18.4465 27.4961C18.4115 27.8118 18.3602 28.1278 18.29 28.4392C18.0302 29.5919 17.4819 30.7632 16.475 31.5648C19.9853 33.1277 23.3817 32.3593 25.4202 31.3802C24.9924 30.9178 24.5942 30.3377 24.2549 29.6683C23.9298 29.0269 23.6463 28.2815 23.4335 27.4344C24.0855 27.2365 24.7099 26.9659 25.299 26.6312C25.4841 27.4774 25.7467 28.1878 26.0388 28.764C26.622 29.9145 27.2691 30.4355 27.5781 30.558L27.5825 30.5938C34.6423 31.8573 40.0005 38.0289 40.0005 45.4521C40.0005 46.5889 39.0789 47.5105 37.9421 47.5105H2.10798C1.12796 47.5105 0.333496 46.716 0.333496 45.736C0.333496 37.6643 6.55199 31.045 14.4596 30.4075C15.5061 30.058 16.072 29.1842 16.339 27.9995C16.4337 27.5791 16.4841 27.1394 16.5012 26.7052C13.3871 25.0021 11.2257 21.5202 11.1266 17.475L11.1151 17.4775C9.77118 14.3637 9.1037 10.6493 9.51474 7.78261C9.71974 6.35295 10.2125 5.00369 11.1645 4.08796ZM16.8182 9.82C14.6393 11.3092 13.123 13.9843 13.123 17.1844C13.123 22.1287 16.7426 25.8198 20.8337 25.8198C24.6964 25.8198 28.1388 22.5292 28.511 18L27.3856 16.6081C27.3855 16.6081 27.3951 16.5896 27.4122 16.5453C27.4285 16.5029 27.4478 16.447 27.4691 16.3767C27.512 16.2359 27.5576 16.0561 27.6014 15.8463C27.6891 15.426 27.7625 14.9188 27.7955 14.4166C27.8181 14.0713 27.8203 13.7483 27.8007 13.4687C27.6881 13.2046 27.5639 12.9486 27.429 12.7013C27.4206 12.6997 27.4121 12.6981 27.4033 12.6966C27.1682 12.6545 26.859 12.6256 26.4737 12.6062C26.0246 12.5837 25.5556 12.5763 25.0451 12.5683C24.6359 12.5618 24.1999 12.555 23.7263 12.5396C22.7217 12.5068 21.6372 12.4353 20.6667 12.2258C19.7194 12.0212 18.7216 11.6533 18.0454 10.9072C17.6107 10.4276 17.1893 10.0773 16.8182 9.82ZM32.063 8.27552C32.067 8.27061 32.0692 8.26863 32.0693 8.26887C32.0693 8.26904 32.0684 8.27027 32.0664 8.27232C32.0655 8.27323 32.0644 8.27431 32.063 8.27552ZM25.5079 2.5551C22.4546 1.80955 20.6354 1.89501 19.306 2.34171C17.9941 2.78255 17.0398 3.60322 15.7292 4.73021L15.2202 5.16765L14.7388 5.06806C13.662 4.84529 13.0004 5.09707 12.551 5.52937C12.0507 6.01064 11.6679 6.85706 11.4945 8.06649C11.3126 9.33521 11.3825 10.8602 11.67 12.4385C11.8813 11.739 12.1344 11.0947 12.4134 10.5157C12.8251 9.66099 13.302 8.93015 13.8007 8.36932C14.2803 7.82995 14.8571 7.36105 15.4904 7.17825L15.9981 7.03169L16.3167 7.29534L16.3528 7.31036C16.3829 7.3229 16.4202 7.33838 16.4797 7.36369C16.6712 7.44513 16.9384 7.56469 17.2546 7.73939C17.8888 8.08989 18.6999 8.65111 19.5273 9.56408C19.7808 9.84373 20.2779 10.0957 21.0888 10.2708C21.8764 10.4409 22.8133 10.5088 23.7914 10.5406C24.1815 10.5533 24.5991 10.5603 25.0113 10.5673C25.5691 10.5766 26.1171 10.5858 26.5739 10.6088C26.9902 10.6297 27.3974 10.6637 27.7558 10.7279C28.09 10.7877 28.4986 10.8923 28.8342 11.1238C29.1128 11.3159 29.3064 11.5734 29.4427 11.8442C29.4613 11.5264 29.4822 11.2284 29.5053 10.949C29.6165 9.60389 29.7826 8.63015 30.0208 7.9461C30.2058 7.41483 30.4897 6.90453 30.9618 6.6063C30.7108 6.11607 30.4058 5.60585 29.9666 5.08735C29.1437 4.11584 27.8306 3.12223 25.5079 2.5551ZM13.9533 32.4718C7.46838 33.3235 2.44594 38.8195 2.33536 45.5105H37.9421C37.9472 45.5105 37.9513 45.5101 37.9546 45.5095C37.9589 45.5088 37.9618 45.5077 37.9642 45.5067C37.9697 45.5044 37.9766 45.5001 37.9834 45.4934C37.9901 45.4866 37.9944 45.4797 37.9967 45.4742C37.9985 45.47 38.0005 45.4638 38.0005 45.4521C38.0005 39.0607 33.4215 33.7387 27.3651 32.5878C24.8743 34.1556 19.3659 35.9239 13.9533 32.4718Z" fill="#FF2400"/>
</svg>
