<svg width="53" height="40" viewBox="0 0 53 40" fill="none" xmlns="http://www.w3.org/2000/svg">
<rect width="53" height="40" fill="#F5F5F5"/>
<g clip-path="url(#clip0_13_3931)">
<rect width="1694" height="4647" transform="translate(-649 -1101)" fill="white"/>
<mask id="mask0_13_3931" style="mask-type:alpha" maskUnits="userSpaceOnUse" x="-649" y="-438" width="1694" height="1209">
<rect x="-649" y="-438" width="1694" height="1209" fill="#D9D9D9"/>
</mask>
<g mask="url(#mask0_13_3931)">
<g opacity="0.05">
<path d="M19.5483 175.619L19.5483 -132.463L39.9019 -132.463L39.9019 175.619L19.5483 175.619Z" fill="black"/>
</g>
</g>
<path d="M-501 -240C-501 -256.569 -487.569 -270 -471 -270H531C539.284 -270 546 -263.284 546 -255V112H-471C-487.569 112 -501 98.5685 -501 82V-240Z" fill="#FF2400"/>
<g filter="url(#filter0_d_13_3931)">
<rect x="-19.5" y="-26" width="436" height="204" rx="12" fill="white" shape-rendering="crispEdges"/>
<path d="M7.5 24.5C7.5 25.3284 6.82843 26 6 26C5.17157 26 4.5 25.3284 4.5 24.5C4.5 23.6716 5.17157 23 6 23C6.82843 23 7.5 23.6716 7.5 24.5Z" fill="#FF2400"/>
<path d="M17.5 24.5C17.5 25.3284 16.8284 26 16 26C15.1716 26 14.5 25.3284 14.5 24.5C14.5 23.6716 15.1716 23 16 23C16.8284 23 17.5 23.6716 17.5 24.5Z" fill="#FF2400"/>
<path d="M23.5 24.5C23.5 25.3284 22.8284 26 22 26C21.1716 26 20.5 25.3284 20.5 24.5C20.5 23.6716 21.1716 23 22 23C22.8284 23 23.5 23.6716 23.5 24.5Z" fill="#FF2400"/>
<path d="M12.5 24.5C12.5 25.3284 11.8284 26 11 26C10.1716 26 9.5 25.3284 9.5 24.5C9.5 23.6716 10.1716 23 11 23C11.8284 23 12.5 23.6716 12.5 24.5Z" fill="#FF2400"/>
<path fill-rule="evenodd" clip-rule="evenodd" d="M4.5 36V27H23.5V36H4.5ZM6.5 29H21.5V34H6.5V29Z" fill="#FF2400"/>
<path d="M42.5 34.5H35.5V32.5H42.5V34.5Z" fill="#FF2400"/>
<path d="M35.5 26.5H42.5V24.5H35.5V26.5Z" fill="#FF2400"/>
<path fill-rule="evenodd" clip-rule="evenodd" d="M0.5 40H52.5V20H0.5V40ZM25.5 22H2.5V38H25.5V22ZM27.5 30.5H50.5V38H27.5V30.5ZM50.5 28.5H27.5V22H50.5V28.5Z" fill="#FF2400"/>
<path fill-rule="evenodd" clip-rule="evenodd" d="M17.4 8.89203V2H10.6V8.89203L2.5 11.892V14H25.5V11.892L17.4 8.89203ZM27.5 10.5V16H0.5V10.5L8.6 7.5V0H19.4V7.5L27.5 10.5Z" fill="#FF2400"/>
</g>
</g>
<defs>
<filter id="filter0_d_13_3931" x="-34.5" y="-37" width="466" height="234" filterUnits="userSpaceOnUse" color-interpolation-filters="sRGB">
<feFlood flood-opacity="0" result="BackgroundImageFix"/>
<feColorMatrix in="SourceAlpha" type="matrix" values="0 0 0 0 0 0 0 0 0 0 0 0 0 0 0 0 0 0 127 0" result="hardAlpha"/>
<feOffset dy="4"/>
<feGaussianBlur stdDeviation="7.5"/>
<feComposite in2="hardAlpha" operator="out"/>
<feColorMatrix type="matrix" values="0 0 0 0 0 0 0 0 0 0 0 0 0 0 0 0 0 0 0.15 0"/>
<feBlend mode="normal" in2="BackgroundImageFix" result="effect1_dropShadow_13_3931"/>
<feBlend mode="normal" in="SourceGraphic" in2="effect1_dropShadow_13_3931" result="shape"/>
</filter>
<clipPath id="clip0_13_3931">
<rect width="1694" height="4647" fill="white" transform="translate(-649 -1101)"/>
</clipPath>
</defs>
</svg>
