<svg width="38" height="40" viewBox="0 0 38 40" fill="none" xmlns="http://www.w3.org/2000/svg">
<path fill-rule="evenodd" clip-rule="evenodd" d="M18.4582 12.973C20.8558 12.9731 22.7995 14.9091 22.7995 17.2973C22.7995 19.6855 20.8558 21.6215 18.4582 21.6216C16.0606 21.6216 14.1169 19.6856 14.1169 17.2973C14.1169 14.9091 16.0606 12.973 18.4582 12.973ZM18.4582 15.1352C17.2594 15.1352 16.2876 16.1032 16.2876 17.2973C16.2876 18.4914 17.2594 19.4595 18.4582 19.4595C19.6569 19.4594 20.6289 18.4914 20.6289 17.2973C20.6289 16.1033 19.6569 15.1353 18.4582 15.1352Z" fill="#FF0000"/>
<path fill-rule="evenodd" clip-rule="evenodd" d="M18.5674 5.49516C18.8897 5.35532 19.2641 5.37923 19.569 5.5659L28.2516 10.8826L28.3682 10.965C28.4787 11.0546 28.5715 11.1654 28.6395 11.2912L33.5235 20.3294L33.5796 20.4508C33.628 20.575 33.6527 20.7075 33.6528 20.8414V38.9189C33.6527 39.5159 33.1667 39.9999 32.5674 40H5.43433C4.83494 40 4.34904 39.516 4.349 38.9189V20.8414L4.35748 20.7084C4.374 20.5761 4.41453 20.4475 4.47831 20.3294L9.36227 11.2912L9.43858 11.1708C9.52208 11.0556 9.62786 10.9575 9.75019 10.8826L18.4328 5.5659L18.5674 5.49516ZM11.1355 12.5708L6.51965 21.1149V37.8378H9.77563V27.027C9.77563 25.9074 10.63 24.987 11.7248 24.8765L11.9463 24.8649H26.0555L26.277 24.8765C27.3716 24.9871 28.2261 25.9075 28.2261 27.027V37.8378H31.4821V21.1149L26.8653 12.5708L19.0009 7.75445L11.1355 12.5708ZM13.6251 37.8378H24.2494L18.826 33.7806L13.6251 37.8378ZM20.5727 32.4177L26.0555 36.5203V28.1419L20.5727 32.4177ZM11.9463 36.4474L17.0592 32.4588L11.9463 28.6328V36.4474ZM18.8059 31.0959L24.0237 27.027H13.3665L18.8059 31.0959Z" fill="#FF0000"/>
<path d="M18.5663 0.0897607C18.8887 -0.0502996 19.264 -0.0262476 19.569 0.160495L31.0338 7.18118L31.1504 7.26353C31.2609 7.35312 31.3527 7.46397 31.4206 7.58976L37.8701 19.5249C38.1542 20.0507 37.957 20.7063 37.4292 20.9892C36.9015 21.2721 36.2433 21.0755 35.9591 20.5501L29.6475 8.86932L18.9998 2.34905L8.3522 8.86932L2.04163 20.5501C1.75753 21.0755 1.09925 21.272 0.571564 20.9892C0.0438808 20.7063 -0.154319 20.0506 0.129591 19.5249L6.57901 7.58976L6.65532 7.4694C6.7388 7.35422 6.84463 7.25608 6.96692 7.18118L18.4317 0.160495L18.5663 0.0897607Z" fill="#FF0000"/>
</svg>
