<svg width="18" height="19" viewBox="0 0 18 19" fill="none" xmlns="http://www.w3.org/2000/svg">
<path d="M6.32672 8.68309C6.52198 8.87836 6.52198 9.19494 6.32672 9.3902L0.146446 15.5705C-0.0488156 15.7657 -0.0488154 16.0823 0.146447 16.2776L1.79582 17.927C1.99108 18.1222 2.30767 18.1222 2.50293 17.927L8.6832 11.7467C8.87846 11.5514 9.19505 11.5514 9.39031 11.7467L15.4358 17.7922C15.631 17.9874 15.9476 17.9874 16.1429 17.7922L17.7923 16.1428C17.9875 15.9475 17.9875 15.6309 17.7923 15.4357L11.7468 9.3902C11.5515 9.19494 11.5515 8.87836 11.7468 8.68309L17.7922 2.63774C17.9874 2.44247 17.9874 2.12589 17.7921 1.93063L16.1428 0.281253C15.9475 0.0859908 15.6309 0.0859904 15.4357 0.281253L9.39031 6.32661C9.19505 6.52187 8.87846 6.52187 8.6832 6.32661L2.50304 0.146446C2.30777 -0.0488157 1.99119 -0.0488154 1.79593 0.146447L0.146554 1.79582C-0.0487081 1.99108 -0.0487084 2.30767 0.146554 2.50293L6.32672 8.68309Z" fill="white"/>
</svg>
