<svg width="49" height="48" viewBox="0 0 49 48" fill="none" xmlns="http://www.w3.org/2000/svg">
<path fill-rule="evenodd" clip-rule="evenodd" d="M24 21C27.866 21 31 17.866 31 14C31 10.134 27.866 7 24 7C20.134 7 17 10.134 17 14C17 17.866 20.134 21 24 21ZM24 19C26.7615 19 29 16.7614 29 14C29 11.2386 26.7615 9 24 9C21.2386 9 19 11.2386 19 14C19 16.7614 21.2386 19 24 19Z" fill="#FF2400"/>
<path fill-rule="evenodd" clip-rule="evenodd" d="M27.2218 0H21.7774V2.20544C20.4134 2.46088 19.1308 2.94706 17.9715 3.62191L16.5255 2.17584L12.6757 6.02565L14.0058 7.35576C13.2214 8.53322 12.6396 9.85716 12.3101 11.2778H10.5V16.7223H12.3101C12.6397 18.1431 13.2217 19.4673 14.0062 20.6448L12.6766 21.9744L16.5264 25.8242L17.9722 24.3784C19.1313 25.0531 20.4137 25.5392 21.7774 25.7946V28H27.2218V25.5626C28.4537 25.2201 29.6058 24.686 30.644 23.9944L32.4742 25.8247L36.324 21.9749L34.3779 20.0288C34.9699 19.0121 35.4166 17.9004 35.6899 16.7223H38.5V11.2778H35.6899C35.4167 10.0999 34.9701 8.98842 34.3783 7.97183L36.3249 6.02521L32.4751 2.17541L30.6446 4.00595C29.6062 3.31422 28.4539 2.78 27.2218 2.43742V0ZM24 23C28.9706 23 33 18.9706 33 14C33 9.02944 28.9706 5 24 5C19.0295 5 15 9.02944 15 14C15 18.9706 19.0295 23 24 23Z" fill="#FF2400"/>
<path fill-rule="evenodd" clip-rule="evenodd" d="M29.7982 37.3333C31.1507 37.3333 32.4097 36.425 32.6308 35.1167C32.9116 33.45 31.6016 32 29.9428 32H16.3324C14.0357 32 11.8155 32.775 10.0291 34.1917L6.07362 37.3333H1.36104C0.612466 37.3333 0 37.9333 0 38.6667V46.6667C0 47.4 0.612466 48 1.36104 48H31.7121C32.9456 48 34.145 47.5917 35.1147 46.8333L47.9765 36.75C49.2695 35.7417 49.3716 33.8083 48.0871 32.675C47.0833 31.7833 45.5181 31.8417 44.4633 32.675L36.6034 38.8333C35.6421 39.5917 34.4427 40 33.2008 40H23.1376C22.389 40 21.7766 39.4 21.7766 38.6667C21.7766 37.9333 22.389 37.3333 23.1376 37.3333H29.7982ZM46.7588 34.1702L46.7639 34.1747C47.0934 34.4655 47.0687 34.9217 46.7466 35.1729L33.8819 45.2585C33.2687 45.7377 32.5046 46 31.7121 46H2V39.3333H6.77124L11.272 35.7586C12.7041 34.6229 14.4861 34 16.3324 34H29.9428C30.4353 34 30.7219 34.4068 30.6587 34.784C30.6422 34.8805 30.5825 35.0058 30.4248 35.1262C30.2608 35.2514 30.0342 35.3333 29.7982 35.3333H23.1376C21.3234 35.3333 19.7766 36.7902 19.7766 38.6667C19.7766 40.5431 21.3234 42 23.1376 42H33.2008C34.8791 42 36.5165 41.4483 37.8394 40.4056L37.8421 40.4035L45.6968 34.2493L45.7032 34.2443C45.8761 34.1077 46.1009 34.0304 46.3168 34.028C46.5261 34.0256 46.67 34.0913 46.7588 34.1702Z" fill="#FF2400"/>
</svg>
