<svg width="58" height="40" viewBox="0 0 58 40" fill="none" xmlns="http://www.w3.org/2000/svg">
<path opacity="0.2" fill-rule="evenodd" clip-rule="evenodd" d="M47.8612 19H34V17H48.5506L58 24.393V39L57 40H34V38H56V27L36 27L36 25L55.5301 25L47.8612 19ZM41.3835 29.863H51.2466V34.7945H41.3835V29.863Z" fill="#FF2400"/>
<path d="M33 23H27V29H33V23Z" fill="#FF2400"/>
<path d="M5 23H11V29H5V23Z" fill="#FF2400"/>
<path fill-rule="evenodd" clip-rule="evenodd" d="M38 40V18.0213L33.5207 13.9644V3H26.9453V8.00922L18.102 0L1.02585 17H1V17.0257L0 18.0213V40H38ZM3.86063 17L33.893 17L18.1671 2.75731L3.86063 17ZM36 19L2 19V38H14V23H24V38H36V19Z" fill="#FF2400"/>
</svg>
