<svg width="29" height="24" viewBox="0 0 29 24" fill="none" xmlns="http://www.w3.org/2000/svg">
<path d="M0 2C0 0.895431 0.895431 0 2 0H27C28.1046 0 29 0.895431 29 2C29 3.10457 28.1046 4 27 4H2C0.89543 4 0 3.10457 0 2Z" fill="#4F4C4C"/>
<path d="M0 12C0 10.8954 0.895431 10 2 10H27C28.1046 10 29 10.8954 29 12C29 13.1046 28.1046 14 27 14H2C0.89543 14 0 13.1046 0 12Z" fill="#4F4C4C"/>
<path d="M2 20C0.895431 20 0 20.8954 0 22C0 23.1046 0.89543 24 2 24H27C28.1046 24 29 23.1046 29 22C29 20.8954 28.1046 20 27 20H2Z" fill="#4F4C4C"/>
</svg>
