<svg width="144" height="32" viewBox="0 0 144 32" fill="none" xmlns="http://www.w3.org/2000/svg">
<path d="M137.522 2.33435V5.9183H138.163C138.978 5.9183 139.536 5.70734 139.837 5.28542C140.143 4.8635 140.295 4.26854 140.295 3.50055C140.295 2.70412 140.15 2.10206 139.859 1.69436C139.572 1.28666 139.102 1.08281 138.447 1.08281C138.18 1.08281 137.983 1.11837 137.857 1.18948C137.731 1.25585 137.644 1.37673 137.595 1.55214C137.547 1.7228 137.522 1.98354 137.522 2.33435ZM140.834 11.1022C140.305 9.34818 139.888 8.09427 139.582 7.3405C139.281 6.58673 138.917 6.20985 138.49 6.20985H137.522V9.55914C137.522 9.92891 137.549 10.1968 137.602 10.3627C137.656 10.5239 137.758 10.6353 137.908 10.6969C138.059 10.7538 138.301 10.7917 138.636 10.8107V11.1022H134.036V10.8107C134.361 10.7917 134.601 10.7538 134.757 10.6969C134.912 10.6353 135.016 10.5239 135.07 10.3627C135.123 10.1968 135.15 9.92891 135.15 9.55914V2.33435C135.15 1.96458 135.123 1.6991 135.07 1.53792C135.016 1.37199 134.912 1.26059 134.757 1.2037C134.601 1.14207 134.361 1.10177 134.036 1.08281V0.79126H138.636C140.009 0.800741 141.04 1.02355 141.729 1.45969C142.423 1.89584 142.77 2.52161 142.77 3.337C142.77 4.02914 142.51 4.63832 141.991 5.16453C141.477 5.68601 140.623 6.01548 139.429 6.15296C140.322 6.22881 141.006 6.46585 141.482 6.86406C141.957 7.26228 142.353 7.92834 142.668 8.86226C142.988 9.79143 143.229 10.3248 143.389 10.4622C143.549 10.5997 143.753 10.7159 144 10.8107V11.1022H140.834Z" fill="#4F4C4C"/>
<path d="M132.904 8.8907C132.904 9.78195 132.938 10.5191 133.006 11.1022H124.738V10.8107C125.063 10.7917 125.303 10.7538 125.459 10.6969C125.614 10.6353 125.718 10.5239 125.772 10.3627C125.825 10.1968 125.852 9.92891 125.852 9.55914V2.33435C125.852 1.96458 125.825 1.6991 125.772 1.53792C125.718 1.37199 125.614 1.26059 125.459 1.2037C125.303 1.14207 125.063 1.10177 124.738 1.08281V0.79126H132.708C132.64 1.59717 132.606 2.31539 132.606 2.9459C132.606 3.37256 132.62 3.70203 132.649 3.93433H132.307C132.157 2.89612 131.888 2.16843 131.5 1.75125C131.116 1.33407 130.57 1.12548 129.862 1.12548H129.251C128.945 1.12548 128.722 1.15155 128.581 1.2037C128.44 1.25111 128.346 1.34592 128.297 1.48814C128.249 1.62562 128.224 1.8508 128.224 2.16368V5.76897H128.697C129.226 5.76897 129.627 5.58171 129.898 5.2072C130.175 4.82794 130.367 4.37521 130.473 3.84899H130.815C130.786 4.25669 130.772 4.71417 130.772 5.22142V5.9183C130.772 6.41133 130.801 7.1011 130.859 7.9876H130.517C130.308 6.70288 129.702 6.06052 128.697 6.06052H128.224V9.7298C128.224 10.0427 128.249 10.2702 128.297 10.4125C128.346 10.5499 128.44 10.6448 128.581 10.6969C128.722 10.7443 128.945 10.768 129.251 10.768H129.986C130.689 10.768 131.257 10.5333 131.689 10.064C132.121 9.58995 132.426 8.79115 132.606 7.66761H132.948C132.919 7.98523 132.904 8.39293 132.904 8.8907Z" fill="#4F4C4C"/>
<path d="M123.89 1.08281C123.551 1.10177 123.305 1.14207 123.155 1.2037C123.01 1.26059 122.908 1.37199 122.849 1.53792C122.796 1.6991 122.769 1.96458 122.769 2.33435V9.55914C122.769 9.92891 122.796 10.1968 122.849 10.3627C122.908 10.5239 123.01 10.6353 123.155 10.6969C123.305 10.7538 123.551 10.7917 123.89 10.8107V11.1022H119.283V10.8107C119.613 10.7917 119.853 10.7538 120.004 10.6969C120.159 10.6353 120.263 10.5239 120.317 10.3627C120.375 10.1968 120.404 9.92891 120.404 9.55914V6.06052H116.452V9.55914C116.452 9.92891 116.479 10.1968 116.532 10.3627C116.585 10.5239 116.687 10.6353 116.838 10.6969C116.988 10.7538 117.231 10.7917 117.565 10.8107V11.1022H112.966V10.8107C113.291 10.7917 113.531 10.7538 113.686 10.6969C113.841 10.6353 113.946 10.5239 113.999 10.3627C114.052 10.1968 114.079 9.92891 114.079 9.55914V2.33435C114.079 1.96458 114.052 1.6991 113.999 1.53792C113.946 1.37199 113.841 1.26059 113.686 1.2037C113.531 1.14207 113.291 1.10177 112.966 1.08281V0.79126H117.565V1.08281C117.231 1.10177 116.988 1.14207 116.838 1.2037C116.687 1.26059 116.585 1.37199 116.532 1.53792C116.479 1.6991 116.452 1.96458 116.452 2.33435V5.76897H120.404V2.33435C120.404 1.96458 120.375 1.6991 120.317 1.53792C120.263 1.37199 120.159 1.26059 120.004 1.2037C119.853 1.14207 119.613 1.10177 119.283 1.08281V0.79126H123.89V1.08281Z" fill="#4F4C4C"/>
<path d="M107.037 6.93517V9.4738C107.037 9.86254 107.079 10.147 107.161 10.3271C107.248 10.5025 107.399 10.621 107.612 10.6827C107.826 10.7396 108.165 10.7727 108.631 10.7822V11.1022H103.551V10.8107C103.876 10.7917 104.116 10.7538 104.272 10.6969C104.427 10.6353 104.531 10.5239 104.585 10.3627C104.638 10.1968 104.665 9.92891 104.665 9.55914V2.33435C104.665 1.96458 104.638 1.6991 104.585 1.53792C104.531 1.37199 104.427 1.26059 104.272 1.2037C104.116 1.14207 103.876 1.10177 103.551 1.08281V0.79126H108.151C109.495 0.800741 110.519 1.06622 111.222 1.58769C111.931 2.10443 112.285 2.80131 112.285 3.67833C112.285 4.20929 112.144 4.72128 111.863 5.21431C111.586 5.7026 111.118 6.11267 110.458 6.44451C109.798 6.77162 108.92 6.93517 107.823 6.93517H107.037ZM107.962 1.08281C107.695 1.08281 107.498 1.11837 107.372 1.18948C107.246 1.25585 107.159 1.37673 107.11 1.55214C107.062 1.7228 107.037 1.98354 107.037 2.33435V6.64362H107.678C108.483 6.64362 109.039 6.39237 109.344 5.88985C109.655 5.3826 109.81 4.69757 109.81 3.83477C109.81 2.89138 109.667 2.19687 109.381 1.75125C109.099 1.30562 108.626 1.08281 107.962 1.08281Z" fill="#4F4C4C"/>
<path d="M97.2879 0.585083C98.3409 0.585083 99.2628 0.793673 100.054 1.21085C100.845 1.62803 101.458 2.23247 101.895 3.02416C102.332 3.81585 102.55 4.76162 102.55 5.86145C102.55 6.9281 102.327 7.87387 101.88 8.69875C101.434 9.52362 100.811 10.166 100.01 10.6258C99.2094 11.0809 98.2972 11.3085 97.2734 11.3085C96.2205 11.3085 95.2986 11.0999 94.5077 10.6827C93.7168 10.2655 93.103 9.6611 92.6663 8.86941C92.2296 8.07772 92.0112 7.13195 92.0112 6.03212C92.0112 4.96547 92.2344 4.0197 92.6808 3.19482C93.1272 2.36995 93.7507 1.72996 94.5513 1.27485C95.3519 0.815006 96.2641 0.585083 97.2879 0.585083ZM97.2297 0.84819C96.6814 0.84819 96.1986 1.06389 95.7813 1.49529C95.3641 1.92669 95.0438 2.53113 94.8206 3.3086C94.5974 4.08607 94.4858 4.97495 94.4858 5.97523C94.4858 6.98499 94.612 7.87387 94.8643 8.64186C95.1166 9.40985 95.4587 10.0024 95.8905 10.4196C96.3272 10.8368 96.8076 11.0454 97.3316 11.0454C97.8799 11.0454 98.3627 10.8297 98.78 10.3983C99.1973 9.96688 99.5175 9.36244 99.7407 8.58497C99.9639 7.8075 100.075 6.91862 100.075 5.91834C100.075 4.90858 99.9493 4.0197 99.697 3.25171C99.4447 2.48372 99.1002 1.89114 98.6635 1.47396C98.2317 1.05678 97.7537 0.84819 97.2297 0.84819Z" fill="#4F4C4C"/>
<path d="M91.134 0.79126C91.0612 1.71569 91.0248 2.54057 91.0248 3.26589C91.0248 3.721 91.0418 4.09077 91.0758 4.37521H90.7337C90.4911 3.18056 90.1636 2.34146 89.7511 1.85791C89.3387 1.36962 88.7759 1.12548 88.0626 1.12548H87.7205V9.44536C87.7205 9.85306 87.7618 10.1493 87.8442 10.3342C87.9316 10.5144 88.082 10.6376 88.2955 10.704C88.509 10.7656 88.8486 10.8012 89.3144 10.8107V11.1022H83.7539V10.8107C84.2197 10.8012 84.5593 10.7656 84.7728 10.704C84.9863 10.6376 85.1343 10.5144 85.2168 10.3342C85.3041 10.1493 85.3478 9.85306 85.3478 9.44536V1.12548H85.0203C84.5448 1.12548 84.1396 1.2274 83.8048 1.43125C83.4749 1.6351 83.1886 1.97406 82.946 2.44813C82.7082 2.91745 82.5045 3.55981 82.3346 4.37521H81.9926C82.0265 4.09077 82.0435 3.721 82.0435 3.26589C82.0435 2.54057 82.0071 1.71569 81.9343 0.79126H91.134Z" fill="#4F4C4C"/>
<path d="M77.2433 0.599365C77.7576 0.599365 78.1677 0.649142 78.4733 0.748696C78.7839 0.84351 79.0993 0.98336 79.4195 1.16825C79.5263 1.22987 79.6209 1.27965 79.7034 1.31758C79.7907 1.3555 79.8635 1.37447 79.9217 1.37447C80.0139 1.37447 80.0843 1.32469 80.1328 1.22513C80.1813 1.12084 80.2201 0.957286 80.2492 0.734474H80.5913C80.5428 1.38395 80.5185 2.49089 80.5185 4.05532H80.1764C80.1376 3.5291 80.0163 3.02896 79.8125 2.55489C79.6087 2.07609 79.32 1.68972 78.9464 1.3958C78.5728 1.10188 78.1385 0.954916 77.6436 0.954916C77.1584 0.954916 76.763 1.08765 76.4573 1.35313C76.1564 1.61861 76.006 1.9789 76.006 2.43401C76.006 2.77533 76.0788 3.074 76.2244 3.32999C76.3748 3.58125 76.5834 3.81117 76.8503 4.01976C77.122 4.22835 77.5344 4.51042 78.0876 4.86597L78.568 5.19308C79.1551 5.56759 79.616 5.89707 79.9508 6.18151C80.2905 6.46121 80.567 6.78832 80.7805 7.16283C80.994 7.53734 81.1008 7.97111 81.1008 8.46414C81.1008 9.08517 80.9358 9.60902 80.6059 10.0357C80.2808 10.4576 79.8368 10.7752 79.2739 10.9886C78.7111 11.2019 78.0876 11.3085 77.4034 11.3085C76.8454 11.3085 76.3821 11.2588 76.0133 11.1592C75.6494 11.0644 75.3122 10.934 75.0016 10.7681C74.7833 10.6306 74.6159 10.5619 74.4994 10.5619C74.4072 10.5619 74.3369 10.614 74.2884 10.7183C74.2398 10.8179 74.201 10.9791 74.1719 11.2019H73.8298C73.8687 10.5903 73.8881 9.27954 73.8881 7.26949H74.2301C74.2981 8.35985 74.5455 9.24161 74.9725 9.91479C75.3995 10.588 76.057 10.9246 76.9449 10.9246C77.4786 10.9246 77.9202 10.7847 78.2695 10.505C78.6189 10.2253 78.7936 9.82235 78.7936 9.29613C78.7936 8.75095 78.6141 8.28637 78.255 7.90237C77.8959 7.51364 77.3282 7.07513 76.5519 6.58684C75.9599 6.20758 75.4844 5.87811 75.1254 5.59841C74.7663 5.31397 74.4727 4.98212 74.2447 4.60286C74.0166 4.21887 73.9026 3.77325 73.9026 3.26599C73.9026 2.68289 74.053 2.18986 74.3539 1.7869C74.6596 1.38395 75.0647 1.08528 75.5693 0.890917C76.0788 0.696549 76.6368 0.599365 77.2433 0.599365Z" fill="#4F4C4C"/>
<path d="M72.6616 1.08281C72.3268 1.10177 72.0842 1.14207 71.9338 1.2037C71.7834 1.26059 71.6815 1.37199 71.6281 1.53792C71.5747 1.6991 71.548 1.96458 71.548 2.33435V9.55914C71.548 9.92891 71.5747 10.1968 71.6281 10.3627C71.6815 10.5239 71.7834 10.6353 71.9338 10.6969C72.0842 10.7538 72.3268 10.7917 72.6616 10.8107V11.1022H68.0618V10.8107C68.3869 10.7917 68.627 10.7538 68.7823 10.6969C68.9376 10.6353 69.0419 10.5239 69.0953 10.3627C69.1486 10.1968 69.1753 9.92891 69.1753 9.55914V2.33435C69.1753 1.96458 69.1486 1.6991 69.0953 1.53792C69.0419 1.37199 68.9376 1.26059 68.7823 1.2037C68.627 1.14207 68.3869 1.10177 68.0618 1.08281V0.79126H72.6616V1.08281Z" fill="#4F4C4C"/>
<path d="M61.3766 2.33435V5.9183H62.0171C62.8323 5.9183 63.3903 5.70734 63.6911 5.28542C63.9968 4.8635 64.1496 4.26854 64.1496 3.50055C64.1496 2.70412 64.0041 2.10206 63.713 1.69436C63.4267 1.28666 62.956 1.08281 62.301 1.08281C62.0341 1.08281 61.8376 1.11837 61.7114 1.18948C61.5853 1.25585 61.498 1.37673 61.4494 1.55214C61.4009 1.7228 61.3766 1.98354 61.3766 2.33435ZM64.6882 11.1022C64.1594 9.34818 63.7421 8.09427 63.4364 7.3405C63.1355 6.58673 62.7716 6.20985 62.3447 6.20985H61.3766V9.55914C61.3766 9.92891 61.4033 10.1968 61.4567 10.3627C61.5101 10.5239 61.612 10.6353 61.7624 10.6969C61.9128 10.7538 62.1554 10.7917 62.4902 10.8107V11.1022H57.8904V10.8107C58.2155 10.7917 58.4557 10.7538 58.6109 10.6969C58.7662 10.6353 58.8705 10.5239 58.9239 10.3627C58.9773 10.1968 59.0039 9.92891 59.0039 9.55914V2.33435C59.0039 1.96458 58.9773 1.6991 58.9239 1.53792C58.8705 1.37199 58.7662 1.26059 58.6109 1.2037C58.4557 1.14207 58.2155 1.10177 57.8904 1.08281V0.79126H62.4902C63.8634 0.800741 64.8945 1.02355 65.5835 1.45969C66.2773 1.89584 66.6242 2.52161 66.6242 3.337C66.6242 4.02914 66.3647 4.63832 65.8455 5.16453C65.3311 5.68601 64.4772 6.01548 63.2835 6.15296C64.1763 6.22881 64.8605 6.46585 65.336 6.86406C65.8115 7.26228 66.207 7.92834 66.5223 8.86226C66.8426 9.79143 67.0828 10.3248 67.2429 10.4622C67.403 10.5997 67.6068 10.7159 67.8543 10.8107V11.1022H64.6882Z" fill="#4F4C4C"/>
<path d="M57.0423 1.08281C56.7026 1.10177 56.4576 1.14207 56.3072 1.2037C56.1616 1.26059 56.0597 1.37199 56.0015 1.53792C55.9481 1.6991 55.9214 1.96458 55.9214 2.33435V9.55914C55.9214 9.92891 55.9481 10.1968 56.0015 10.3627C56.0597 10.5239 56.1616 10.6353 56.3072 10.6969C56.4576 10.7538 56.7026 10.7917 57.0423 10.8107V11.1022H52.4352V10.8107C52.7651 10.7917 53.0053 10.7538 53.1557 10.6969C53.311 10.6353 53.4153 10.5239 53.4687 10.3627C53.5269 10.1968 53.556 9.92891 53.556 9.55914V6.06052H49.6039V9.55914C49.6039 9.92891 49.6306 10.1968 49.684 10.3627C49.7374 10.5239 49.8393 10.6353 49.9897 10.6969C50.1401 10.7538 50.3827 10.7917 50.7175 10.8107V11.1022H46.1177V10.8107C46.4428 10.7917 46.683 10.7538 46.8382 10.6969C46.9935 10.6353 47.0978 10.5239 47.1512 10.3627C47.2046 10.1968 47.2312 9.92891 47.2312 9.55914V2.33435C47.2312 1.96458 47.2046 1.6991 47.1512 1.53792C47.0978 1.37199 46.9935 1.26059 46.8382 1.2037C46.683 1.14207 46.4428 1.10177 46.1177 1.08281V0.79126H50.7175V1.08281C50.3827 1.10177 50.1401 1.14207 49.9897 1.2037C49.8393 1.26059 49.7374 1.37199 49.684 1.53792C49.6306 1.6991 49.6039 1.96458 49.6039 2.33435V5.76897H53.556V2.33435C53.556 1.96458 53.5269 1.6991 53.4687 1.53792C53.4153 1.37199 53.311 1.26059 53.1557 1.2037C53.0053 1.14207 52.7651 1.10177 52.4352 1.08281V0.79126H57.0423V1.08281Z" fill="#4F4C4C"/>
<path d="M41.1646 0.585083C41.7615 0.585083 42.2685 0.668045 42.6858 0.833968C43.1031 0.999892 43.5107 1.23218 43.9085 1.53085C44.0153 1.62092 44.1099 1.66596 44.1924 1.66596C44.3913 1.66596 44.5199 1.37441 44.5781 0.791302H44.9202C44.8814 1.45026 44.862 2.62594 44.862 4.31836H44.5199C44.4277 3.59778 44.3064 3.04786 44.156 2.66861C44.0104 2.28936 43.7581 1.95988 43.3991 1.68018C43.1516 1.44789 42.8629 1.27248 42.533 1.15396C42.2079 1.03071 41.8658 0.969078 41.5067 0.969078C40.5023 0.969078 39.7575 1.44789 39.2723 2.4055C38.7871 3.35838 38.5445 4.54829 38.5445 5.97523C38.5445 7.39269 38.7968 8.57786 39.3014 9.53073C39.8109 10.4836 40.5654 10.96 41.565 10.96C41.9046 10.96 42.2394 10.8984 42.5693 10.7752C42.9041 10.6519 43.1856 10.4741 43.4136 10.2418C43.7824 9.97162 44.0371 9.63266 44.1778 9.22496C44.3234 8.81726 44.4374 8.21994 44.5199 7.43299H44.862C44.862 9.19178 44.8814 10.4149 44.9202 11.1023H44.5781C44.549 10.7894 44.5054 10.5689 44.4471 10.4409C44.3938 10.3082 44.3185 10.2418 44.2215 10.2418C44.1439 10.2418 44.0395 10.2821 43.9085 10.3627C43.4621 10.6709 43.0352 10.9055 42.6276 11.0667C42.22 11.2279 41.7275 11.3085 41.1501 11.3085C40.0972 11.3085 39.1753 11.0999 38.3844 10.6827C37.5935 10.2655 36.9797 9.6611 36.543 8.86941C36.1063 8.07772 35.8879 7.13195 35.8879 6.03212C35.8879 4.96547 36.1111 4.0197 36.5575 3.19482C37.0039 2.36995 37.6274 1.72996 38.428 1.27485C39.2286 0.815006 40.1408 0.585083 41.1646 0.585083Z" fill="#4F4C4C"/>
<path d="M144 13.4956C143.58 13.5193 143.278 13.5697 143.092 13.6467C142.912 13.7178 142.786 13.857 142.714 14.0644C142.648 14.2658 142.615 14.5976 142.615 15.0597V24.0891C142.615 24.5512 142.648 24.8859 142.714 25.0933C142.786 25.2948 142.915 25.434 143.101 25.511C143.293 25.5821 143.592 25.6295 144 25.6532V26.0176H138.2V25.6532C138.644 25.6295 138.964 25.5821 139.162 25.511C139.366 25.434 139.504 25.2948 139.576 25.0933C139.654 24.8859 139.693 24.5512 139.693 24.0891V14.5709L135.251 26.0354H134.954L129.981 14.3132V23.0315C129.981 23.7484 130.017 24.2757 130.089 24.6134C130.167 24.9452 130.329 25.1881 130.575 25.3422C130.82 25.4903 131.219 25.594 131.771 25.6532V26.0176H128.183V25.6532C128.584 25.594 128.881 25.4932 129.073 25.351C129.265 25.2029 129.394 24.9719 129.46 24.6578C129.525 24.3379 129.558 23.8699 129.558 23.2537V15.0597C129.558 14.5976 129.525 14.2658 129.46 14.0644C129.394 13.857 129.265 13.7178 129.073 13.6467C128.881 13.5697 128.584 13.5193 128.183 13.4956V13.1312H132.688L136.411 21.9917L139.801 13.1312H144V13.4956Z" fill="#4F4C4C"/>
<path d="M122.082 24.489C122.244 24.8919 122.43 25.1852 122.639 25.3688C122.849 25.5466 123.05 25.6414 123.242 25.6532V26.0176H117.649V25.6532C118.116 25.6295 118.446 25.5732 118.638 25.4844C118.836 25.3896 118.935 25.2266 118.935 24.9956C118.935 24.7764 118.863 24.4861 118.719 24.1246L117.613 21.1386H113.593L113.117 22.3916C112.775 23.2685 112.604 23.9439 112.604 24.4179C112.604 24.8682 112.742 25.1822 113.018 25.36C113.293 25.5318 113.701 25.6295 114.241 25.6532V26.0176H110.554V25.6532C111.159 25.5466 111.687 24.9097 112.136 23.7425L116.336 13.0957H117.613L122.082 24.489ZM117.478 20.7742L115.661 15.8596L113.746 20.7742H117.478Z" fill="#4F4C4C"/>
<path d="M105.613 13.4956C105.199 13.5193 104.899 13.5697 104.714 13.6467C104.528 13.7178 104.402 13.857 104.336 14.0644C104.27 14.2658 104.237 14.5976 104.237 15.0597V24.0891C104.237 24.5512 104.27 24.8859 104.336 25.0933C104.402 25.2948 104.528 25.434 104.714 25.511C104.899 25.5821 105.199 25.6295 105.613 25.6532V26.0176H99.9297V25.6532C100.331 25.6295 100.628 25.5821 100.82 25.511C101.012 25.434 101.141 25.2948 101.207 25.0933C101.273 24.8859 101.306 24.5512 101.306 24.0891V15.0597C101.306 14.5976 101.273 14.2658 101.207 14.0644C101.141 13.857 101.012 13.7178 100.82 13.6467C100.628 13.5697 100.331 13.5193 99.9297 13.4956V13.1312H105.613V13.4956Z" fill="#4F4C4C"/>
<path d="M90.5735 13.4956C90.1298 13.5193 89.8061 13.5697 89.6023 13.6467C89.3985 13.7178 89.2606 13.857 89.1886 14.0644C89.1167 14.2658 89.0807 14.5976 89.0807 15.0597V24.3024C89.0807 24.6934 89.1107 24.9778 89.1707 25.1555C89.2306 25.3273 89.3385 25.4458 89.4944 25.511C89.6502 25.5703 89.899 25.5999 90.2407 25.5999H91.14C91.9792 25.5999 92.7016 25.2296 93.3071 24.489C93.9126 23.7484 94.3082 22.7649 94.4941 21.5385H94.9167C94.8808 21.9532 94.8628 22.4864 94.8628 23.1381C94.8628 24.3053 94.9047 25.2651 94.9887 26.0176H84.7734V25.6532C85.1751 25.6295 85.4718 25.5821 85.6637 25.511C85.8555 25.434 85.9844 25.2948 86.0503 25.0933C86.1163 24.8859 86.1493 24.5512 86.1493 24.0891V15.0597C86.1493 14.5976 86.1163 14.2658 86.0503 14.0644C85.9844 13.857 85.8555 13.7178 85.6637 13.6467C85.4718 13.5697 85.1751 13.5193 84.7734 13.4956V13.1312H90.5735V13.4956Z" fill="#4F4C4C"/>
<path d="M75.4172 13.4956C74.9736 13.5193 74.6499 13.5697 74.446 13.6467C74.2422 13.7178 74.1043 13.857 74.0324 14.0644C73.9605 14.2658 73.9245 14.5976 73.9245 15.0597V24.3024C73.9245 24.6934 73.9545 24.9778 74.0144 25.1555C74.0744 25.3273 74.1823 25.4458 74.3381 25.511C74.494 25.5703 74.7428 25.5999 75.0845 25.5999H75.9837C76.823 25.5999 77.5454 25.2296 78.1509 24.489C78.7563 23.7484 79.152 22.7649 79.3378 21.5385H79.7605C79.7245 21.9532 79.7065 22.4864 79.7065 23.1381C79.7065 24.3053 79.7485 25.2651 79.8324 26.0176H69.6172V25.6532C70.0188 25.6295 70.3156 25.5821 70.5074 25.511C70.6993 25.434 70.8281 25.2948 70.8941 25.0933C70.96 24.8859 70.993 24.5512 70.993 24.0891V15.0597C70.993 14.5976 70.96 14.2658 70.8941 14.0644C70.8281 13.857 70.6993 13.7178 70.5074 13.6467C70.3156 13.5697 70.0188 13.5193 69.6172 13.4956V13.1312H75.4172V13.4956Z" fill="#4F4C4C"/>
<path d="M64.6763 13.4956C64.2626 13.5193 63.9629 13.5697 63.7771 13.6467C63.5912 13.7178 63.4653 13.857 63.3994 14.0644C63.3334 14.2658 63.3005 14.5976 63.3005 15.0597V24.0891C63.3005 24.5512 63.3334 24.8859 63.3994 25.0933C63.4653 25.2948 63.5912 25.434 63.7771 25.511C63.9629 25.5821 64.2626 25.6295 64.6763 25.6532V26.0176H58.9932V25.6532C59.3948 25.6295 59.6916 25.5821 59.8834 25.511C60.0752 25.434 60.2041 25.2948 60.2701 25.0933C60.336 24.8859 60.369 24.5512 60.369 24.0891V15.0597C60.369 14.5976 60.336 14.2658 60.2701 14.0644C60.2041 13.857 60.0752 13.7178 59.8834 13.6467C59.6916 13.5697 59.3948 13.5193 58.9932 13.4956V13.1312H64.6763V13.4956Z" fill="#4F4C4C"/>
<path d="M54.0523 13.1312V13.4956C53.7466 13.6141 53.4469 13.8481 53.1531 14.1977C52.8654 14.5413 52.6256 15.0301 52.4337 15.6641L49.1875 26.0531C49.0556 26.0413 48.8398 26.0353 48.5401 26.0353C48.2463 26.0353 48.0335 26.0413 47.9016 26.0531L45.1949 17.9392L42.4703 26.0531C42.3324 26.0413 42.1166 26.0353 41.8228 26.0353C41.5291 26.0353 41.3133 26.0413 41.1754 26.0531L37.0479 14.6598C36.9041 14.2569 36.7272 13.9666 36.5174 13.7889C36.3076 13.6052 36.0978 13.5074 35.8879 13.4956V13.1312H40.8966V13.4956C40.471 13.5548 40.2582 13.7918 40.2582 14.2066C40.2582 14.4021 40.3121 14.6746 40.42 15.0242L43.1087 22.7204L44.9701 17.2993L44.0349 14.4821C43.909 14.1266 43.7622 13.8807 43.5943 13.7444C43.4325 13.6022 43.2406 13.5193 43.0188 13.4956V13.1312H48.3063V13.4956C47.8627 13.5074 47.5419 13.5608 47.3441 13.6556C47.1523 13.7444 47.0563 13.9163 47.0563 14.171C47.0563 14.3902 47.1163 14.6746 47.2362 15.0242L49.763 22.6316L51.5075 17.1393C51.7893 16.2269 51.9302 15.5219 51.9302 15.0242C51.9302 14.5028 51.7983 14.1236 51.5345 13.8866C51.2707 13.6496 50.8751 13.5193 50.3475 13.4956V13.1312H54.0523Z" fill="#4F4C4C"/>
<path fill-rule="evenodd" clip-rule="evenodd" d="M144 31.4149H0V29.6277H144V31.4149Z" fill="#FF2400"/>
<path fill-rule="evenodd" clip-rule="evenodd" d="M6.18569 22.0452H24.3187V26.0531H25.2254V22.0452H29.7587V21.1546H25.2254V13.1308L29.7587 16.9093L30.3452 16.2302L25.2254 11.9627V3.78698H24.3187V11.207L15.2522 3.65002L6.18569 11.207L6.18569 3.78698H5.27904L5.27904 11.9627L0.15918 16.2302L0.745763 16.9093L5.27904 13.1308L5.27904 21.1546H0.745773V22.0452H5.27904V26.0531H6.18569V22.0452ZM15.2522 4.81807L6.18569 12.3751L6.18569 21.1546H24.3187V12.3751L15.2522 4.81807Z" fill="#4F4C4C"/>
<path fill-rule="evenodd" clip-rule="evenodd" d="M3.91918 24.2719H26.5855V26.0532H27.4921V24.2719H29.7588V23.3812H27.4921V11.9096L29.9195 13.9242L30.5047 13.2439L27.4921 10.7436V6.01361H26.5855V9.99114L15.2523 0.585083L3.91918 9.99114V6.01361H3.01253V10.7436L0 13.2439L0.585128 13.9242L3.01253 11.9096L3.01253 23.3812H0.745897V24.2719H3.01253V26.0532H3.91918V24.2719ZM15.2523 1.75105L3.91918 11.1571L3.91918 23.3812H26.5855V11.1571L15.2523 1.75105Z" fill="#FF2400"/>
</svg>
