<svg width="535" height="549" viewBox="0 0 535 549" fill="none" xmlns="http://www.w3.org/2000/svg">
<g opacity="0.1">
<path d="M0 628.858L-5.1378e-06 511.319L8.23077 511.319L8.23077 628.858L0 628.858Z" fill="white"/>
<path d="M0 404.299L-1.22148e-05 124.857L8.23076 124.857L8.23077 404.299L0 404.299Z" fill="white"/>
<path d="M518.539 815L518.539 252.915L535 252.915L535 815L518.539 815Z" fill="white"/>
<path d="M0 90.5555L-2.37898e-06 36.1307L8.23077 36.1307L8.23077 90.5555L0 90.5555Z" fill="white"/>
<path d="M4.11523 36.1307L41.611 36.1307L41.611 44.3631L4.11523 44.3631L4.11523 36.1307Z" fill="white"/>
<path d="M163.244 36.1307L184.735 36.1307L184.735 44.3631L163.244 44.3631L163.244 36.1307Z" fill="white"/>
<path d="M41.6111 31.5573L41.6111 44.3631L33.3803 44.3631L33.3803 31.5573L41.6111 31.5573Z" fill="white"/>
<path d="M167.359 31.5573L167.359 44.3631L159.128 44.3631L159.128 31.5573L167.359 31.5573Z" fill="white"/>
<path d="M167.359 31.5573L167.359 44.3631L159.128 44.3631L159.128 31.5573L167.359 31.5573Z" fill="white"/>
<path d="M184.735 36.1307L184.735 69.5174L176.504 69.5174L176.504 36.1307L184.735 36.1307Z" fill="white"/>
<path d="M184.735 111.594L184.735 339.812L176.504 339.812L176.504 111.594L184.735 111.594Z" fill="white"/>
<path d="M5.02979 313.286L181.534 313.286L181.534 321.518L5.02979 321.518L5.02979 313.286Z" fill="white"/>
<path d="M254.239 111.594L254.239 361.765L246.008 361.765L246.009 111.594L254.239 111.594Z" fill="white"/>
<path d="M526.769 261.148L252.867 261.148L252.867 252.915L526.769 252.915L526.769 261.148Z" fill="white"/>
<path d="M418.397 292.705L418.397 37.5028L426.628 37.5028L426.628 292.705L418.397 292.705Z" fill="white"/>
<path fill-rule="evenodd" clip-rule="evenodd" d="M425.714 291.79L428.686 291.79L428.686 292.705L425.714 292.705L425.714 291.79ZM434.63 291.79L440.575 291.79L440.575 292.705L434.63 292.705L434.63 291.79ZM446.519 291.79L452.464 291.79L452.464 292.705L446.519 292.705L446.519 291.79ZM458.408 291.79L464.353 291.79L464.353 292.705L458.408 292.705L458.408 291.79ZM470.297 291.79L476.241 291.79L476.241 292.705L470.297 292.705L470.297 291.79ZM482.186 291.79L488.13 291.79L488.13 292.705L482.186 292.705L482.186 291.79ZM494.075 291.79L497.504 291.79L497.504 295.175L496.59 295.175L496.59 292.705L494.075 292.705L494.075 291.79ZM497.504 453.28L497.504 456.208L496.59 456.208L496.59 453.28L497.504 453.28ZM497.504 441.569L497.504 447.424L496.59 447.424L496.59 441.569L497.504 441.569ZM497.504 429.857L497.504 435.713L496.59 435.713L496.59 429.857L497.504 429.857ZM497.504 418.146L497.504 424.001L496.59 424.001L496.59 418.146L497.504 418.146ZM497.504 406.434L497.504 412.29L496.59 412.29L496.59 406.434L497.504 406.434ZM497.504 394.723L497.504 400.578L496.59 400.578L496.59 394.723L497.504 394.723ZM497.504 383.011L497.504 388.867L496.59 388.867L496.59 383.011L497.504 383.011ZM497.504 371.3L497.504 377.156L496.59 377.156L496.59 371.3L497.504 371.3ZM497.504 359.588L497.504 365.444L496.59 365.444L496.59 359.588L497.504 359.588ZM497.504 347.877L497.504 353.733L496.59 353.733L496.59 347.877L497.504 347.877ZM497.504 336.165L497.504 342.021L496.59 342.021L496.59 336.165L497.504 336.165ZM497.504 324.454L497.504 330.31L496.59 330.31L496.59 324.454L497.504 324.454ZM497.504 312.742L497.504 318.598L496.59 318.598L496.59 312.742L497.504 312.742ZM497.504 301.031L497.504 306.887L496.59 306.887L496.59 301.031L497.504 301.031Z" fill="white"/>
<path d="M184.735 381.888L184.735 532.814L176.504 532.814L176.504 381.888L184.735 381.888Z" fill="white"/>
<path d="M254.239 381.888L254.239 463.297L246.008 463.297L246.008 381.888L254.239 381.888Z" fill="white"/>
<path d="M372.214 463.297L246.008 463.297L246.008 455.065L372.214 455.065L372.214 463.297Z" fill="white"/>
<path d="M435.316 463.297L414.282 463.297L414.282 455.065L435.316 455.065L435.316 463.297Z" fill="white"/>
<path d="M519.453 463.297L496.59 463.297L496.59 455.065L519.453 455.065L519.453 463.297Z" fill="white"/>
<path d="M422.513 518.636L363.526 518.636L363.526 510.404L422.513 510.404L422.513 518.636Z" fill="white"/>
<path d="M294.479 513.605L236.406 513.605L236.406 505.373L294.479 505.373L294.479 513.605Z" fill="white"/>
<path d="M286.248 625.199L286.248 505.373L294.479 505.373L294.479 625.199L286.248 625.199Z" fill="white"/>
<path d="M414.282 625.199L414.282 455.065L422.513 455.065L422.513 625.199L414.282 625.199Z" fill="white"/>
<path d="M363.526 518.636L363.526 455.065L371.756 455.065L371.756 518.636L363.526 518.636Z" fill="white"/>
<path d="M194.338 56.2542L180.62 56.2542L180.62 48.0219L194.338 48.0219L194.338 56.2542Z" fill="white"/>
<path d="M194.338 513.605L180.62 513.605L180.62 505.373L194.338 505.373L194.338 513.605Z" fill="white"/>
<path fill-rule="evenodd" clip-rule="evenodd" d="M195.252 55.3395L235.491 55.3395L235.491 48.9366L195.252 48.9366L195.252 55.3395ZM236.406 56.2542L236.406 48.0219L194.338 48.0219L194.338 56.2542L236.406 56.2542Z" fill="white"/>
<path fill-rule="evenodd" clip-rule="evenodd" d="M195.252 512.691L235.491 512.691L235.491 506.288L195.252 506.288L195.252 512.691ZM236.406 513.605L236.406 505.373L194.338 505.373L194.338 513.605L236.406 513.605Z" fill="white"/>
<path fill-rule="evenodd" clip-rule="evenodd" d="M373.128 462.382L413.367 462.382L413.367 455.979L373.128 455.979L373.128 462.382ZM414.282 463.297L414.282 455.065L372.214 455.065L372.214 463.297L414.282 463.297Z" fill="white"/>
<path fill-rule="evenodd" clip-rule="evenodd" d="M177.419 70.432L177.419 110.679L183.82 110.679L183.82 70.432L177.419 70.432ZM176.504 111.594L184.735 111.594L184.735 69.5173L176.504 69.5173L176.504 111.594Z" fill="white"/>
<path fill-rule="evenodd" clip-rule="evenodd" d="M246.923 70.432L246.923 110.679L253.325 110.679L253.325 70.432L246.923 70.432ZM246.009 111.594L254.239 111.594L254.239 69.5173L246.009 69.5173L246.009 111.594Z" fill="white"/>
<path fill-rule="evenodd" clip-rule="evenodd" d="M177.419 340.727L177.419 380.974L183.82 380.974L183.82 340.727L177.419 340.727ZM176.504 381.888L184.735 381.888L184.735 339.812L176.504 339.812L176.504 381.888Z" fill="white"/>
<path fill-rule="evenodd" clip-rule="evenodd" d="M287.162 464.212L287.162 504.458L293.564 504.458L293.564 464.212L287.162 464.212ZM286.248 505.373L294.479 505.373L294.479 463.297L286.248 463.297L286.248 505.373Z" fill="white"/>
<path d="M41.6111 1.82935L41.6111 9.60431L33.3803 9.60431L33.3803 1.82935L41.6111 1.82935Z" fill="white"/>
<path d="M167.359 1.82935L167.359 9.60431L159.128 9.60431L159.128 1.82935L167.359 1.82935Z" fill="white"/>
<path d="M44.3547 8.2323L33.3804 8.2323L33.3804 1.7561e-06L44.3547 7.96604e-07L44.3547 8.2323Z" fill="white"/>
<path d="M167.359 8.2323L156.385 8.2323L156.385 1.7561e-06L167.359 7.96604e-07L167.359 8.2323Z" fill="white"/>
<path fill-rule="evenodd" clip-rule="evenodd" d="M0.914525 405.213L0.91453 510.404L7.31624 510.404L7.31624 405.213L0.914525 405.213ZM0 511.319L8.23077 511.319L8.23077 404.299L-4.678e-06 404.299L0 511.319Z" fill="white"/>
<path fill-rule="evenodd" clip-rule="evenodd" d="M4.57274 404.298L4.57273 510.861L3.6582 510.861L3.65821 404.298L4.57274 404.298Z" fill="white"/>
<path fill-rule="evenodd" clip-rule="evenodd" d="M0.914529 91.4703L0.91453 123.942L7.31624 123.942L7.31624 91.4703L0.914529 91.4703ZM0 124.857L8.23077 124.857L8.23077 90.5556L-1.49936e-06 90.5556L0 124.857Z" fill="white"/>
<path fill-rule="evenodd" clip-rule="evenodd" d="M4.57273 91.0601L4.57273 124.857L3.6582 124.857L3.6582 91.0601L4.57273 91.0601Z" fill="white"/>
<path fill-rule="evenodd" clip-rule="evenodd" d="M34.2949 10.5191L34.2949 30.6425L40.6966 30.6425L40.6966 10.5191L34.2949 10.5191ZM33.3804 31.5573L41.6111 31.5573L41.6111 9.60437L33.3804 9.60437L33.3804 31.5573Z" fill="white"/>
<path fill-rule="evenodd" clip-rule="evenodd" d="M37.9531 9.92718L37.9531 31.5573L37.0386 31.5573L37.0386 9.92718L37.9531 9.92718Z" fill="white"/>
<path fill-rule="evenodd" clip-rule="evenodd" d="M160.043 10.5191L160.043 30.6425L166.444 30.6425L166.444 10.5191L160.043 10.5191ZM159.128 31.5573L167.359 31.5573L167.359 9.60437L159.128 9.60437L159.128 31.5573Z" fill="white"/>
<path fill-rule="evenodd" clip-rule="evenodd" d="M163.701 9.92718L163.701 31.5573L162.786 31.5573L162.786 9.92718L163.701 9.92718Z" fill="white"/>
<path fill-rule="evenodd" clip-rule="evenodd" d="M155.47 0.914699L44.812 0.914699L44.812 7.3176L155.47 7.3176L155.47 0.914699ZM43.8975 0L43.8975 8.23229L156.385 8.23229L156.385 9.14364e-10L43.8975 0Z" fill="white"/>
<path fill-rule="evenodd" clip-rule="evenodd" d="M155.927 4.57354L43.8975 4.57354L43.8975 3.65881L155.927 3.65881L155.927 4.57354Z" fill="white"/>
<path d="M426.628 36.1307L389.132 36.1307L389.132 44.3631L426.628 44.3631L426.628 36.1307Z" fill="white"/>
<path d="M267.5 36.1307L246.009 36.1307L246.009 44.3631L267.5 44.3631L267.5 36.1307Z" fill="white"/>
<path d="M389.133 31.5573L389.133 44.3631L397.363 44.3631L397.363 31.5572L389.133 31.5573Z" fill="white"/>
<path d="M263.385 31.5573L263.385 44.3631L271.615 44.3631L271.615 31.5572L263.385 31.5573Z" fill="white"/>
<path d="M263.385 31.5573L263.385 44.3631L271.615 44.3631L271.615 31.5572L263.385 31.5573Z" fill="white"/>
<path d="M246.009 36.1307L246.009 69.5174L254.239 69.5174L254.239 36.1307L246.009 36.1307Z" fill="white"/>
<path d="M236.406 56.2542L250.124 56.2542L250.124 48.0219L236.406 48.0219L236.406 56.2542Z" fill="white"/>
<path d="M389.133 1.82935L389.133 9.60431L397.363 9.60431L397.363 1.82934L389.133 1.82935Z" fill="white"/>
<path d="M263.385 1.82935L263.385 9.60431L271.615 9.60431L271.615 1.82934L263.385 1.82935Z" fill="white"/>
<path d="M386.389 8.2323L397.363 8.2323L397.363 7.96695e-07L386.389 7.96604e-07L386.389 8.2323Z" fill="white"/>
<path d="M263.385 8.2323L274.359 8.2323L274.359 7.96693e-07L263.385 7.96604e-07L263.385 8.2323Z" fill="white"/>
<path fill-rule="evenodd" clip-rule="evenodd" d="M396.449 10.5191L396.449 30.6425L390.047 30.6425L390.047 10.5191L396.449 10.5191ZM397.363 31.5573L389.133 31.5573L389.133 9.60437L397.363 9.60437L397.363 31.5573Z" fill="white"/>
<path fill-rule="evenodd" clip-rule="evenodd" d="M392.791 9.92718L392.791 31.5573L393.705 31.5573L393.705 9.92718L392.791 9.92718Z" fill="white"/>
<path fill-rule="evenodd" clip-rule="evenodd" d="M270.701 10.5191L270.701 30.6425L264.299 30.6425L264.299 10.5191L270.701 10.5191ZM271.615 31.5573L263.385 31.5573L263.385 9.60437L271.615 9.60437L271.615 31.5573Z" fill="white"/>
<path fill-rule="evenodd" clip-rule="evenodd" d="M267.043 9.92718L267.043 31.5573L267.957 31.5573L267.957 9.92718L267.043 9.92718Z" fill="white"/>
<path fill-rule="evenodd" clip-rule="evenodd" d="M275.274 0.914709L385.932 0.9147L385.932 7.3176L275.274 7.31761L275.274 0.914709ZM386.846 0L386.846 8.23229L274.359 8.2323L274.359 9.83486e-06L386.846 0Z" fill="white"/>
<path fill-rule="evenodd" clip-rule="evenodd" d="M275.1 4.57355L386.846 4.57354L386.846 3.65881L275.1 3.65882L275.1 4.57355Z" fill="white"/>
<path d="M353.566 318.145L338.8 318.145L338.479 320.096L336.948 320.096L336.948 314.49L348.06 307.13L350.875 305.747L338.8 305.747L338.479 307.871L336.948 307.871L336.948 301.746L338.479 301.746L338.8 303.648L355.295 303.648L355.295 306.636L343.615 314.317L340.356 316.046L353.566 316.046L353.813 313.551L355.295 313.551L355.295 320.096L353.813 320.096L353.566 318.145Z" fill="white"/>
<path d="M353.566 334.353L338.8 334.353L338.479 336.329L336.948 336.329L336.948 323.165L341.097 322.844L341.097 324.573L338.652 325.388L338.43 330.723L345.072 330.723L344.998 327.29L342.973 326.894L342.973 325.314L348.949 325.314L348.949 326.894L346.825 327.29L346.751 330.723L353.715 330.723L353.418 324.746L350.258 323.313L350.776 321.461L355.295 322.103L355.295 336.304L353.813 336.304L353.566 334.353Z" fill="white"/>
<path d="M353.566 354.949L338.8 354.949L338.479 356.777L336.948 356.777L336.948 349.269L338.479 349.269L338.8 351.343L344.998 351.343L344.998 343.835L338.8 343.835L338.479 345.737L336.948 345.737L336.948 338.328L338.479 338.328L338.8 340.205L353.566 340.205L353.813 338.328L355.295 338.328L355.295 345.762L353.813 345.762L353.566 343.835L346.875 343.835L346.875 351.343L353.566 351.343L353.813 349.269L355.295 349.269L355.295 356.826L353.813 356.826L353.566 354.949Z" fill="white"/>
<path d="M355.567 364.783C355.567 370.513 351.863 373.427 346.208 373.427C340.381 373.427 336.751 369.55 336.751 364.388C336.751 362.017 337.319 359.721 337.418 358.757L342.504 359.029L342.504 361.301L338.973 362.067C338.652 362.388 338.356 363.228 338.356 364.709C338.356 367.426 340.875 369.352 345.912 369.352C350.431 369.352 353.962 367.821 353.962 364.611C353.962 362.981 353.591 362.338 353.147 361.869L350.603 360.783L350.801 358.708L354.628 359.202C354.752 360.758 355.567 361.746 355.567 364.783Z" fill="white"/>
<path d="M353.566 384.761L338.578 384.761L338.702 388.293L344.085 389.256L344.085 391.331L336.948 390.911L336.948 374.981L344.085 374.685L344.085 376.636L338.702 377.599L338.578 381.081L353.566 381.081L353.813 377.624L355.295 377.624L355.295 387.922L353.813 387.922L353.566 384.761Z" fill="white"/>
<path d="M353.566 398.644L338.8 398.644L338.479 400.743L336.948 400.743L336.948 392.84L338.479 392.84L338.8 395.014L353.566 395.014L353.838 392.84L355.295 392.84L355.295 400.743L353.813 400.743L353.566 398.644Z" fill="white"/>
<path d="M355.295 406.228C355.295 407.266 349.023 409.637 346.653 411.563L349.171 413.761L353.566 413.761L353.838 411.637L355.295 411.637L355.295 419.318L353.813 419.318L353.566 417.367L338.8 417.367L338.479 419.293L336.948 419.293L336.948 411.859L338.479 411.859L338.8 413.761L346.85 413.761L338.8 407.266L338.479 409.291L336.948 409.291L336.948 402.623L338.479 402.623L338.8 404.673L344.183 409.464C346.307 407.093 353.147 403.932 353.566 402.968L353.838 401.808L355.295 401.808L355.295 406.228Z" fill="white"/>
<path d="M343.507 100.178L337.951 100.178L328.741 105.463L328.42 106.871L326.889 106.871L326.889 99.6097L328.42 99.6097L328.741 101.363L334.79 98.2761L336.494 97.5845L334.79 96.8683L328.741 94.0282L328.42 95.9545L326.889 95.9545L326.889 89.9285L328.42 89.9285L328.716 91.4597L337.926 96.3744L343.507 96.3744L343.754 93.6824L345.235 93.6824L345.235 102.796L343.754 102.796L343.507 100.178Z" fill="white"/>
<path d="M343.507 122.349L328.741 122.349L328.42 124.201L326.889 124.201L326.889 120.595C326.889 119.015 326.716 117.78 326.716 116.249C326.716 110.05 330 107.185 335.432 107.185C341.334 107.185 345.556 110.84 345.433 116.594C345.383 117.879 345.235 119.459 345.235 120.546L345.235 124.3L343.754 124.3L343.507 122.349ZM343.581 118.768C343.778 118.027 343.803 117.261 343.803 116.422C343.754 113.26 341.334 111.136 336 111.136C331.259 111.136 328.296 112.816 328.296 116.817C328.296 117.731 328.444 118.373 328.469 118.768L343.581 118.768Z" fill="white"/>
<path d="M345.433 134.109C345.433 139.073 343.062 141.518 337.655 141.518L328.741 141.518L328.42 143.148L326.889 143.148L326.889 135.689L328.42 135.689L328.765 137.789L337.976 137.789C342 137.789 343.852 136.331 343.852 133.615C343.852 130.799 341.581 129.589 338.074 129.589L328.765 129.589L328.42 131.713L326.889 131.713L326.889 125.539L328.42 125.539L328.741 127.218L337.877 127.218C343.235 127.218 345.433 130.133 345.433 134.109Z" fill="white"/>
<path d="M343.507 154.235L328.518 154.235L328.642 157.766L334.025 158.73L334.025 160.804L326.889 160.384L326.889 144.455L334.025 144.158L334.025 146.109L328.642 147.073L328.518 150.555L343.507 150.555L343.754 147.097L345.235 147.097L345.235 157.396L343.754 157.396L343.507 154.235Z" fill="white"/>
<path d="M345.507 168.745C345.507 171.709 344.47 173.857 344.42 174.672L339.852 174.45L339.852 172.45L343.038 171.906C343.457 171.511 343.926 170.375 343.926 168.869C343.926 166.621 342.84 165.559 341.161 165.559C339.358 165.559 338.494 167.239 337.358 169.782C336.469 171.709 334.963 174.524 331.605 174.524C328.914 174.524 326.667 172.425 326.667 168.202C326.667 165.535 327.481 163.806 327.531 163.09L331.852 163.238L331.852 165.214L328.815 165.732C328.543 165.979 328.173 166.918 328.173 168.103C328.173 170.153 329.21 171.091 330.667 171.091C332.617 171.091 333.482 169.116 334.667 166.695C335.655 164.621 337.062 161.904 340.05 161.904C342.519 161.904 345.507 163.633 345.507 168.745Z" fill="white"/>
<path d="M101.614 117.89L96.0578 117.89L86.8475 123.175L86.5265 124.583L84.9956 124.583L84.9956 117.322L86.5265 117.322L86.8475 119.076L92.8971 115.988L94.6009 115.297L92.8971 114.581L86.8475 111.741L86.5265 113.667L84.9956 113.667L84.9956 107.641L86.5265 107.641L86.8228 109.172L96.0331 114.087L101.614 114.087L101.86 111.395L103.342 111.395L103.342 120.508L101.86 120.508L101.614 117.89Z" fill="white"/>
<path d="M103.342 141.024L101.86 141.024L101.614 139.073L86.8475 139.073L86.5018 140.925L84.9956 140.925L84.9956 137.344C84.9956 135.936 84.8228 134.899 84.8228 133.318C84.8228 128.206 86.329 126.329 89.7118 126.329C91.8107 126.329 94.1071 127.465 94.8725 129.885C95.959 127.317 101.342 126.082 101.638 124.896L101.885 124.081L103.342 124.081L103.342 128.28C103.342 129.515 96.2553 131.021 95.4404 132.898L95.4404 135.442L101.614 135.442L101.86 133.17L103.342 133.17L103.342 141.024ZM93.9342 133.17C93.9342 131.342 92.6749 130.182 89.8847 130.182C87.5883 130.182 86.3537 131.021 86.3537 133.639C86.3537 134.602 86.4524 135.096 86.4771 135.442L93.8848 135.442C93.9589 134.948 93.9342 133.59 93.9342 133.17Z" fill="white"/>
<path d="M101.614 158.266L84.897 152.586L84.897 148.807L101.614 143.102L101.861 141.669L103.342 141.669L103.342 148.955L101.861 148.955L101.614 147.103L98.4037 148.066L98.4037 154.463L101.638 155.426L101.861 153.425L103.342 153.425L103.342 159.723L101.861 159.748L101.614 158.266ZM96.6752 148.56L89.07 150.881L87.144 151.326L89.0947 151.795L96.6752 153.993L96.6752 148.56Z" fill="white"/>
<path d="M103.342 176.164L101.86 176.164L101.614 174.213L86.8475 174.213L86.5018 176.065L84.9956 176.065L84.9956 172.484C84.9956 171.076 84.8228 170.039 84.8228 168.458C84.8228 163.346 86.329 161.469 89.7118 161.469C91.8107 161.469 94.1071 162.605 94.8725 165.025C95.959 162.457 101.342 161.222 101.638 160.037L101.885 159.222L103.342 159.222L103.342 163.42C103.342 164.655 96.2553 166.161 95.4404 168.038L95.4404 170.582L101.614 170.582L101.86 168.31L103.342 168.31L103.342 176.164ZM93.9342 168.31C93.9342 166.483 92.6749 165.322 89.8847 165.322C87.5883 165.322 86.3537 166.161 86.3537 168.779C86.3537 169.743 86.4524 170.236 86.4771 170.582L93.8848 170.582C93.9589 170.088 93.9342 168.73 93.9342 168.31Z" fill="white"/>
<path d="M101.614 191.626L86.8475 191.626L86.5265 193.552L84.9956 193.552L84.9956 189.872C84.9956 188.341 84.8228 187.156 84.8228 185.896C84.8228 180.66 86.4278 179.179 88.9958 179.179C91.465 179.179 93.1934 180.809 93.5391 183.155C93.5144 179.92 95.0948 177.919 97.8109 177.919C100.897 177.919 103.49 179.697 103.49 185.748C103.49 187.427 103.342 188.168 103.342 189.848L103.342 193.577L101.86 193.577L101.614 191.626ZM92.9959 188.045C93.0453 187.502 93.0206 186.366 93.0206 185.773C93.0206 183.723 91.6625 182.784 89.4402 182.784C87.3167 182.784 86.329 183.698 86.329 186.094C86.329 186.711 86.4031 187.674 86.4278 188.045L92.9959 188.045ZM101.712 188.045C101.885 187.6 101.935 186.588 101.935 185.872C101.935 182.957 100.453 181.895 98.0825 181.895C95.6627 181.895 94.7244 183.007 94.7244 185.452C94.7244 186.217 94.7244 187.526 94.7738 188.045L101.712 188.045Z" fill="white"/>
<path d="M101.614 201.459L86.8475 201.459L86.5265 203.558L84.9956 203.558L84.9956 195.655L86.5265 195.655L86.8475 197.828L101.614 197.828L101.885 195.655L103.342 195.655L103.342 203.558L101.86 203.558L101.614 201.459Z" fill="white"/>
<path d="M101.614 217.504L86.8475 217.504L86.5265 219.406L84.9956 219.406L84.9956 211.503L86.5265 211.503L86.8475 213.874L101.589 213.874L101.367 208.589L96.7491 207.033L97.0208 205.032L103.342 205.798L103.342 219.455L101.86 219.455L101.614 217.504Z" fill="white"/>
<path d="M330.269 512.024L319.604 510.722L319.373 512.648L318.267 512.648L318.267 507.083L325.935 504.96L328.022 504.461L325.935 504.033L318.267 501.928L318.267 496.417L319.373 496.417L319.604 498.361L330.251 496.934L330.447 495.489L331.517 495.489L331.517 501.179L330.447 501.179L330.269 499.609L322.458 500.394L319.194 500.733L321.941 501.393L330.964 503.979L330.964 505.87L322.404 508.51L319.194 509.42L322.458 509.687L330.269 510.365L330.447 508.563L331.517 508.563L331.517 513.522L330.447 513.522L330.269 512.024Z" fill="white"/>
<path d="M331.713 520.149C331.749 524.198 328.985 526.017 324.937 526.017C320.764 526.017 318.089 523.556 318.107 519.935C318.107 515.904 320.692 514.085 324.705 514.085C328.878 514.085 331.678 516.564 331.713 520.149ZM319.194 520.042C319.194 521.951 321.049 523.146 324.919 523.146C328.7 523.146 330.626 522.022 330.626 520.078C330.626 518.187 328.593 516.992 324.705 516.992C320.924 516.992 319.194 518.116 319.194 520.042Z" fill="white"/>
<path d="M331.713 533.126C331.749 537.175 328.985 538.994 324.937 538.994C320.764 538.994 318.089 536.533 318.107 532.912C318.107 528.881 320.692 527.062 324.705 527.062C328.878 527.062 331.678 529.541 331.713 533.126ZM319.194 533.019C319.194 534.927 321.049 536.123 324.919 536.123C328.7 536.123 330.626 534.999 330.626 533.055C330.626 531.164 328.593 529.969 324.705 529.969C320.924 529.969 319.194 531.093 319.194 533.019Z" fill="white"/>
<path d="M331.517 551.688L330.447 551.688L330.269 550.279L319.604 550.279L319.355 551.617L318.267 551.617L318.267 549.031C318.267 548.014 318.142 547.265 318.142 546.123C318.142 542.431 319.23 541.076 321.673 541.076C323.189 541.076 324.847 541.896 325.4 543.644C326.185 541.789 330.073 540.897 330.287 540.041L330.465 539.453L331.517 539.453L331.517 542.485C331.517 543.377 326.399 544.465 325.81 545.82L325.81 547.657L330.269 547.657L330.447 546.016L331.517 546.016L331.517 551.688ZM324.723 546.016C324.723 544.696 323.813 543.858 321.798 543.858C320.139 543.858 319.248 544.465 319.248 546.355C319.248 547.051 319.319 547.408 319.337 547.657L324.687 547.657C324.74 547.301 324.723 546.32 324.723 546.016Z" fill="white"/>
<path d="M396.17 470.027L393.803 470.027L389.881 472.278L389.744 472.878L389.092 472.878L389.092 469.785L389.744 469.785L389.881 470.532L392.457 469.217L393.183 468.922L392.457 468.617L389.881 467.408L389.744 468.228L389.092 468.228L389.092 465.661L389.744 465.661L389.87 466.314L393.793 468.407L396.17 468.407L396.275 467.26L396.906 467.26L396.906 471.142L396.275 471.142L396.17 470.027Z" fill="white"/>
<path d="M396.17 477.231L389.786 477.231L389.839 478.736L392.131 479.146L392.131 480.03L389.092 479.851L389.092 473.066L392.131 472.94L392.131 473.771L389.839 474.181L389.786 475.664L396.17 475.664L396.275 474.191L396.906 474.191L396.906 478.578L396.275 478.578L396.17 477.231Z" fill="white"/>
<path d="M396.17 483.145L389.881 483.145L389.744 484.039L389.092 484.039L389.092 480.673L389.744 480.673L389.881 481.599L396.17 481.599L396.285 480.673L396.906 480.673L396.906 484.039L396.275 484.039L396.17 483.145Z" fill="white"/>
<path d="M396.17 489.979L389.881 489.979L389.744 490.789L389.092 490.789L389.092 487.423L389.744 487.423L389.881 488.432L396.159 488.432L396.065 486.181L394.098 485.519L394.214 484.667L396.906 484.993L396.906 490.81L396.275 490.81L396.17 489.979Z" fill="white"/>
<path d="M396.17 494.177L389.881 494.177L389.744 495.072L389.092 495.072L389.092 491.705L389.744 491.705L389.881 492.631L396.17 492.631L396.285 491.705L396.906 491.705L396.906 495.072L396.275 495.072L396.17 494.177Z" fill="white"/>
<path d="M396.17 500.078L389.786 500.078L389.839 501.582L392.131 501.992L392.131 502.876L389.092 502.697L389.092 495.912L392.131 495.786L392.131 496.617L389.839 497.027L389.786 498.51L396.17 498.51L396.275 497.038L396.906 497.038L396.906 501.424L396.275 501.424L396.17 500.078Z" fill="white"/>
<path d="M396.99 506.812C396.99 508.926 395.981 509.967 393.677 509.967L389.881 509.967L389.744 510.662L389.092 510.662L389.092 507.485L389.744 507.485L389.891 508.379L393.814 508.379C395.528 508.379 396.317 507.758 396.317 506.601C396.317 505.402 395.349 504.887 393.856 504.887L389.891 504.887L389.744 505.791L389.092 505.791L389.092 503.162L389.744 503.162L389.881 503.877L393.772 503.877C396.054 503.877 396.99 505.118 396.99 506.812Z" fill="white"/>
<path d="M103.613 452.274C103.613 457.856 99.6133 460.943 94.3785 460.943C88.1807 460.943 84.7732 457.164 84.7732 451.434C84.7732 448.841 85.3411 446.248 85.5387 445.384L90.1314 445.655L90.1314 448.15L86.9708 448.816C86.7239 449.063 86.3041 449.878 86.3041 451.558C86.3041 454.744 88.9215 456.744 93.934 456.744C98.4774 456.744 102.033 455.336 102.033 451.953C102.033 450.619 101.663 449.384 101.144 448.792L95.8353 448.792L95.5884 451.41L93.934 451.41L93.934 443.902L95.5884 443.902L95.8107 445.211L102.354 445.211C102.404 446.52 103.613 448.94 103.613 452.274Z" fill="white"/>
<path d="M101.613 478.693L86.8473 478.693L86.5263 480.644L84.9954 480.644L84.9954 475.038L96.1069 467.678L98.9218 466.295L86.8473 466.295L86.5263 468.419L84.9954 468.419L84.9954 462.294L86.5263 462.294L86.8473 464.196L103.342 464.196L103.342 467.184L91.6623 474.865L88.4029 476.594L101.613 476.594L101.86 474.099L103.342 474.099L103.342 480.644L101.86 480.644L101.613 478.693Z" fill="white"/>
<path d="M101.613 488.55L86.8473 488.55L86.5263 490.649L84.9954 490.649L84.9954 482.746L86.5263 482.746L86.8473 484.92L101.613 484.92L101.885 482.746L103.342 482.746L103.342 490.649L101.86 490.649L101.613 488.55Z" fill="white"/>
<path d="M86.5263 509.185L84.9954 509.185L84.9954 501.677L86.5263 501.677L86.8473 503.776L97.9094 500.097L100.403 499.38L97.8847 498.763L86.8473 495.305L86.5263 497.256L84.9954 497.256L84.9954 491.28L86.5263 491.28L86.8473 492.86L103.515 498.541L103.515 501.48L86.8473 507.703L86.5263 509.185Z" fill="white"/>
<path d="M101.613 515.659L86.8473 515.659L86.5263 517.758L84.9954 517.758L84.9954 509.855L86.5263 509.855L86.8473 512.028L101.613 512.028L101.885 509.855L103.342 509.855L103.342 517.758L101.86 517.758L101.613 515.659Z" fill="white"/>
<path d="M101.613 531.705L86.8473 531.705L86.5263 533.606L84.9954 533.606L84.9954 525.703L86.5263 525.703L86.8473 528.074L101.589 528.074L101.366 522.789L96.7489 521.233L97.0205 519.233L103.342 519.998L103.342 533.656L101.86 533.656L101.613 531.705Z" fill="white"/>
<path fill-rule="evenodd" clip-rule="evenodd" d="M361.239 487.994C361.239 480.921 355.507 475.188 348.436 475.188C341.365 475.188 335.633 480.921 335.633 487.994C335.633 495.066 341.365 500.8 348.436 500.8C355.507 500.8 361.239 495.066 361.239 487.994ZM361.697 487.994C361.697 480.669 355.76 474.731 348.436 474.731C341.112 474.731 335.175 480.669 335.175 487.994C335.175 495.319 341.112 501.257 348.436 501.257C355.76 501.257 361.697 495.319 361.697 487.994Z" fill="white"/>
<path fill-rule="evenodd" clip-rule="evenodd" d="M338.506 483.29C339.534 481.353 341.344 479.39 344.232 478.178C347.108 476.972 349.278 476.982 350.887 477.479C352.492 477.975 353.509 478.946 354.095 479.61L354.11 479.628L354.122 479.648C355.669 482.356 357.835 489.383 354.122 495.882C352.947 497.938 351.304 499.012 349.496 499.317C347.696 499.621 345.758 499.16 343.983 498.199C340.45 496.287 337.473 492.344 337.462 488.246C337.227 487.109 337.489 485.204 338.506 483.29ZM338.91 483.505C337.921 485.366 337.699 487.174 337.914 488.174L337.919 488.198L337.919 488.222C337.919 492.12 340.768 495.94 344.201 497.797C345.913 498.723 347.747 499.148 349.42 498.866C351.084 498.585 352.613 497.601 353.725 495.655C357.319 489.365 355.237 482.538 353.736 479.895C353.177 479.264 352.231 478.373 350.752 477.916C349.263 477.456 347.204 477.428 344.409 478.6C341.627 479.767 339.893 481.653 338.91 483.505Z" fill="white"/>
<path fill-rule="evenodd" clip-rule="evenodd" d="M349.351 488.451C349.351 487.946 348.941 487.536 348.436 487.536C347.931 487.536 347.521 487.946 347.521 488.451C347.521 488.956 347.931 489.366 348.436 489.366C348.941 489.366 349.351 488.956 349.351 488.451ZM349.808 488.451C349.808 487.693 349.194 487.079 348.436 487.079C347.678 487.079 347.064 487.693 347.064 488.451C347.064 489.209 347.678 489.823 348.436 489.823C349.194 489.823 349.808 489.209 349.808 488.451Z" fill="white"/>
<path fill-rule="evenodd" clip-rule="evenodd" d="M357.581 490.738C357.581 490.485 357.377 490.281 357.124 490.281C356.871 490.281 356.667 490.485 356.667 490.738C356.667 490.99 356.871 491.195 357.124 491.195C357.377 491.195 357.581 490.99 357.581 490.738ZM358.039 490.738C358.039 490.233 357.629 489.823 357.124 489.823C356.619 489.823 356.209 490.233 356.209 490.738C356.209 491.243 356.619 491.653 357.124 491.653C357.629 491.653 358.039 491.243 358.039 490.738Z" fill="white"/>
<path fill-rule="evenodd" clip-rule="evenodd" d="M357.581 485.707C357.581 485.454 357.377 485.25 357.124 485.25C356.871 485.25 356.667 485.454 356.667 485.707C356.667 485.96 356.871 486.164 357.124 486.164C357.377 486.164 357.581 485.96 357.581 485.707ZM358.039 485.707C358.039 485.202 357.629 484.792 357.124 484.792C356.619 484.792 356.209 485.202 356.209 485.707C356.209 486.212 356.619 486.622 357.124 486.622C357.629 486.622 358.039 486.212 358.039 485.707Z" fill="white"/>
<path fill-rule="evenodd" clip-rule="evenodd" d="M356.667 487.994L351.637 487.994C351.384 487.994 351.179 488.199 351.179 488.451C351.179 488.704 351.384 488.908 351.637 488.908L356.667 488.908C356.919 488.908 357.124 488.704 357.124 488.451C357.124 488.199 356.919 487.994 356.667 487.994ZM350.722 488.451C350.722 488.956 351.132 489.366 351.637 489.366L356.667 489.366C357.172 489.366 357.581 488.956 357.581 488.451C357.581 487.946 357.172 487.536 356.667 487.536L351.637 487.536C351.132 487.536 350.722 487.946 350.722 488.451Z" fill="white"/>
<path fill-rule="evenodd" clip-rule="evenodd" d="M442.166 272.776L442.166 284.784C442.166 285.542 442.78 286.156 443.537 286.156L453.84 286.156C454.598 286.156 455.212 285.542 455.212 284.784L455.212 272.776C455.212 272.018 454.598 271.404 453.84 271.404L443.537 271.404C442.78 271.404 442.166 272.018 442.166 272.776ZM441.708 284.784C441.708 285.794 442.527 286.613 443.537 286.613L453.84 286.613C454.851 286.613 455.669 285.794 455.669 284.784L455.669 272.776C455.669 271.766 454.851 270.947 453.84 270.947L443.537 270.947C442.527 270.947 441.708 271.766 441.708 272.776L441.708 284.784Z" fill="white"/>
<path fill-rule="evenodd" clip-rule="evenodd" d="M443.528 274.138L443.528 283.422C443.528 284.179 444.142 284.794 444.899 284.794L452.478 284.794C453.236 284.794 453.85 284.179 453.85 283.422L453.85 274.138C453.85 273.381 453.236 272.766 452.478 272.766L444.899 272.766C444.142 272.766 443.528 273.381 443.528 274.138ZM443.07 283.422C443.07 284.432 443.889 285.251 444.899 285.251L452.478 285.251C453.488 285.251 454.307 284.432 454.307 283.422L454.307 274.138C454.307 273.128 453.488 272.309 452.478 272.309L444.899 272.309C443.889 272.309 443.07 273.128 443.07 274.138L443.07 283.422Z" fill="white"/>
<path fill-rule="evenodd" clip-rule="evenodd" d="M449.764 278.78C449.764 278.468 449.511 278.216 449.2 278.216C448.888 278.216 448.635 278.468 448.635 278.78C448.635 279.092 448.888 279.344 449.2 279.344C449.511 279.344 449.764 279.092 449.764 278.78ZM450.221 278.78C450.221 278.216 449.764 277.758 449.2 277.758C448.635 277.758 448.178 278.216 448.178 278.78C448.178 279.344 448.635 279.802 449.2 279.802C449.764 279.802 450.221 279.344 450.221 278.78Z" fill="white"/>
<path fill-rule="evenodd" clip-rule="evenodd" d="M457.489 272.776L457.489 284.784C457.489 285.542 458.103 286.156 458.861 286.156L469.164 286.156C469.921 286.156 470.535 285.542 470.535 284.784L470.535 272.776C470.535 272.018 469.921 271.404 469.164 271.404L458.861 271.404C458.103 271.404 457.489 272.018 457.489 272.776ZM457.031 284.784C457.031 285.794 457.85 286.613 458.861 286.613L469.164 286.613C470.174 286.613 470.993 285.794 470.993 284.784L470.993 272.776C470.993 271.766 470.174 270.947 469.164 270.947L458.861 270.947C457.85 270.947 457.031 271.766 457.031 272.776L457.031 284.784Z" fill="white"/>
<path fill-rule="evenodd" clip-rule="evenodd" d="M458.851 274.138L458.851 283.422C458.851 284.179 459.465 284.794 460.223 284.794L467.802 284.794C468.559 284.794 469.173 284.179 469.173 283.422L469.173 274.138C469.173 273.381 468.559 272.766 467.802 272.766L460.223 272.766C459.465 272.766 458.851 273.381 458.851 274.138ZM458.394 283.422C458.394 284.432 459.212 285.251 460.223 285.251L467.802 285.251C468.812 285.251 469.631 284.432 469.631 283.422L469.631 274.138C469.631 273.128 468.812 272.309 467.802 272.309L460.223 272.309C459.212 272.309 458.394 273.128 458.394 274.138L458.394 283.422Z" fill="white"/>
<path fill-rule="evenodd" clip-rule="evenodd" d="M465.087 278.78C465.087 278.468 464.834 278.216 464.523 278.216C464.211 278.216 463.958 278.468 463.958 278.78C463.958 279.092 464.211 279.344 464.523 279.344C464.834 279.344 465.087 279.092 465.087 278.78ZM465.544 278.78C465.544 278.216 465.087 277.758 464.523 277.758C463.959 277.758 463.501 278.216 463.501 278.78C463.501 279.344 463.959 279.802 464.523 279.802C465.087 279.802 465.544 279.344 465.544 278.78Z" fill="white"/>
<path fill-rule="evenodd" clip-rule="evenodd" d="M453.169 268.733C453.169 268.327 452.84 267.998 452.434 267.998C452.029 267.998 451.7 268.327 451.7 268.733C451.7 269.139 452.029 269.468 452.434 269.468C452.84 269.468 453.169 269.139 453.169 268.733ZM453.626 268.733C453.626 268.075 453.093 267.541 452.434 267.541C451.776 267.541 451.243 268.075 451.243 268.733C451.243 269.391 451.776 269.925 452.434 269.925C453.093 269.925 453.626 269.391 453.626 268.733Z" fill="white"/>
<path fill-rule="evenodd" clip-rule="evenodd" d="M461.341 268.733C461.341 268.327 461.013 267.998 460.607 267.998C460.201 267.998 459.872 268.327 459.872 268.733C459.872 269.139 460.201 269.468 460.607 269.468C461.013 269.468 461.341 269.139 461.341 268.733ZM461.799 268.733C461.799 268.075 461.265 267.541 460.607 267.541C459.949 267.541 459.415 268.075 459.415 268.733C459.415 269.391 459.949 269.925 460.607 269.925C461.265 269.925 461.799 269.391 461.799 268.733Z" fill="white"/>
<path fill-rule="evenodd" clip-rule="evenodd" d="M456.127 268.903L456.127 277.077C456.127 277.201 456.227 277.301 456.35 277.301C456.474 277.301 456.574 277.201 456.574 277.077L456.574 268.903C456.574 268.779 456.474 268.679 456.35 268.679C456.227 268.679 456.127 268.779 456.127 268.903ZM455.669 277.077C455.669 277.453 455.974 277.758 456.35 277.758C456.727 277.758 457.032 277.453 457.032 277.077L457.032 268.903C457.032 268.527 456.727 268.222 456.35 268.222C455.974 268.222 455.669 268.527 455.669 268.903L455.669 277.077Z" fill="white"/>
<path fill-rule="evenodd" clip-rule="evenodd" d="M440.803 266.636L440.803 287.178L471.898 287.178L471.898 266.636L440.803 266.636ZM440.346 287.178C440.346 287.43 440.551 287.635 440.803 287.635L471.898 287.635C472.15 287.635 472.355 287.43 472.355 287.178L472.355 266.636C472.355 266.383 472.15 266.179 471.898 266.179L440.803 266.179C440.551 266.179 440.346 266.383 440.346 266.636L440.346 287.178Z" fill="white"/>
<path fill-rule="evenodd" clip-rule="evenodd" d="M388.809 417.846C384.265 415.964 379.413 414.941 374.5 414.828L374.5 453.692L413.357 453.692C413.244 448.779 412.222 443.926 410.339 439.38C408.34 434.553 405.41 430.167 401.716 426.472C398.022 422.777 393.636 419.846 388.809 417.846ZM414.272 453.692C414.279 453.997 414.282 454.302 414.282 454.607L373.585 454.607L373.585 413.903C373.89 413.903 374.195 413.906 374.5 413.913C379.533 414.026 384.504 415.073 389.159 417.001C394.097 419.047 398.583 422.045 402.362 425.825C406.141 429.605 409.139 434.092 411.184 439.03C413.113 443.687 414.159 448.659 414.272 453.692Z" fill="white"/>
<path fill-rule="evenodd" clip-rule="evenodd" d="M231.549 72.853C233.431 68.3074 234.454 63.4545 234.566 58.5409L195.709 58.5409L195.709 97.4052C200.622 97.2922 205.474 96.2698 210.019 94.3869C214.845 92.3873 219.231 89.4565 222.925 85.7617C226.619 82.0669 229.55 77.6805 231.549 72.853ZM195.709 98.3202C195.405 98.327 195.1 98.3304 194.795 98.3304L194.795 57.6262L235.492 57.6262C235.492 57.9313 235.488 58.2362 235.481 58.5409C235.368 63.5746 234.322 68.5465 232.394 73.2031C230.348 78.1415 227.351 82.6287 223.572 86.4085C219.793 90.1882 215.306 93.1864 210.369 95.232C205.713 97.1608 200.742 98.207 195.709 98.3202Z" fill="white"/>
<path fill-rule="evenodd" clip-rule="evenodd" d="M158.537 107.65C163.082 109.533 167.934 110.555 172.846 110.668L172.846 71.8041L133.989 71.8041C134.102 76.7177 135.124 81.5706 137.007 86.1162C139.006 90.9437 141.936 95.33 145.631 99.0248C149.325 102.72 153.71 105.651 158.537 107.65ZM133.074 71.8041C133.068 71.4994 133.064 71.1945 133.064 70.8894L173.761 70.8894L173.761 111.594C173.456 111.594 173.151 111.59 172.846 111.583C167.813 111.47 162.843 110.424 158.187 108.495C153.249 106.45 148.763 103.451 144.984 99.6716C141.205 95.8919 138.207 91.4047 136.162 86.4662C134.234 81.8096 133.188 76.8378 133.074 71.8041Z" fill="white"/>
<path fill-rule="evenodd" clip-rule="evenodd" d="M158.537 376.573C163.082 378.456 167.934 379.478 172.846 379.591L172.846 340.727L133.989 340.727C134.102 345.64 135.124 350.493 137.007 355.039C139.006 359.866 141.936 364.253 145.631 367.947C149.325 371.642 153.71 374.573 158.537 376.573ZM133.074 340.727C133.068 340.422 133.064 340.117 133.064 339.812L173.761 339.812L173.761 380.516C173.456 380.516 173.151 380.513 172.846 380.506C167.813 380.393 162.843 379.347 158.187 377.418C153.249 375.372 148.763 372.374 144.984 368.594C141.205 364.815 138.207 360.327 136.162 355.389C134.234 350.732 133.188 345.76 133.074 340.727Z" fill="white"/>
<path fill-rule="evenodd" clip-rule="evenodd" d="M232.463 530.662C234.346 526.116 235.368 521.263 235.481 516.35L196.624 516.35L196.624 555.214C201.537 555.101 206.389 554.079 210.933 552.196C215.76 550.196 220.146 547.265 223.84 543.57C227.534 539.876 230.464 535.489 232.463 530.662ZM196.624 556.129C196.319 556.136 196.015 556.139 195.709 556.139L195.709 515.435L236.406 515.435C236.406 515.74 236.403 516.045 236.396 516.35C236.283 521.383 235.237 526.355 233.308 531.012C231.263 535.95 228.265 540.437 224.486 544.217C220.707 547.997 216.221 550.995 211.283 553.041C206.628 554.97 201.657 556.016 196.624 556.129Z" fill="white"/>
<path fill-rule="evenodd" clip-rule="evenodd" d="M248.579 489.689C246.697 494.235 245.675 499.087 245.562 504.001L284.419 504.001L284.419 465.137C279.506 465.25 274.654 466.272 270.109 468.155C265.283 470.155 260.897 473.085 257.203 476.78C253.509 480.475 250.579 484.861 248.579 489.689ZM284.419 464.222C284.723 464.215 285.028 464.211 285.333 464.211L285.333 504.916L244.637 504.916C244.637 504.611 244.64 504.306 244.647 504.001C244.76 498.967 245.806 493.996 247.734 489.339C249.78 484.4 252.777 479.913 256.556 476.133C260.335 472.354 264.822 469.356 269.759 467.31C274.415 465.381 279.386 464.335 284.419 464.222Z" fill="white"/>
<path fill-rule="evenodd" clip-rule="evenodd" d="M273.121 73.4609C268.577 71.578 263.725 70.5556 258.812 70.4426L258.812 109.307L297.669 109.307C297.556 104.393 296.534 99.5405 294.651 94.9949C292.652 90.1674 289.722 85.781 286.028 82.0862C282.334 78.3914 277.948 75.4605 273.121 73.4609ZM298.584 109.307C298.591 109.612 298.594 109.917 298.594 110.222L257.897 110.222L257.897 69.5174C258.202 69.5174 258.507 69.5208 258.812 69.5277C263.845 69.6408 268.816 70.687 273.471 72.6158C278.409 74.6614 282.895 77.6597 286.674 81.4394C290.453 85.2191 293.451 89.7064 295.496 94.6448C297.425 99.3014 298.471 104.273 298.584 109.307Z" fill="white"/>
</g>
</svg>
